<mxfile host="app.diagrams.net" modified="2022-05-12T17:18:02.223Z" agent="5.0 (Windows NT 10.0; Win64; x64) AppleWebKit/537.36 (KHTML, like Gecko) Chrome/100.0.4896.127 Safari/537.36" etag="iELF0C4H7eQo9FoByz89" version="18.0.3" type="github">
  <diagram id="-qpOr99n6op5akHGPuNe" name="Page-1">
    <mxGraphModel dx="2032" dy="1606" grid="1" gridSize="10" guides="1" tooltips="1" connect="1" arrows="1" fold="1" page="1" pageScale="1" pageWidth="827" pageHeight="1169" math="0" shadow="0">
      <root>
        <mxCell id="0" />
        <mxCell id="1" parent="0" />
        <mxCell id="I79zV8GsZZfp62jos5SP-64" value="" style="group;fontStyle=1;fillColor=none;" vertex="1" connectable="0" parent="1">
          <mxGeometry x="300" y="380" width="590" height="410" as="geometry" />
        </mxCell>
        <mxCell id="I79zV8GsZZfp62jos5SP-16" value="" style="strokeWidth=2;html=1;shape=mxgraph.flowchart.direct_data;whiteSpace=wrap;" vertex="1" parent="I79zV8GsZZfp62jos5SP-64">
          <mxGeometry x="-10" y="-10" width="600" height="420" as="geometry" />
        </mxCell>
        <mxCell id="I79zV8GsZZfp62jos5SP-17" value="" style="shape=image;verticalLabelPosition=bottom;labelBackgroundColor=default;verticalAlign=top;aspect=fixed;imageAspect=0;image=data:image/png,iVBORw0KGgoAAAANSUhEUgAAAHkAAABICAYAAADS3FpBAAAXtElEQVR4nO2dd3wU1drHv1O2pZCAlJeaoBQLyMVCL9IsNDsComJBRWmKYggiImAFaXL16lXKBWxUBS4QesBrQVEggOKrgAIRrgKBlN2dmfP+MTMnu5CEIIj4sr/PJ5/lszNzyvOc85zfU2ZRhBCCGP5fQ/2zBxDDH4+Yks8DxJR8HiCm5PMAMSWfB4gp+TzA71ZyzPP660A/lZtN0wRAURRUVcU0TYQQqKqKqsaMwrkKpTTBECEElmmi6cWvCdMw0XTtjA4uhjODkypZCIGiKABkbd3Khx98yNYtW8jPz6NcuQto2qwp3Xv2pFy5chiGgV7CQojhz0GJSo5U8JhRo5n2zjsoiiLPYwXbdHv9fl58+SU6de4cU/Q5iBK1YVkWmqaR9uQQ5s+bh6pp6JpGKBRCASwh8Pt8FOTl89iAgViWRZeuXWOm+xxDsTvZNAw0XWfxokU8PmAQmm4rV1VVUlJSqFylCtu2bSPnyBE0TSMcDuP1elmzPpOKFStiWVaMjJ0jKFYLqmbvxH+8/gaWsDBNE0VRGDZ8OBmrVzFj1kwyP9nADR07Ypomfr8f0zCYMW06YFuBGM4NFKlky7JQFIU9u3ezY/t2VE1DCMFtt9/OPff2xrJspQcCASa+NpkqVasSDAaxhGDD+vUAaFrMXJ8rKFLJrgXPzs62/WCHfLXv0EFed000QIuWLSQhO3DgAMFgMIqgxfDnokTidTxLzsvPA+ygiKqq0iTn5eYVPqNpxZ7FQggZUAGbmbuBlRj+OBQpXddtql6jBn6/H8MwEEIwe+YsALxeL4qi4PP5yN6/n4yMDLnjq9eogcfjkWe4C9MwUBQFXdfln+YsCLf9GP4YFLmT3ZBlhQoVaNykCevWrsXj8fDlxo08+nBfBj/5BGXLlmPHju0MTx9GQX4+Pp+PcCjM9R1vOKE904mWhUIhMteuY9u2bQQLCqhavRrNmjUnJTWl8L7YWX7GUbwL5Qg8a+tWburSFSGE3KGWZREfH09enm2mfT4foVCIlJQUlq7IQHOImqIo0pX6+KOPePH5Fzh44EBUP5ZlccuttzJy9CgCgUBM0X8ASox4uUGND957n6fT0xFC4PV6CYVCkny5u94fCDB/4QIuqlVLKsr9nDL5NSZNmIBlWXi9XpnY0HUdwzAASK1Zk7kL5pOQkBDzsc8wSpSkptuK6tb9Dt546y2qVKlCOByWCrYsC8MwaNS4MUuWLbUVbBi2gp3P1atWMXH8eARIRm4YBqqqEg6HMU0Tr9fLrh9/5LEBA8/StM8ziFLACIeFEEJYliUWzJsnLq1TV9RKrSmua99BbNm8ucj7LMsSQgjR+fobRK3UmuLiWrVFrdSa4snHB4vvd+4U+/btE3M+/FA0uKyevF675oXikw0b7LYMo8QxmaYpDMMQRtg46b1/JCzLssdhGMIIh+W85ffhsJTLn4VS2UTNMauKotCxc2fi4uNRFYXU1FTq1a+PYRh2nNtxudxgyrasLHbs2CFNd8dOnXh53FguqlWLypUrc+ttt/HGW29G9bVk8eLSLExUVUXTNDRd+9POcNeD0DTNGYsueYj8XtdLTNGeDZxy7zk5OViWhQAZDCmOLH3//ffSFxZC0Pu+e8F5zjX3TZo25fIGDdj8zTf2Mzt3AkS5X5EQDqHblpXFDz/8gKZqJCUn0ax581OdymnBnXMoFGLJosVs2bKZ3bt20+ehB2ncpAn79u3jqy+/RNd1VFWlZatWBAKBqMze2UKplGwapgyMKIqCcIIghmmTJp/P59xnRK3a/Lx8oDCCFhcXDyArSdxgSmJiAgoggFAoLPspciymPZbpU6excMEChBCkpKSwfNXKsyZAV8E//PADvXvdxS/Z2VhCoGs6bdu3o3GTJnz+6WekDRlibwghWJ25jmrVqv0pSi7RXAshbJKla+z87juGpw/jlhtv4ujRo1iWxeeffsaNnbvw+pQpHD16FE3XMQ1DRrXq1a8nJ6UoCpnr1sl2w+Ewuq5z+PBhNn21CYGt2MqVKwNERcYi4QooLj4eyzQxTZPExMQzJY9SwWX+g/oP4JfsbHSPx56TEaZsclkA6UVomobP5/tTvYVie45Uzvhx4+h43fW8/9577P35Z/tBhx1vy8piwrhXuaZlK1ZmrEDTdbxeLwDLli6zS4csC8uyeHXsWNasXo2u63g8Ho4dO8ag/v3Jd4IpCtCiZUug+J3swjJNcMZnFpHxcpm/aZqSMxQ1R9M0MQ3T+TSke3d8G+6ic8/hrVu2sH3bNjRdJxwOc+ttt7Hx6020bnONLR9NtcfmPCuO81Rl3xF/RY4von/3z52LEOKE8RWFk5rrxwcOYvGiRUBhZsk9ixVFweOs4pwjR+j70EOMefEFqlevztAhT7F3714pLI/HQzgUps9993N5gwaUK1eOLzdu5NixY+i6TjAYpELFitx86y22kE5j5bs76Pg2Ik2lGwMojrS5FS6RbUQ+n5OTIxeYZVkMGZpGcnJyqcKzbjslEUZ3DsWRNvd6aapwirzDbWDShAksXrRIDsYIGyiqgtfrJT4hgUO//SbjzqrjG6c/lSbbURSFQCBA+QoV2Pvzz2i6hqIobP7mG8lC/X4/wWAQgLGvjsPn8/3uEiJFUSQvOHjwIFu+2UwgLkBubi4VK1bi8gaXy12g6RqHfjvEkiWL2fTVVxz67RBx8XE0bNiQm265hXLlyvHdt9+yd+9eNE0jISGBK668koL8fLZv384Xn39uH2dOyHbtmjWUL1+ei2rVomrVqjbBKALCslB1HdM0WZ+ZiabpmKYdN2jRsqUzB3sBWpbF8qXL+GTDBvbv34+madSqXZsuXbtS9+K6/Pe//2XL5s14PB4QcFWjq/H7/Sec+ydI0i35+fHHH5k0YaJ9s6OQ+IR4hgxNo127dsTFx3PwwAFmzZzJjGnTMZ0Ah+veuMx55OhRVK1alX59+7Jm9ZrCyToJjXAoTJkyZZgweRLNmjfHPI0aMTdGfvToUW676Wb2798v5zR34QLZr6ZpTJ86jbGvvEKwoEB+D7Ds30sZ+/IrzJg1kxUZGUx7ZyrCsqhavTqr1q7ht0OH6HbrbfIosywL0zAYMvgJNE1j9PNjuP2OOzCtaPMphe58Duzfn4xly215qyrpw4fTslUrwuEwHo+Hzz79lKFPpfHzTz9FjW/VypX84/XXGTosnQsvuoi+fR6Ux9XKNaupkZJyciW7jc2cMQNVVdGdMychIYH5H39EamqqvDcxMZHhI0Zw8SWXyB3sKrr/wIEMGFQYwXrz7bdZvWoVC+bNZ+fO7wiHwlSoWJFWrVvRs1cvypQpcwI7P1W4MfM7u/dg/779KKo90QUff0S9+vUJhUJ4vV7GPDeKGdOnY5qmjLu7QnFJ4b339KZOnToyPhAfHy+vK4qCQjRnKFS6iJLj8XLVNI2RI0aQsXQZXp+PYDBI+vDh3N37Hjm+ZUuX0r/vIwhsAhcMBguPDaedF8Y8z1VXXyV5yfFHSyROkKhrmjPXZUp2rSgKQ4elk5qaSkFBgUw1uoTq9m7dWL1yFSsyMuSiCDkmOBQKyXO7Tdu2tGnbNkpYLk5HwZGk6oF773OqWeyY+tQZM6hXvz75+fkEAgEWzJvPjOnTpZ8eDoW5vEEDGjdpjK57yNq6lbVr1lCQn8/mr79G03Wb5DnCTUpKYtyE8Xz5xUZmz5ollfv4k0+QlJTElVddactRjT5vDYfHvD5lCrP/NROP10soGOTR/v2iFLxn92769X1E5gnC4TDVqlWjTbt2lC2bzO7du1mxPIO8vDw2fr4RFIeglVBuFSVVNzFw8OBB9u/fL1d1XHw87ZyqEJ/PJ5UTSRy63nQjK5y8MsCmTZvsDpwokKIo9q6AqMiQezyczg52xzN0yFOsX7dOJj4mvfYaLVq2IBQKEQgEMAyDV8eOjVoUo18YQ7fu3aPa++rLL3nwgT4cPnRIKtc1s3FxcXS98UbKly/Pu7Nn25dUlR49epCUnFw4JjViAZsmFStVYsmixYwf96pDQkP0vKsXAx97LCqYNH7cqzJXHwqFuKNHd0aNGRM1vl9//ZWH+zzI15s2yQRRSShyfxfk50sTpigKyUlJJ/VFK1SoIN0lIQQF+fmObCLOBifEF2kh3EVwOoiLi+O1SZOZN2cOOIvpudGjuaFTRwwnUQKQuW4d2dnZeL1ehBAMGDSIbt27SzfLMAzC4TBXXHklk6e8JucfCXcR5+TkRH1/6PBhwLZckbAsi8TERBbOX8CAfv2k29O5a1dGjBxZSAQ1mwiuWmkHdULBII0aN5YKdl2lcDjMBRdcwLR/zaBs2bJYpnVS+RWpZH8gIAUhhODQ4cMcPXq0xIYOHDggS3kURcEfCEQJBWyT7FaIuKHO060KUVWVzd98w4RXX0VgCzUtfSjde/aQ0TFpXb6yrUs4HCYuLo67e98DEFWx4vF4MAyDps2acdXVV52wS1yBHk8OdWchHS9wTdPIzc3lmaeflt9de/11jJsw/oS57Nixnby8PLttReGhvg8Dhe6cpml4PB5CoRDx8fHceVcvFFVB1TRKUnOUkt2Du0KFClSpUsV+O8LrJVhQwMqMFQB2VaazWyMd848WLIyaZMOGDeUA3R0eGax3jwZ3J5tOXvlUoaqqdMHchdO6TZuoe9wxHfjlF8BeeLVq1yYpKanE3HX9+peX2sqUtFBdGbhcpnnzFgCyjt3FQWejmKaJx+OhTp06co6RcC1T/fqX2307uYTicMLs3JXbslVLWaUphOCFMWPYtWsXfr9f7lZ3ZX34wQesyMiQEwLwOvFsd2KqqrJq5SoG9OvHDddeR4e2benRrRtv/P3v5OTkyJDoqcIwDC697DL+1rChzP489MAD8qw/HSsRcshSUShtu6Zpkly2LO07dJBBpKfT09mxY4cd+jSME859+58nHhURnQOFuYNTNtfuA73uvhvTsuzVpmkcO3aMmzp3YfasWWTvzyYnJ4f//f57nnv2WdKfSosKBSqKwuSJE7n7zl78+OOPBINBHrj3Ph7u04elS/7N9zt3smf3HjZ+sZHxY8fRpmUr1q1d+7sVnZCQwIRJE2VQZs/uPQxLG2qPJyKkWLlKZTnH73fu5MiRI1GJEikD53PTV1+ddoGhoijk5+XxzLPPculll0kuMuCRR6V1c3uoVKmS9ONDoRDffvutPYfjxucy6Y1fbHQ7Kb25hsIivtTUVAYMGmQzXydrlHssl2eHP0ObVq1o2/oarmvfgZkz/gXYjNkdjPv56X/+Q9eOnbiufQdbiVphGNE1rR6vl5ycHO7vfS+fbNggc9engpwjR6hWvTrPPjcSnBKjuXPmsHDBgqj2Gl5xBQAej4e8vDymT50K2OYukthous7KFSvYnpV12rlqRVEIh8MEAn4mTJ5ky0rT2LVrF8OGptv9Owupbt26JCQk2DteCF6f8ncA6S244/N6vfz666+8/+67MhhzSubaHYTNPgfSuUsXefbqHl2W8Bw5fDiKsFhOLfbzL73Iv2bPskN7QH5+vh3S1DTJYBv87W+0vuYakpKSpB8N8MTjgwkGg1FkqTTQned73X03rdu0kQw37ckh/PTTT/j9fizLonmLFlSuXFl6DpMnTuLdWbPRIkqE3WjT4EGPYTnE83ShaRpHjhyhZs2apKUPRbgL8cMP+WjhQjweDwUFBSSXLUvbdu1QVRWvz8fGL74gPS3Nln3E+A788gv33dObvLy8Ui3Ck2YBxk0Yz8OP9AWBdDUi2XE4HMYyTcokJfH6P/7B7d260aRpU9asz+ThRx6xO3EyVh6Ph7enTWXO/Hm89c7brN2wnmbNm2EYBj6fj18PHmT+3HnA73+X6uVxY0lMTJQZpP6PPAoUhjMfGzxYVpUAjBg+nJu6dGXMc6N4+cUXuadXL+7s3oPc3Fw7qnWGcr/uQry/Tx+aNm8mF+JTTzzJzz//jN/vB2DgY4NsF7SgAF3XmfPBh7Ru0YKn09MZ+/IrDOzXn3bXtGFbVhaI0smpWCW7ShRC8NjgwSxZvpQePXtSvUYNoDCzdFm9egwa/Dhr12fSrkN7TMOQE7ju+usk6VJVlcefeIJWrVtLfzQhIYEJkycTCAQIBoMIYH1mJnByYqNEhPlUJ/AQDodJTk7mlXHjUFUVv9/PtqwsXnrhBWmBbrrlZnr2ulOm/zweO8o1fdo0/vnmW3yy4RPbBfT7qd+gvuQIxzNcRVGcvlXUIkhS1HWHqLoYO348/oBfLsSB/fpLmdZISWHi5MlRG2P/vv188N77vPnGG/x78WIZg7jiqivRNDvpo5awGEvcye6ONQ2T2nXqMHL0KObOn09iYiKqqtK4aRMWfPwRfR99lISEBBmadHfJ1i1boxZLy1atZLuuP5qcnEzDKxralSFCyKRCcWbIVX4wGLSFq6rkORUo7tnVtn07evbqJUuH3/nn2yz6+GO7btwwGDFyJEPSnsLv9xMOhwvf23JIkWtxGjdpIl28fKfG3O3fMAwUh78Ula92K1JN0yQUCsnroVCI8uXL8/LYsfbCEYKsrVsZPmyYVGzHzp2YOn26rI518wEIYVsWRWFIWhp9H32kkGkXkzOHUpb/aLomHXLTMuUucuOzwWAQr9d7QmgyEBeQSgXIy8sFChm4i6NHj0ni4PV6pDCLcg1c5fd56EE6deqEqqkkJCTKftzrw4Y/TYdrO8hYemKZMvY9Dpu+v08fbrz5ZpYtXcrmr7/h8JHDxMcn0KBBA7rc2JVy5cpxwQUX0Lx5C1RNJT4hIar/Ro0a8860afJl+4qVKkVdb9qsGW871xVFoUKFCs787CDT9TfcwAdz55Cbm4emqZimJf1j0zRp3rIFq9auYfmy5Xz22Wf8kp2NpmvUrl2bGzp2ok7dOvz222/8c+pUdI8eNYYT5FZSKWckwk5ZaSgUElc1vELUqXmheOiBPvKaaZryXrdEdltWlqiVWlPUvaiWqF3zQjHg0X4ntPvZp59GleQ+PTQ9qo2i4Ja9nur1yO9PVsYbLqGM9vf2fyr3lNS/ECcffyRKWchnSMb778WLycvNxRKCXbt2sXXLFurVry/v05yUlxCCSy69lLoXX8y3O3ag6zpLFi/G7/fz4MMPEYiL49P//IdRz46MWn0dO3c66XgikxtFJUtc8xtZJnP8z1C5WSghhJ3gt8+LqNRdcX247Ue+1FdU/8Vdd+85PmQaeY8rb7fMyZ2H+6zrAZXUh+xLiJIZjpshWbliJSOfeYbs7GwZTXKF2KhxY14a+wrVqlWTinY/16xezYP3PxCVZHddAvffgUCAUChE62ta8+bbb8dekznDKNW7UO+/+x7Dhw2T8ddQKGQzR11DVWxy4fP7WfDRwiLfhXp9yhQmjBuPJYp/F+rCiy5izvx5xMfHx5R8hvG732pMSEggN9cmUm7us0ZKDZatWFHkW42LPv6Y50eP4b8HD0b1Y1kWt91+O8+Oes7+3ZHYW41nHCdV8gP33iffTw6Hw3S49loGD3mScmXLsmPHDp4ems7u3bvl+8nPjBzBnXfdFaWsyLcN1q/LtN9PDgapUrVK7P3ks4AilRxZIdK2VWsKnGK3qxs1Yvb770Xd+0t2Nu3btqMgPx8FaNSkCTPfnX2Cwkoq73ET+2f7zYLzBSX+MMxPe/bI8JqiKPS4syeADDIEg0Eq/c//0KFDB9s0C8FPe/bId50i149bEeLGr92Au0vCYgr+41CiC3U8xY8LxAEUhtIcchQXHyfvMSIKCY6H65rEcHZR4g/DVKpUSe5QgIzly+V1NzoDsD5zvSRaFStWxOfzFRuxiuHso0glu8GMGikpXHLppViOwz13zhymvTNVZnHy8/MZ2K8/+/butV/qUhSat7BLW05WQRjD2cNp/bZmVlYWR3NyZIbH5/OxOnNd7Lc1zzGUHAxxGHLakKdYMHcuQlFO/JVcv59gQRBFVRg/aSKdOneO/UruOYYSt5q7E198+SXu7t0byyk/ATvca7/LFMIfF5AKNgwjpuBzDLFfrj8PEPs/KM4DlErJLmL/m8xfE6ek5EjE/OC/Dn739osp+K+DmI09DxBT8nmAmJLPA8SUfB4gpuTzADElnweIKfk8wP8BihwjO+GgWkIAAAAASUVORK5CYII=;" vertex="1" parent="I79zV8GsZZfp62jos5SP-64">
          <mxGeometry x="42.544217687074834" y="8.4" width="47.498042571867465" height="28.263550581522935" as="geometry" />
        </mxCell>
        <mxCell id="I79zV8GsZZfp62jos5SP-52" value="" style="group" vertex="1" connectable="0" parent="I79zV8GsZZfp62jos5SP-64">
          <mxGeometry x="19.289999999999992" y="144" width="130" height="84" as="geometry" />
        </mxCell>
        <mxCell id="I79zV8GsZZfp62jos5SP-27" value="Consumer" style="strokeWidth=2;html=1;shape=mxgraph.flowchart.terminator;whiteSpace=wrap;fontStyle=1;fontFamily=Tahoma;" vertex="1" parent="I79zV8GsZZfp62jos5SP-52">
          <mxGeometry width="130" height="84" as="geometry" />
        </mxCell>
        <mxCell id="I79zV8GsZZfp62jos5SP-28" value="" style="shape=image;verticalLabelPosition=bottom;labelBackgroundColor=default;verticalAlign=top;aspect=fixed;imageAspect=0;image=data:image/png,iVBORw0KGgoAAAANSUhEUgAAAHkAAABICAYAAADS3FpBAAAXtElEQVR4nO2dd3wU1drHv1O2pZCAlJeaoBQLyMVCL9IsNDsComJBRWmKYggiImAFaXL16lXKBWxUBS4QesBrQVEggOKrgAIRrgKBlN2dmfP+MTMnu5CEIIj4sr/PJ5/lszNzyvOc85zfU2ZRhBCCGP5fQ/2zBxDDH4+Yks8DxJR8HiCm5PMAMSWfB4gp+TzA71ZyzPP660A/lZtN0wRAURRUVcU0TYQQqKqKqsaMwrkKpTTBECEElmmi6cWvCdMw0XTtjA4uhjODkypZCIGiKABkbd3Khx98yNYtW8jPz6NcuQto2qwp3Xv2pFy5chiGgV7CQojhz0GJSo5U8JhRo5n2zjsoiiLPYwXbdHv9fl58+SU6de4cU/Q5iBK1YVkWmqaR9uQQ5s+bh6pp6JpGKBRCASwh8Pt8FOTl89iAgViWRZeuXWOm+xxDsTvZNAw0XWfxokU8PmAQmm4rV1VVUlJSqFylCtu2bSPnyBE0TSMcDuP1elmzPpOKFStiWVaMjJ0jKFYLqmbvxH+8/gaWsDBNE0VRGDZ8OBmrVzFj1kwyP9nADR07Ypomfr8f0zCYMW06YFuBGM4NFKlky7JQFIU9u3ezY/t2VE1DCMFtt9/OPff2xrJspQcCASa+NpkqVasSDAaxhGDD+vUAaFrMXJ8rKFLJrgXPzs62/WCHfLXv0EFed000QIuWLSQhO3DgAMFgMIqgxfDnokTidTxLzsvPA+ygiKqq0iTn5eYVPqNpxZ7FQggZUAGbmbuBlRj+OBQpXddtql6jBn6/H8MwEEIwe+YsALxeL4qi4PP5yN6/n4yMDLnjq9eogcfjkWe4C9MwUBQFXdfln+YsCLf9GP4YFLmT3ZBlhQoVaNykCevWrsXj8fDlxo08+nBfBj/5BGXLlmPHju0MTx9GQX4+Pp+PcCjM9R1vOKE904mWhUIhMteuY9u2bQQLCqhavRrNmjUnJTWl8L7YWX7GUbwL5Qg8a+tWburSFSGE3KGWZREfH09enm2mfT4foVCIlJQUlq7IQHOImqIo0pX6+KOPePH5Fzh44EBUP5ZlccuttzJy9CgCgUBM0X8ASox4uUGND957n6fT0xFC4PV6CYVCkny5u94fCDB/4QIuqlVLKsr9nDL5NSZNmIBlWXi9XpnY0HUdwzAASK1Zk7kL5pOQkBDzsc8wSpSkptuK6tb9Dt546y2qVKlCOByWCrYsC8MwaNS4MUuWLbUVbBi2gp3P1atWMXH8eARIRm4YBqqqEg6HMU0Tr9fLrh9/5LEBA8/StM8ziFLACIeFEEJYliUWzJsnLq1TV9RKrSmua99BbNm8ucj7LMsSQgjR+fobRK3UmuLiWrVFrdSa4snHB4vvd+4U+/btE3M+/FA0uKyevF675oXikw0b7LYMo8QxmaYpDMMQRtg46b1/JCzLssdhGMIIh+W85ffhsJTLn4VS2UTNMauKotCxc2fi4uNRFYXU1FTq1a+PYRh2nNtxudxgyrasLHbs2CFNd8dOnXh53FguqlWLypUrc+ttt/HGW29G9bVk8eLSLExUVUXTNDRd+9POcNeD0DTNGYsueYj8XtdLTNGeDZxy7zk5OViWhQAZDCmOLH3//ffSFxZC0Pu+e8F5zjX3TZo25fIGDdj8zTf2Mzt3AkS5X5EQDqHblpXFDz/8gKZqJCUn0ax581OdymnBnXMoFGLJosVs2bKZ3bt20+ehB2ncpAn79u3jqy+/RNd1VFWlZatWBAKBqMze2UKplGwapgyMKIqCcIIghmmTJp/P59xnRK3a/Lx8oDCCFhcXDyArSdxgSmJiAgoggFAoLPspciymPZbpU6excMEChBCkpKSwfNXKsyZAV8E//PADvXvdxS/Z2VhCoGs6bdu3o3GTJnz+6WekDRlibwghWJ25jmrVqv0pSi7RXAshbJKla+z87juGpw/jlhtv4ujRo1iWxeeffsaNnbvw+pQpHD16FE3XMQ1DRrXq1a8nJ6UoCpnr1sl2w+Ewuq5z+PBhNn21CYGt2MqVKwNERcYi4QooLj4eyzQxTZPExMQzJY9SwWX+g/oP4JfsbHSPx56TEaZsclkA6UVomobP5/tTvYVie45Uzvhx4+h43fW8/9577P35Z/tBhx1vy8piwrhXuaZlK1ZmrEDTdbxeLwDLli6zS4csC8uyeHXsWNasXo2u63g8Ho4dO8ag/v3Jd4IpCtCiZUug+J3swjJNcMZnFpHxcpm/aZqSMxQ1R9M0MQ3T+TSke3d8G+6ic8/hrVu2sH3bNjRdJxwOc+ttt7Hx6020bnONLR9NtcfmPCuO81Rl3xF/RY4von/3z52LEOKE8RWFk5rrxwcOYvGiRUBhZsk9ixVFweOs4pwjR+j70EOMefEFqlevztAhT7F3714pLI/HQzgUps9993N5gwaUK1eOLzdu5NixY+i6TjAYpELFitx86y22kE5j5bs76Pg2Ik2lGwMojrS5FS6RbUQ+n5OTIxeYZVkMGZpGcnJyqcKzbjslEUZ3DsWRNvd6aapwirzDbWDShAksXrRIDsYIGyiqgtfrJT4hgUO//SbjzqrjG6c/lSbbURSFQCBA+QoV2Pvzz2i6hqIobP7mG8lC/X4/wWAQgLGvjsPn8/3uEiJFUSQvOHjwIFu+2UwgLkBubi4VK1bi8gaXy12g6RqHfjvEkiWL2fTVVxz67RBx8XE0bNiQm265hXLlyvHdt9+yd+9eNE0jISGBK668koL8fLZv384Xn39uH2dOyHbtmjWUL1+ei2rVomrVqjbBKALCslB1HdM0WZ+ZiabpmKYdN2jRsqUzB3sBWpbF8qXL+GTDBvbv34+madSqXZsuXbtS9+K6/Pe//2XL5s14PB4QcFWjq/H7/Sec+ydI0i35+fHHH5k0YaJ9s6OQ+IR4hgxNo127dsTFx3PwwAFmzZzJjGnTMZ0Ah+veuMx55OhRVK1alX59+7Jm9ZrCyToJjXAoTJkyZZgweRLNmjfHPI0aMTdGfvToUW676Wb2798v5zR34QLZr6ZpTJ86jbGvvEKwoEB+D7Ds30sZ+/IrzJg1kxUZGUx7ZyrCsqhavTqr1q7ht0OH6HbrbfIosywL0zAYMvgJNE1j9PNjuP2OOzCtaPMphe58Duzfn4xly215qyrpw4fTslUrwuEwHo+Hzz79lKFPpfHzTz9FjW/VypX84/XXGTosnQsvuoi+fR6Ux9XKNaupkZJyciW7jc2cMQNVVdGdMychIYH5H39EamqqvDcxMZHhI0Zw8SWXyB3sKrr/wIEMGFQYwXrz7bdZvWoVC+bNZ+fO7wiHwlSoWJFWrVvRs1cvypQpcwI7P1W4MfM7u/dg/779KKo90QUff0S9+vUJhUJ4vV7GPDeKGdOnY5qmjLu7QnFJ4b339KZOnToyPhAfHy+vK4qCQjRnKFS6iJLj8XLVNI2RI0aQsXQZXp+PYDBI+vDh3N37Hjm+ZUuX0r/vIwhsAhcMBguPDaedF8Y8z1VXXyV5yfFHSyROkKhrmjPXZUp2rSgKQ4elk5qaSkFBgUw1uoTq9m7dWL1yFSsyMuSiCDkmOBQKyXO7Tdu2tGnbNkpYLk5HwZGk6oF773OqWeyY+tQZM6hXvz75+fkEAgEWzJvPjOnTpZ8eDoW5vEEDGjdpjK57yNq6lbVr1lCQn8/mr79G03Wb5DnCTUpKYtyE8Xz5xUZmz5ollfv4k0+QlJTElVddactRjT5vDYfHvD5lCrP/NROP10soGOTR/v2iFLxn92769X1E5gnC4TDVqlWjTbt2lC2bzO7du1mxPIO8vDw2fr4RFIeglVBuFSVVNzFw8OBB9u/fL1d1XHw87ZyqEJ/PJ5UTSRy63nQjK5y8MsCmTZvsDpwokKIo9q6AqMiQezyczg52xzN0yFOsX7dOJj4mvfYaLVq2IBQKEQgEMAyDV8eOjVoUo18YQ7fu3aPa++rLL3nwgT4cPnRIKtc1s3FxcXS98UbKly/Pu7Nn25dUlR49epCUnFw4JjViAZsmFStVYsmixYwf96pDQkP0vKsXAx97LCqYNH7cqzJXHwqFuKNHd0aNGRM1vl9//ZWH+zzI15s2yQRRSShyfxfk50sTpigKyUlJJ/VFK1SoIN0lIQQF+fmObCLOBifEF2kh3EVwOoiLi+O1SZOZN2cOOIvpudGjuaFTRwwnUQKQuW4d2dnZeL1ehBAMGDSIbt27SzfLMAzC4TBXXHklk6e8JucfCXcR5+TkRH1/6PBhwLZckbAsi8TERBbOX8CAfv2k29O5a1dGjBxZSAQ1mwiuWmkHdULBII0aN5YKdl2lcDjMBRdcwLR/zaBs2bJYpnVS+RWpZH8gIAUhhODQ4cMcPXq0xIYOHDggS3kURcEfCEQJBWyT7FaIuKHO060KUVWVzd98w4RXX0VgCzUtfSjde/aQ0TFpXb6yrUs4HCYuLo67e98DEFWx4vF4MAyDps2acdXVV52wS1yBHk8OdWchHS9wTdPIzc3lmaeflt9de/11jJsw/oS57Nixnby8PLttReGhvg8Dhe6cpml4PB5CoRDx8fHceVcvFFVB1TRKUnOUkt2Du0KFClSpUsV+O8LrJVhQwMqMFQB2VaazWyMd848WLIyaZMOGDeUA3R0eGax3jwZ3J5tOXvlUoaqqdMHchdO6TZuoe9wxHfjlF8BeeLVq1yYpKanE3HX9+peX2sqUtFBdGbhcpnnzFgCyjt3FQWejmKaJx+OhTp06co6RcC1T/fqX2307uYTicMLs3JXbslVLWaUphOCFMWPYtWsXfr9f7lZ3ZX34wQesyMiQEwLwOvFsd2KqqrJq5SoG9OvHDddeR4e2benRrRtv/P3v5OTkyJDoqcIwDC697DL+1rChzP489MAD8qw/HSsRcshSUShtu6Zpkly2LO07dJBBpKfT09mxY4cd+jSME859+58nHhURnQOFuYNTNtfuA73uvhvTsuzVpmkcO3aMmzp3YfasWWTvzyYnJ4f//f57nnv2WdKfSosKBSqKwuSJE7n7zl78+OOPBINBHrj3Ph7u04elS/7N9zt3smf3HjZ+sZHxY8fRpmUr1q1d+7sVnZCQwIRJE2VQZs/uPQxLG2qPJyKkWLlKZTnH73fu5MiRI1GJEikD53PTV1+ddoGhoijk5+XxzLPPculll0kuMuCRR6V1c3uoVKmS9ONDoRDffvutPYfjxucy6Y1fbHQ7Kb25hsIivtTUVAYMGmQzXydrlHssl2eHP0ObVq1o2/oarmvfgZkz/gXYjNkdjPv56X/+Q9eOnbiufQdbiVphGNE1rR6vl5ycHO7vfS+fbNggc9engpwjR6hWvTrPPjcSnBKjuXPmsHDBgqj2Gl5xBQAej4e8vDymT50K2OYukthous7KFSvYnpV12rlqRVEIh8MEAn4mTJ5ky0rT2LVrF8OGptv9Owupbt26JCQk2DteCF6f8ncA6S244/N6vfz666+8/+67MhhzSubaHYTNPgfSuUsXefbqHl2W8Bw5fDiKsFhOLfbzL73Iv2bPskN7QH5+vh3S1DTJYBv87W+0vuYakpKSpB8N8MTjgwkGg1FkqTTQned73X03rdu0kQw37ckh/PTTT/j9fizLonmLFlSuXFl6DpMnTuLdWbPRIkqE3WjT4EGPYTnE83ShaRpHjhyhZs2apKUPRbgL8cMP+WjhQjweDwUFBSSXLUvbdu1QVRWvz8fGL74gPS3Nln3E+A788gv33dObvLy8Ui3Ck2YBxk0Yz8OP9AWBdDUi2XE4HMYyTcokJfH6P/7B7d260aRpU9asz+ThRx6xO3EyVh6Ph7enTWXO/Hm89c7brN2wnmbNm2EYBj6fj18PHmT+3HnA73+X6uVxY0lMTJQZpP6PPAoUhjMfGzxYVpUAjBg+nJu6dGXMc6N4+cUXuadXL+7s3oPc3Fw7qnWGcr/uQry/Tx+aNm8mF+JTTzzJzz//jN/vB2DgY4NsF7SgAF3XmfPBh7Ru0YKn09MZ+/IrDOzXn3bXtGFbVhaI0smpWCW7ShRC8NjgwSxZvpQePXtSvUYNoDCzdFm9egwa/Dhr12fSrkN7TMOQE7ju+usk6VJVlcefeIJWrVtLfzQhIYEJkycTCAQIBoMIYH1mJnByYqNEhPlUJ/AQDodJTk7mlXHjUFUVv9/PtqwsXnrhBWmBbrrlZnr2ulOm/zweO8o1fdo0/vnmW3yy4RPbBfT7qd+gvuQIxzNcRVGcvlXUIkhS1HWHqLoYO348/oBfLsSB/fpLmdZISWHi5MlRG2P/vv188N77vPnGG/x78WIZg7jiqivRNDvpo5awGEvcye6ONQ2T2nXqMHL0KObOn09iYiKqqtK4aRMWfPwRfR99lISEBBmadHfJ1i1boxZLy1atZLuuP5qcnEzDKxralSFCyKRCcWbIVX4wGLSFq6rkORUo7tnVtn07evbqJUuH3/nn2yz6+GO7btwwGDFyJEPSnsLv9xMOhwvf23JIkWtxGjdpIl28fKfG3O3fMAwUh78Ula92K1JN0yQUCsnroVCI8uXL8/LYsfbCEYKsrVsZPmyYVGzHzp2YOn26rI518wEIYVsWRWFIWhp9H32kkGkXkzOHUpb/aLomHXLTMuUucuOzwWAQr9d7QmgyEBeQSgXIy8sFChm4i6NHj0ni4PV6pDCLcg1c5fd56EE6deqEqqkkJCTKftzrw4Y/TYdrO8hYemKZMvY9Dpu+v08fbrz5ZpYtXcrmr7/h8JHDxMcn0KBBA7rc2JVy5cpxwQUX0Lx5C1RNJT4hIar/Ro0a8860afJl+4qVKkVdb9qsGW871xVFoUKFCs787CDT9TfcwAdz55Cbm4emqZimJf1j0zRp3rIFq9auYfmy5Xz22Wf8kp2NpmvUrl2bGzp2ok7dOvz222/8c+pUdI8eNYYT5FZSKWckwk5ZaSgUElc1vELUqXmheOiBPvKaaZryXrdEdltWlqiVWlPUvaiWqF3zQjHg0X4ntPvZp59GleQ+PTQ9qo2i4Ja9nur1yO9PVsYbLqGM9vf2fyr3lNS/ECcffyRKWchnSMb778WLycvNxRKCXbt2sXXLFurVry/v05yUlxCCSy69lLoXX8y3O3ag6zpLFi/G7/fz4MMPEYiL49P//IdRz46MWn0dO3c66XgikxtFJUtc8xtZJnP8z1C5WSghhJ3gt8+LqNRdcX247Ue+1FdU/8Vdd+85PmQaeY8rb7fMyZ2H+6zrAZXUh+xLiJIZjpshWbliJSOfeYbs7GwZTXKF2KhxY14a+wrVqlWTinY/16xezYP3PxCVZHddAvffgUCAUChE62ta8+bbb8dekznDKNW7UO+/+x7Dhw2T8ddQKGQzR11DVWxy4fP7WfDRwiLfhXp9yhQmjBuPJYp/F+rCiy5izvx5xMfHx5R8hvG732pMSEggN9cmUm7us0ZKDZatWFHkW42LPv6Y50eP4b8HD0b1Y1kWt91+O8+Oes7+3ZHYW41nHCdV8gP33iffTw6Hw3S49loGD3mScmXLsmPHDp4ems7u3bvl+8nPjBzBnXfdFaWsyLcN1q/LtN9PDgapUrVK7P3ks4AilRxZIdK2VWsKnGK3qxs1Yvb770Xd+0t2Nu3btqMgPx8FaNSkCTPfnX2Cwkoq73ET+2f7zYLzBSX+MMxPe/bI8JqiKPS4syeADDIEg0Eq/c//0KFDB9s0C8FPe/bId50i149bEeLGr92Au0vCYgr+41CiC3U8xY8LxAEUhtIcchQXHyfvMSIKCY6H65rEcHZR4g/DVKpUSe5QgIzly+V1NzoDsD5zvSRaFStWxOfzFRuxiuHso0glu8GMGikpXHLppViOwz13zhymvTNVZnHy8/MZ2K8/+/butV/qUhSat7BLW05WQRjD2cNp/bZmVlYWR3NyZIbH5/OxOnNd7Lc1zzGUHAxxGHLakKdYMHcuQlFO/JVcv59gQRBFVRg/aSKdOneO/UruOYYSt5q7E198+SXu7t0byyk/ATvca7/LFMIfF5AKNgwjpuBzDLFfrj8PEPs/KM4DlErJLmL/m8xfE6ek5EjE/OC/Dn739osp+K+DmI09DxBT8nmAmJLPA8SUfB4gpuTzADElnweIKfk8wP8BihwjO+GgWkIAAAAASUVORK5CYII=;" vertex="1" parent="I79zV8GsZZfp62jos5SP-52">
          <mxGeometry x="38.910000000000025" y="3.5999999999999996" width="45.38" height="27" as="geometry" />
        </mxCell>
        <mxCell id="I79zV8GsZZfp62jos5SP-77" style="edgeStyle=orthogonalEdgeStyle;rounded=0;orthogonalLoop=1;jettySize=auto;html=1;entryX=0.5;entryY=1;entryDx=0;entryDy=0;entryPerimeter=0;fontFamily=Tahoma;" edge="1" parent="I79zV8GsZZfp62jos5SP-64" source="I79zV8GsZZfp62jos5SP-22" target="I79zV8GsZZfp62jos5SP-27">
          <mxGeometry relative="1" as="geometry" />
        </mxCell>
        <mxCell id="I79zV8GsZZfp62jos5SP-35" style="edgeStyle=orthogonalEdgeStyle;rounded=0;orthogonalLoop=1;jettySize=auto;html=1;entryX=0;entryY=0.5;entryDx=0;entryDy=0;entryPerimeter=0;fontFamily=Tahoma;exitX=1;exitY=0.5;exitDx=0;exitDy=0;exitPerimeter=0;" edge="1" parent="I79zV8GsZZfp62jos5SP-64" source="I79zV8GsZZfp62jos5SP-22" target="I79zV8GsZZfp62jos5SP-31">
          <mxGeometry relative="1" as="geometry">
            <mxPoint x="50" y="216" as="sourcePoint" />
            <Array as="points">
              <mxPoint x="310" y="247" />
              <mxPoint x="310" y="204" />
            </Array>
          </mxGeometry>
        </mxCell>
        <mxCell id="I79zV8GsZZfp62jos5SP-50" value="" style="group" vertex="1" connectable="0" parent="I79zV8GsZZfp62jos5SP-64">
          <mxGeometry x="330" y="162" width="130" height="84" as="geometry" />
        </mxCell>
        <mxCell id="I79zV8GsZZfp62jos5SP-31" value="Consumer" style="strokeWidth=2;html=1;shape=mxgraph.flowchart.terminator;whiteSpace=wrap;fontStyle=1;fontFamily=Tahoma;" vertex="1" parent="I79zV8GsZZfp62jos5SP-50">
          <mxGeometry width="130" height="84" as="geometry" />
        </mxCell>
        <mxCell id="I79zV8GsZZfp62jos5SP-32" value="" style="shape=image;verticalLabelPosition=bottom;labelBackgroundColor=default;verticalAlign=top;aspect=fixed;imageAspect=0;image=data:image/png,iVBORw0KGgoAAAANSUhEUgAAAHkAAABICAYAAADS3FpBAAAXtElEQVR4nO2dd3wU1drHv1O2pZCAlJeaoBQLyMVCL9IsNDsComJBRWmKYggiImAFaXL16lXKBWxUBS4QesBrQVEggOKrgAIRrgKBlN2dmfP+MTMnu5CEIIj4sr/PJ5/lszNzyvOc85zfU2ZRhBCCGP5fQ/2zBxDDH4+Yks8DxJR8HiCm5PMAMSWfB4gp+TzA71ZyzPP660A/lZtN0wRAURRUVcU0TYQQqKqKqsaMwrkKpTTBECEElmmi6cWvCdMw0XTtjA4uhjODkypZCIGiKABkbd3Khx98yNYtW8jPz6NcuQto2qwp3Xv2pFy5chiGgV7CQojhz0GJSo5U8JhRo5n2zjsoiiLPYwXbdHv9fl58+SU6de4cU/Q5iBK1YVkWmqaR9uQQ5s+bh6pp6JpGKBRCASwh8Pt8FOTl89iAgViWRZeuXWOm+xxDsTvZNAw0XWfxokU8PmAQmm4rV1VVUlJSqFylCtu2bSPnyBE0TSMcDuP1elmzPpOKFStiWVaMjJ0jKFYLqmbvxH+8/gaWsDBNE0VRGDZ8OBmrVzFj1kwyP9nADR07Ypomfr8f0zCYMW06YFuBGM4NFKlky7JQFIU9u3ezY/t2VE1DCMFtt9/OPff2xrJspQcCASa+NpkqVasSDAaxhGDD+vUAaFrMXJ8rKFLJrgXPzs62/WCHfLXv0EFed000QIuWLSQhO3DgAMFgMIqgxfDnokTidTxLzsvPA+ygiKqq0iTn5eYVPqNpxZ7FQggZUAGbmbuBlRj+OBQpXddtql6jBn6/H8MwEEIwe+YsALxeL4qi4PP5yN6/n4yMDLnjq9eogcfjkWe4C9MwUBQFXdfln+YsCLf9GP4YFLmT3ZBlhQoVaNykCevWrsXj8fDlxo08+nBfBj/5BGXLlmPHju0MTx9GQX4+Pp+PcCjM9R1vOKE904mWhUIhMteuY9u2bQQLCqhavRrNmjUnJTWl8L7YWX7GUbwL5Qg8a+tWburSFSGE3KGWZREfH09enm2mfT4foVCIlJQUlq7IQHOImqIo0pX6+KOPePH5Fzh44EBUP5ZlccuttzJy9CgCgUBM0X8ASox4uUGND957n6fT0xFC4PV6CYVCkny5u94fCDB/4QIuqlVLKsr9nDL5NSZNmIBlWXi9XpnY0HUdwzAASK1Zk7kL5pOQkBDzsc8wSpSkptuK6tb9Dt546y2qVKlCOByWCrYsC8MwaNS4MUuWLbUVbBi2gp3P1atWMXH8eARIRm4YBqqqEg6HMU0Tr9fLrh9/5LEBA8/StM8ziFLACIeFEEJYliUWzJsnLq1TV9RKrSmua99BbNm8ucj7LMsSQgjR+fobRK3UmuLiWrVFrdSa4snHB4vvd+4U+/btE3M+/FA0uKyevF675oXikw0b7LYMo8QxmaYpDMMQRtg46b1/JCzLssdhGMIIh+W85ffhsJTLn4VS2UTNMauKotCxc2fi4uNRFYXU1FTq1a+PYRh2nNtxudxgyrasLHbs2CFNd8dOnXh53FguqlWLypUrc+ttt/HGW29G9bVk8eLSLExUVUXTNDRd+9POcNeD0DTNGYsueYj8XtdLTNGeDZxy7zk5OViWhQAZDCmOLH3//ffSFxZC0Pu+e8F5zjX3TZo25fIGDdj8zTf2Mzt3AkS5X5EQDqHblpXFDz/8gKZqJCUn0ax581OdymnBnXMoFGLJosVs2bKZ3bt20+ehB2ncpAn79u3jqy+/RNd1VFWlZatWBAKBqMze2UKplGwapgyMKIqCcIIghmmTJp/P59xnRK3a/Lx8oDCCFhcXDyArSdxgSmJiAgoggFAoLPspciymPZbpU6excMEChBCkpKSwfNXKsyZAV8E//PADvXvdxS/Z2VhCoGs6bdu3o3GTJnz+6WekDRlibwghWJ25jmrVqv0pSi7RXAshbJKla+z87juGpw/jlhtv4ujRo1iWxeeffsaNnbvw+pQpHD16FE3XMQ1DRrXq1a8nJ6UoCpnr1sl2w+Ewuq5z+PBhNn21CYGt2MqVKwNERcYi4QooLj4eyzQxTZPExMQzJY9SwWX+g/oP4JfsbHSPx56TEaZsclkA6UVomobP5/tTvYVie45Uzvhx4+h43fW8/9577P35Z/tBhx1vy8piwrhXuaZlK1ZmrEDTdbxeLwDLli6zS4csC8uyeHXsWNasXo2u63g8Ho4dO8ag/v3Jd4IpCtCiZUug+J3swjJNcMZnFpHxcpm/aZqSMxQ1R9M0MQ3T+TSke3d8G+6ic8/hrVu2sH3bNjRdJxwOc+ttt7Hx6020bnONLR9NtcfmPCuO81Rl3xF/RY4von/3z52LEOKE8RWFk5rrxwcOYvGiRUBhZsk9ixVFweOs4pwjR+j70EOMefEFqlevztAhT7F3714pLI/HQzgUps9993N5gwaUK1eOLzdu5NixY+i6TjAYpELFitx86y22kE5j5bs76Pg2Ik2lGwMojrS5FS6RbUQ+n5OTIxeYZVkMGZpGcnJyqcKzbjslEUZ3DsWRNvd6aapwirzDbWDShAksXrRIDsYIGyiqgtfrJT4hgUO//SbjzqrjG6c/lSbbURSFQCBA+QoV2Pvzz2i6hqIobP7mG8lC/X4/wWAQgLGvjsPn8/3uEiJFUSQvOHjwIFu+2UwgLkBubi4VK1bi8gaXy12g6RqHfjvEkiWL2fTVVxz67RBx8XE0bNiQm265hXLlyvHdt9+yd+9eNE0jISGBK668koL8fLZv384Xn39uH2dOyHbtmjWUL1+ei2rVomrVqjbBKALCslB1HdM0WZ+ZiabpmKYdN2jRsqUzB3sBWpbF8qXL+GTDBvbv34+madSqXZsuXbtS9+K6/Pe//2XL5s14PB4QcFWjq/H7/Sec+ydI0i35+fHHH5k0YaJ9s6OQ+IR4hgxNo127dsTFx3PwwAFmzZzJjGnTMZ0Ah+veuMx55OhRVK1alX59+7Jm9ZrCyToJjXAoTJkyZZgweRLNmjfHPI0aMTdGfvToUW676Wb2798v5zR34QLZr6ZpTJ86jbGvvEKwoEB+D7Ds30sZ+/IrzJg1kxUZGUx7ZyrCsqhavTqr1q7ht0OH6HbrbfIosywL0zAYMvgJNE1j9PNjuP2OOzCtaPMphe58Duzfn4xly215qyrpw4fTslUrwuEwHo+Hzz79lKFPpfHzTz9FjW/VypX84/XXGTosnQsvuoi+fR6Ux9XKNaupkZJyciW7jc2cMQNVVdGdMychIYH5H39EamqqvDcxMZHhI0Zw8SWXyB3sKrr/wIEMGFQYwXrz7bdZvWoVC+bNZ+fO7wiHwlSoWJFWrVvRs1cvypQpcwI7P1W4MfM7u/dg/779KKo90QUff0S9+vUJhUJ4vV7GPDeKGdOnY5qmjLu7QnFJ4b339KZOnToyPhAfHy+vK4qCQjRnKFS6iJLj8XLVNI2RI0aQsXQZXp+PYDBI+vDh3N37Hjm+ZUuX0r/vIwhsAhcMBguPDaedF8Y8z1VXXyV5yfFHSyROkKhrmjPXZUp2rSgKQ4elk5qaSkFBgUw1uoTq9m7dWL1yFSsyMuSiCDkmOBQKyXO7Tdu2tGnbNkpYLk5HwZGk6oF773OqWeyY+tQZM6hXvz75+fkEAgEWzJvPjOnTpZ8eDoW5vEEDGjdpjK57yNq6lbVr1lCQn8/mr79G03Wb5DnCTUpKYtyE8Xz5xUZmz5ollfv4k0+QlJTElVddactRjT5vDYfHvD5lCrP/NROP10soGOTR/v2iFLxn92769X1E5gnC4TDVqlWjTbt2lC2bzO7du1mxPIO8vDw2fr4RFIeglVBuFSVVNzFw8OBB9u/fL1d1XHw87ZyqEJ/PJ5UTSRy63nQjK5y8MsCmTZvsDpwokKIo9q6AqMiQezyczg52xzN0yFOsX7dOJj4mvfYaLVq2IBQKEQgEMAyDV8eOjVoUo18YQ7fu3aPa++rLL3nwgT4cPnRIKtc1s3FxcXS98UbKly/Pu7Nn25dUlR49epCUnFw4JjViAZsmFStVYsmixYwf96pDQkP0vKsXAx97LCqYNH7cqzJXHwqFuKNHd0aNGRM1vl9//ZWH+zzI15s2yQRRSShyfxfk50sTpigKyUlJJ/VFK1SoIN0lIQQF+fmObCLOBifEF2kh3EVwOoiLi+O1SZOZN2cOOIvpudGjuaFTRwwnUQKQuW4d2dnZeL1ehBAMGDSIbt27SzfLMAzC4TBXXHklk6e8JucfCXcR5+TkRH1/6PBhwLZckbAsi8TERBbOX8CAfv2k29O5a1dGjBxZSAQ1mwiuWmkHdULBII0aN5YKdl2lcDjMBRdcwLR/zaBs2bJYpnVS+RWpZH8gIAUhhODQ4cMcPXq0xIYOHDggS3kURcEfCEQJBWyT7FaIuKHO060KUVWVzd98w4RXX0VgCzUtfSjde/aQ0TFpXb6yrUs4HCYuLo67e98DEFWx4vF4MAyDps2acdXVV52wS1yBHk8OdWchHS9wTdPIzc3lmaeflt9de/11jJsw/oS57Nixnby8PLttReGhvg8Dhe6cpml4PB5CoRDx8fHceVcvFFVB1TRKUnOUkt2Du0KFClSpUsV+O8LrJVhQwMqMFQB2VaazWyMd848WLIyaZMOGDeUA3R0eGax3jwZ3J5tOXvlUoaqqdMHchdO6TZuoe9wxHfjlF8BeeLVq1yYpKanE3HX9+peX2sqUtFBdGbhcpnnzFgCyjt3FQWejmKaJx+OhTp06co6RcC1T/fqX2307uYTicMLs3JXbslVLWaUphOCFMWPYtWsXfr9f7lZ3ZX34wQesyMiQEwLwOvFsd2KqqrJq5SoG9OvHDddeR4e2benRrRtv/P3v5OTkyJDoqcIwDC697DL+1rChzP489MAD8qw/HSsRcshSUShtu6Zpkly2LO07dJBBpKfT09mxY4cd+jSME859+58nHhURnQOFuYNTNtfuA73uvhvTsuzVpmkcO3aMmzp3YfasWWTvzyYnJ4f//f57nnv2WdKfSosKBSqKwuSJE7n7zl78+OOPBINBHrj3Ph7u04elS/7N9zt3smf3HjZ+sZHxY8fRpmUr1q1d+7sVnZCQwIRJE2VQZs/uPQxLG2qPJyKkWLlKZTnH73fu5MiRI1GJEikD53PTV1+ddoGhoijk5+XxzLPPculll0kuMuCRR6V1c3uoVKmS9ONDoRDffvutPYfjxucy6Y1fbHQ7Kb25hsIivtTUVAYMGmQzXydrlHssl2eHP0ObVq1o2/oarmvfgZkz/gXYjNkdjPv56X/+Q9eOnbiufQdbiVphGNE1rR6vl5ycHO7vfS+fbNggc9engpwjR6hWvTrPPjcSnBKjuXPmsHDBgqj2Gl5xBQAej4e8vDymT50K2OYukthous7KFSvYnpV12rlqRVEIh8MEAn4mTJ5ky0rT2LVrF8OGptv9Owupbt26JCQk2DteCF6f8ncA6S244/N6vfz666+8/+67MhhzSubaHYTNPgfSuUsXefbqHl2W8Bw5fDiKsFhOLfbzL73Iv2bPskN7QH5+vh3S1DTJYBv87W+0vuYakpKSpB8N8MTjgwkGg1FkqTTQned73X03rdu0kQw37ckh/PTTT/j9fizLonmLFlSuXFl6DpMnTuLdWbPRIkqE3WjT4EGPYTnE83ShaRpHjhyhZs2apKUPRbgL8cMP+WjhQjweDwUFBSSXLUvbdu1QVRWvz8fGL74gPS3Nln3E+A788gv33dObvLy8Ui3Ck2YBxk0Yz8OP9AWBdDUi2XE4HMYyTcokJfH6P/7B7d260aRpU9asz+ThRx6xO3EyVh6Ph7enTWXO/Hm89c7brN2wnmbNm2EYBj6fj18PHmT+3HnA73+X6uVxY0lMTJQZpP6PPAoUhjMfGzxYVpUAjBg+nJu6dGXMc6N4+cUXuadXL+7s3oPc3Fw7qnWGcr/uQry/Tx+aNm8mF+JTTzzJzz//jN/vB2DgY4NsF7SgAF3XmfPBh7Ru0YKn09MZ+/IrDOzXn3bXtGFbVhaI0smpWCW7ShRC8NjgwSxZvpQePXtSvUYNoDCzdFm9egwa/Dhr12fSrkN7TMOQE7ju+usk6VJVlcefeIJWrVtLfzQhIYEJkycTCAQIBoMIYH1mJnByYqNEhPlUJ/AQDodJTk7mlXHjUFUVv9/PtqwsXnrhBWmBbrrlZnr2ulOm/zweO8o1fdo0/vnmW3yy4RPbBfT7qd+gvuQIxzNcRVGcvlXUIkhS1HWHqLoYO348/oBfLsSB/fpLmdZISWHi5MlRG2P/vv188N77vPnGG/x78WIZg7jiqivRNDvpo5awGEvcye6ONQ2T2nXqMHL0KObOn09iYiKqqtK4aRMWfPwRfR99lISEBBmadHfJ1i1boxZLy1atZLuuP5qcnEzDKxralSFCyKRCcWbIVX4wGLSFq6rkORUo7tnVtn07evbqJUuH3/nn2yz6+GO7btwwGDFyJEPSnsLv9xMOhwvf23JIkWtxGjdpIl28fKfG3O3fMAwUh78Ula92K1JN0yQUCsnroVCI8uXL8/LYsfbCEYKsrVsZPmyYVGzHzp2YOn26rI518wEIYVsWRWFIWhp9H32kkGkXkzOHUpb/aLomHXLTMuUucuOzwWAQr9d7QmgyEBeQSgXIy8sFChm4i6NHj0ni4PV6pDCLcg1c5fd56EE6deqEqqkkJCTKftzrw4Y/TYdrO8hYemKZMvY9Dpu+v08fbrz5ZpYtXcrmr7/h8JHDxMcn0KBBA7rc2JVy5cpxwQUX0Lx5C1RNJT4hIar/Ro0a8860afJl+4qVKkVdb9qsGW871xVFoUKFCs787CDT9TfcwAdz55Cbm4emqZimJf1j0zRp3rIFq9auYfmy5Xz22Wf8kp2NpmvUrl2bGzp2ok7dOvz222/8c+pUdI8eNYYT5FZSKWckwk5ZaSgUElc1vELUqXmheOiBPvKaaZryXrdEdltWlqiVWlPUvaiWqF3zQjHg0X4ntPvZp59GleQ+PTQ9qo2i4Ja9nur1yO9PVsYbLqGM9vf2fyr3lNS/ECcffyRKWchnSMb778WLycvNxRKCXbt2sXXLFurVry/v05yUlxCCSy69lLoXX8y3O3ag6zpLFi/G7/fz4MMPEYiL49P//IdRz46MWn0dO3c66XgikxtFJUtc8xtZJnP8z1C5WSghhJ3gt8+LqNRdcX247Ue+1FdU/8Vdd+85PmQaeY8rb7fMyZ2H+6zrAZXUh+xLiJIZjpshWbliJSOfeYbs7GwZTXKF2KhxY14a+wrVqlWTinY/16xezYP3PxCVZHddAvffgUCAUChE62ta8+bbb8dekznDKNW7UO+/+x7Dhw2T8ddQKGQzR11DVWxy4fP7WfDRwiLfhXp9yhQmjBuPJYp/F+rCiy5izvx5xMfHx5R8hvG732pMSEggN9cmUm7us0ZKDZatWFHkW42LPv6Y50eP4b8HD0b1Y1kWt91+O8+Oes7+3ZHYW41nHCdV8gP33iffTw6Hw3S49loGD3mScmXLsmPHDp4ems7u3bvl+8nPjBzBnXfdFaWsyLcN1q/LtN9PDgapUrVK7P3ks4AilRxZIdK2VWsKnGK3qxs1Yvb770Xd+0t2Nu3btqMgPx8FaNSkCTPfnX2Cwkoq73ET+2f7zYLzBSX+MMxPe/bI8JqiKPS4syeADDIEg0Eq/c//0KFDB9s0C8FPe/bId50i149bEeLGr92Au0vCYgr+41CiC3U8xY8LxAEUhtIcchQXHyfvMSIKCY6H65rEcHZR4g/DVKpUSe5QgIzly+V1NzoDsD5zvSRaFStWxOfzFRuxiuHso0glu8GMGikpXHLppViOwz13zhymvTNVZnHy8/MZ2K8/+/butV/qUhSat7BLW05WQRjD2cNp/bZmVlYWR3NyZIbH5/OxOnNd7Lc1zzGUHAxxGHLakKdYMHcuQlFO/JVcv59gQRBFVRg/aSKdOneO/UruOYYSt5q7E198+SXu7t0byyk/ATvca7/LFMIfF5AKNgwjpuBzDLFfrj8PEPs/KM4DlErJLmL/m8xfE6ek5EjE/OC/Dn739osp+K+DmI09DxBT8nmAmJLPA8SUfB4gpuTzADElnweIKfk8wP8BihwjO+GgWkIAAAAASUVORK5CYII=;" vertex="1" parent="I79zV8GsZZfp62jos5SP-50">
          <mxGeometry x="38.910000000000025" y="3.5999999999999996" width="45.38" height="27" as="geometry" />
        </mxCell>
        <mxCell id="I79zV8GsZZfp62jos5SP-78" value="" style="group" vertex="1" connectable="0" parent="I79zV8GsZZfp62jos5SP-64">
          <mxGeometry x="180" y="36" width="130" height="84" as="geometry" />
        </mxCell>
        <mxCell id="I79zV8GsZZfp62jos5SP-29" value="Consumer" style="strokeWidth=2;html=1;shape=mxgraph.flowchart.terminator;whiteSpace=wrap;fontStyle=1;fontFamily=Tahoma;" vertex="1" parent="I79zV8GsZZfp62jos5SP-78">
          <mxGeometry width="130" height="84" as="geometry" />
        </mxCell>
        <mxCell id="I79zV8GsZZfp62jos5SP-30" value="" style="shape=image;verticalLabelPosition=bottom;labelBackgroundColor=default;verticalAlign=top;aspect=fixed;imageAspect=0;image=data:image/png,iVBORw0KGgoAAAANSUhEUgAAAHkAAABICAYAAADS3FpBAAAXtElEQVR4nO2dd3wU1drHv1O2pZCAlJeaoBQLyMVCL9IsNDsComJBRWmKYggiImAFaXL16lXKBWxUBS4QesBrQVEggOKrgAIRrgKBlN2dmfP+MTMnu5CEIIj4sr/PJ5/lszNzyvOc85zfU2ZRhBCCGP5fQ/2zBxDDH4+Yks8DxJR8HiCm5PMAMSWfB4gp+TzA71ZyzPP660A/lZtN0wRAURRUVcU0TYQQqKqKqsaMwrkKpTTBECEElmmi6cWvCdMw0XTtjA4uhjODkypZCIGiKABkbd3Khx98yNYtW8jPz6NcuQto2qwp3Xv2pFy5chiGgV7CQojhz0GJSo5U8JhRo5n2zjsoiiLPYwXbdHv9fl58+SU6de4cU/Q5iBK1YVkWmqaR9uQQ5s+bh6pp6JpGKBRCASwh8Pt8FOTl89iAgViWRZeuXWOm+xxDsTvZNAw0XWfxokU8PmAQmm4rV1VVUlJSqFylCtu2bSPnyBE0TSMcDuP1elmzPpOKFStiWVaMjJ0jKFYLqmbvxH+8/gaWsDBNE0VRGDZ8OBmrVzFj1kwyP9nADR07Ypomfr8f0zCYMW06YFuBGM4NFKlky7JQFIU9u3ezY/t2VE1DCMFtt9/OPff2xrJspQcCASa+NpkqVasSDAaxhGDD+vUAaFrMXJ8rKFLJrgXPzs62/WCHfLXv0EFed000QIuWLSQhO3DgAMFgMIqgxfDnokTidTxLzsvPA+ygiKqq0iTn5eYVPqNpxZ7FQggZUAGbmbuBlRj+OBQpXddtql6jBn6/H8MwEEIwe+YsALxeL4qi4PP5yN6/n4yMDLnjq9eogcfjkWe4C9MwUBQFXdfln+YsCLf9GP4YFLmT3ZBlhQoVaNykCevWrsXj8fDlxo08+nBfBj/5BGXLlmPHju0MTx9GQX4+Pp+PcCjM9R1vOKE904mWhUIhMteuY9u2bQQLCqhavRrNmjUnJTWl8L7YWX7GUbwL5Qg8a+tWburSFSGE3KGWZREfH09enm2mfT4foVCIlJQUlq7IQHOImqIo0pX6+KOPePH5Fzh44EBUP5ZlccuttzJy9CgCgUBM0X8ASox4uUGND957n6fT0xFC4PV6CYVCkny5u94fCDB/4QIuqlVLKsr9nDL5NSZNmIBlWXi9XpnY0HUdwzAASK1Zk7kL5pOQkBDzsc8wSpSkptuK6tb9Dt546y2qVKlCOByWCrYsC8MwaNS4MUuWLbUVbBi2gp3P1atWMXH8eARIRm4YBqqqEg6HMU0Tr9fLrh9/5LEBA8/StM8ziFLACIeFEEJYliUWzJsnLq1TV9RKrSmua99BbNm8ucj7LMsSQgjR+fobRK3UmuLiWrVFrdSa4snHB4vvd+4U+/btE3M+/FA0uKyevF675oXikw0b7LYMo8QxmaYpDMMQRtg46b1/JCzLssdhGMIIh+W85ffhsJTLn4VS2UTNMauKotCxc2fi4uNRFYXU1FTq1a+PYRh2nNtxudxgyrasLHbs2CFNd8dOnXh53FguqlWLypUrc+ttt/HGW29G9bVk8eLSLExUVUXTNDRd+9POcNeD0DTNGYsueYj8XtdLTNGeDZxy7zk5OViWhQAZDCmOLH3//ffSFxZC0Pu+e8F5zjX3TZo25fIGDdj8zTf2Mzt3AkS5X5EQDqHblpXFDz/8gKZqJCUn0ax581OdymnBnXMoFGLJosVs2bKZ3bt20+ehB2ncpAn79u3jqy+/RNd1VFWlZatWBAKBqMze2UKplGwapgyMKIqCcIIghmmTJp/P59xnRK3a/Lx8oDCCFhcXDyArSdxgSmJiAgoggFAoLPspciymPZbpU6excMEChBCkpKSwfNXKsyZAV8E//PADvXvdxS/Z2VhCoGs6bdu3o3GTJnz+6WekDRlibwghWJ25jmrVqv0pSi7RXAshbJKla+z87juGpw/jlhtv4ujRo1iWxeeffsaNnbvw+pQpHD16FE3XMQ1DRrXq1a8nJ6UoCpnr1sl2w+Ewuq5z+PBhNn21CYGt2MqVKwNERcYi4QooLj4eyzQxTZPExMQzJY9SwWX+g/oP4JfsbHSPx56TEaZsclkA6UVomobP5/tTvYVie45Uzvhx4+h43fW8/9577P35Z/tBhx1vy8piwrhXuaZlK1ZmrEDTdbxeLwDLli6zS4csC8uyeHXsWNasXo2u63g8Ho4dO8ag/v3Jd4IpCtCiZUug+J3swjJNcMZnFpHxcpm/aZqSMxQ1R9M0MQ3T+TSke3d8G+6ic8/hrVu2sH3bNjRdJxwOc+ttt7Hx6020bnONLR9NtcfmPCuO81Rl3xF/RY4von/3z52LEOKE8RWFk5rrxwcOYvGiRUBhZsk9ixVFweOs4pwjR+j70EOMefEFqlevztAhT7F3714pLI/HQzgUps9993N5gwaUK1eOLzdu5NixY+i6TjAYpELFitx86y22kE5j5bs76Pg2Ik2lGwMojrS5FS6RbUQ+n5OTIxeYZVkMGZpGcnJyqcKzbjslEUZ3DsWRNvd6aapwirzDbWDShAksXrRIDsYIGyiqgtfrJT4hgUO//SbjzqrjG6c/lSbbURSFQCBA+QoV2Pvzz2i6hqIobP7mG8lC/X4/wWAQgLGvjsPn8/3uEiJFUSQvOHjwIFu+2UwgLkBubi4VK1bi8gaXy12g6RqHfjvEkiWL2fTVVxz67RBx8XE0bNiQm265hXLlyvHdt9+yd+9eNE0jISGBK668koL8fLZv384Xn39uH2dOyHbtmjWUL1+ei2rVomrVqjbBKALCslB1HdM0WZ+ZiabpmKYdN2jRsqUzB3sBWpbF8qXL+GTDBvbv34+madSqXZsuXbtS9+K6/Pe//2XL5s14PB4QcFWjq/H7/Sec+ydI0i35+fHHH5k0YaJ9s6OQ+IR4hgxNo127dsTFx3PwwAFmzZzJjGnTMZ0Ah+veuMx55OhRVK1alX59+7Jm9ZrCyToJjXAoTJkyZZgweRLNmjfHPI0aMTdGfvToUW676Wb2798v5zR34QLZr6ZpTJ86jbGvvEKwoEB+D7Ds30sZ+/IrzJg1kxUZGUx7ZyrCsqhavTqr1q7ht0OH6HbrbfIosywL0zAYMvgJNE1j9PNjuP2OOzCtaPMphe58Duzfn4xly215qyrpw4fTslUrwuEwHo+Hzz79lKFPpfHzTz9FjW/VypX84/XXGTosnQsvuoi+fR6Ux9XKNaupkZJyciW7jc2cMQNVVdGdMychIYH5H39EamqqvDcxMZHhI0Zw8SWXyB3sKrr/wIEMGFQYwXrz7bdZvWoVC+bNZ+fO7wiHwlSoWJFWrVvRs1cvypQpcwI7P1W4MfM7u/dg/779KKo90QUff0S9+vUJhUJ4vV7GPDeKGdOnY5qmjLu7QnFJ4b339KZOnToyPhAfHy+vK4qCQjRnKFS6iJLj8XLVNI2RI0aQsXQZXp+PYDBI+vDh3N37Hjm+ZUuX0r/vIwhsAhcMBguPDaedF8Y8z1VXXyV5yfFHSyROkKhrmjPXZUp2rSgKQ4elk5qaSkFBgUw1uoTq9m7dWL1yFSsyMuSiCDkmOBQKyXO7Tdu2tGnbNkpYLk5HwZGk6oF773OqWeyY+tQZM6hXvz75+fkEAgEWzJvPjOnTpZ8eDoW5vEEDGjdpjK57yNq6lbVr1lCQn8/mr79G03Wb5DnCTUpKYtyE8Xz5xUZmz5ollfv4k0+QlJTElVddactRjT5vDYfHvD5lCrP/NROP10soGOTR/v2iFLxn92769X1E5gnC4TDVqlWjTbt2lC2bzO7du1mxPIO8vDw2fr4RFIeglVBuFSVVNzFw8OBB9u/fL1d1XHw87ZyqEJ/PJ5UTSRy63nQjK5y8MsCmTZvsDpwokKIo9q6AqMiQezyczg52xzN0yFOsX7dOJj4mvfYaLVq2IBQKEQgEMAyDV8eOjVoUo18YQ7fu3aPa++rLL3nwgT4cPnRIKtc1s3FxcXS98UbKly/Pu7Nn25dUlR49epCUnFw4JjViAZsmFStVYsmixYwf96pDQkP0vKsXAx97LCqYNH7cqzJXHwqFuKNHd0aNGRM1vl9//ZWH+zzI15s2yQRRSShyfxfk50sTpigKyUlJJ/VFK1SoIN0lIQQF+fmObCLOBifEF2kh3EVwOoiLi+O1SZOZN2cOOIvpudGjuaFTRwwnUQKQuW4d2dnZeL1ehBAMGDSIbt27SzfLMAzC4TBXXHklk6e8JucfCXcR5+TkRH1/6PBhwLZckbAsi8TERBbOX8CAfv2k29O5a1dGjBxZSAQ1mwiuWmkHdULBII0aN5YKdl2lcDjMBRdcwLR/zaBs2bJYpnVS+RWpZH8gIAUhhODQ4cMcPXq0xIYOHDggS3kURcEfCEQJBWyT7FaIuKHO060KUVWVzd98w4RXX0VgCzUtfSjde/aQ0TFpXb6yrUs4HCYuLo67e98DEFWx4vF4MAyDps2acdXVV52wS1yBHk8OdWchHS9wTdPIzc3lmaeflt9de/11jJsw/oS57Nixnby8PLttReGhvg8Dhe6cpml4PB5CoRDx8fHceVcvFFVB1TRKUnOUkt2Du0KFClSpUsV+O8LrJVhQwMqMFQB2VaazWyMd848WLIyaZMOGDeUA3R0eGax3jwZ3J5tOXvlUoaqqdMHchdO6TZuoe9wxHfjlF8BeeLVq1yYpKanE3HX9+peX2sqUtFBdGbhcpnnzFgCyjt3FQWejmKaJx+OhTp06co6RcC1T/fqX2307uYTicMLs3JXbslVLWaUphOCFMWPYtWsXfr9f7lZ3ZX34wQesyMiQEwLwOvFsd2KqqrJq5SoG9OvHDddeR4e2benRrRtv/P3v5OTkyJDoqcIwDC697DL+1rChzP489MAD8qw/HSsRcshSUShtu6Zpkly2LO07dJBBpKfT09mxY4cd+jSME859+58nHhURnQOFuYNTNtfuA73uvhvTsuzVpmkcO3aMmzp3YfasWWTvzyYnJ4f//f57nnv2WdKfSosKBSqKwuSJE7n7zl78+OOPBINBHrj3Ph7u04elS/7N9zt3smf3HjZ+sZHxY8fRpmUr1q1d+7sVnZCQwIRJE2VQZs/uPQxLG2qPJyKkWLlKZTnH73fu5MiRI1GJEikD53PTV1+ddoGhoijk5+XxzLPPculll0kuMuCRR6V1c3uoVKmS9ONDoRDffvutPYfjxucy6Y1fbHQ7Kb25hsIivtTUVAYMGmQzXydrlHssl2eHP0ObVq1o2/oarmvfgZkz/gXYjNkdjPv56X/+Q9eOnbiufQdbiVphGNE1rR6vl5ycHO7vfS+fbNggc9engpwjR6hWvTrPPjcSnBKjuXPmsHDBgqj2Gl5xBQAej4e8vDymT50K2OYukthous7KFSvYnpV12rlqRVEIh8MEAn4mTJ5ky0rT2LVrF8OGptv9Owupbt26JCQk2DteCF6f8ncA6S244/N6vfz666+8/+67MhhzSubaHYTNPgfSuUsXefbqHl2W8Bw5fDiKsFhOLfbzL73Iv2bPskN7QH5+vh3S1DTJYBv87W+0vuYakpKSpB8N8MTjgwkGg1FkqTTQned73X03rdu0kQw37ckh/PTTT/j9fizLonmLFlSuXFl6DpMnTuLdWbPRIkqE3WjT4EGPYTnE83ShaRpHjhyhZs2apKUPRbgL8cMP+WjhQjweDwUFBSSXLUvbdu1QVRWvz8fGL74gPS3Nln3E+A788gv33dObvLy8Ui3Ck2YBxk0Yz8OP9AWBdDUi2XE4HMYyTcokJfH6P/7B7d260aRpU9asz+ThRx6xO3EyVh6Ph7enTWXO/Hm89c7brN2wnmbNm2EYBj6fj18PHmT+3HnA73+X6uVxY0lMTJQZpP6PPAoUhjMfGzxYVpUAjBg+nJu6dGXMc6N4+cUXuadXL+7s3oPc3Fw7qnWGcr/uQry/Tx+aNm8mF+JTTzzJzz//jN/vB2DgY4NsF7SgAF3XmfPBh7Ru0YKn09MZ+/IrDOzXn3bXtGFbVhaI0smpWCW7ShRC8NjgwSxZvpQePXtSvUYNoDCzdFm9egwa/Dhr12fSrkN7TMOQE7ju+usk6VJVlcefeIJWrVtLfzQhIYEJkycTCAQIBoMIYH1mJnByYqNEhPlUJ/AQDodJTk7mlXHjUFUVv9/PtqwsXnrhBWmBbrrlZnr2ulOm/zweO8o1fdo0/vnmW3yy4RPbBfT7qd+gvuQIxzNcRVGcvlXUIkhS1HWHqLoYO348/oBfLsSB/fpLmdZISWHi5MlRG2P/vv188N77vPnGG/x78WIZg7jiqivRNDvpo5awGEvcye6ONQ2T2nXqMHL0KObOn09iYiKqqtK4aRMWfPwRfR99lISEBBmadHfJ1i1boxZLy1atZLuuP5qcnEzDKxralSFCyKRCcWbIVX4wGLSFq6rkORUo7tnVtn07evbqJUuH3/nn2yz6+GO7btwwGDFyJEPSnsLv9xMOhwvf23JIkWtxGjdpIl28fKfG3O3fMAwUh78Ula92K1JN0yQUCsnroVCI8uXL8/LYsfbCEYKsrVsZPmyYVGzHzp2YOn26rI518wEIYVsWRWFIWhp9H32kkGkXkzOHUpb/aLomHXLTMuUucuOzwWAQr9d7QmgyEBeQSgXIy8sFChm4i6NHj0ni4PV6pDCLcg1c5fd56EE6deqEqqkkJCTKftzrw4Y/TYdrO8hYemKZMvY9Dpu+v08fbrz5ZpYtXcrmr7/h8JHDxMcn0KBBA7rc2JVy5cpxwQUX0Lx5C1RNJT4hIar/Ro0a8860afJl+4qVKkVdb9qsGW871xVFoUKFCs787CDT9TfcwAdz55Cbm4emqZimJf1j0zRp3rIFq9auYfmy5Xz22Wf8kp2NpmvUrl2bGzp2ok7dOvz222/8c+pUdI8eNYYT5FZSKWckwk5ZaSgUElc1vELUqXmheOiBPvKaaZryXrdEdltWlqiVWlPUvaiWqF3zQjHg0X4ntPvZp59GleQ+PTQ9qo2i4Ja9nur1yO9PVsYbLqGM9vf2fyr3lNS/ECcffyRKWchnSMb778WLycvNxRKCXbt2sXXLFurVry/v05yUlxCCSy69lLoXX8y3O3ag6zpLFi/G7/fz4MMPEYiL49P//IdRz46MWn0dO3c66XgikxtFJUtc8xtZJnP8z1C5WSghhJ3gt8+LqNRdcX247Ue+1FdU/8Vdd+85PmQaeY8rb7fMyZ2H+6zrAZXUh+xLiJIZjpshWbliJSOfeYbs7GwZTXKF2KhxY14a+wrVqlWTinY/16xezYP3PxCVZHddAvffgUCAUChE62ta8+bbb8dekznDKNW7UO+/+x7Dhw2T8ddQKGQzR11DVWxy4fP7WfDRwiLfhXp9yhQmjBuPJYp/F+rCiy5izvx5xMfHx5R8hvG732pMSEggN9cmUm7us0ZKDZatWFHkW42LPv6Y50eP4b8HD0b1Y1kWt91+O8+Oes7+3ZHYW41nHCdV8gP33iffTw6Hw3S49loGD3mScmXLsmPHDp4ems7u3bvl+8nPjBzBnXfdFaWsyLcN1q/LtN9PDgapUrVK7P3ks4AilRxZIdK2VWsKnGK3qxs1Yvb770Xd+0t2Nu3btqMgPx8FaNSkCTPfnX2Cwkoq73ET+2f7zYLzBSX+MMxPe/bI8JqiKPS4syeADDIEg0Eq/c//0KFDB9s0C8FPe/bId50i149bEeLGr92Au0vCYgr+41CiC3U8xY8LxAEUhtIcchQXHyfvMSIKCY6H65rEcHZR4g/DVKpUSe5QgIzly+V1NzoDsD5zvSRaFStWxOfzFRuxiuHso0glu8GMGikpXHLppViOwz13zhymvTNVZnHy8/MZ2K8/+/butV/qUhSat7BLW05WQRjD2cNp/bZmVlYWR3NyZIbH5/OxOnNd7Lc1zzGUHAxxGHLakKdYMHcuQlFO/JVcv59gQRBFVRg/aSKdOneO/UruOYYSt5q7E198+SXu7t0byyk/ATvca7/LFMIfF5AKNgwjpuBzDLFfrj8PEPs/KM4DlErJLmL/m8xfE6ek5EjE/OC/Dn739osp+K+DmI09DxBT8nmAmJLPA8SUfB4gpuTzADElnweIKfk8wP8BihwjO+GgWkIAAAAASUVORK5CYII=;" vertex="1" parent="I79zV8GsZZfp62jos5SP-78">
          <mxGeometry x="38.91000000000005" y="3.5999999999999996" width="45.38" height="27" as="geometry" />
        </mxCell>
        <mxCell id="I79zV8GsZZfp62jos5SP-74" style="edgeStyle=orthogonalEdgeStyle;rounded=0;orthogonalLoop=1;jettySize=auto;html=1;fontFamily=Tahoma;entryX=0.5;entryY=1;entryDx=0;entryDy=0;entryPerimeter=0;" edge="1" parent="I79zV8GsZZfp62jos5SP-64" source="I79zV8GsZZfp62jos5SP-22" target="I79zV8GsZZfp62jos5SP-29">
          <mxGeometry relative="1" as="geometry">
            <mxPoint x="180" y="144" as="targetPoint" />
          </mxGeometry>
        </mxCell>
        <mxCell id="I79zV8GsZZfp62jos5SP-79" value="" style="group;" vertex="1" connectable="0" parent="I79zV8GsZZfp62jos5SP-64">
          <mxGeometry x="169" y="205" width="130" height="89" as="geometry" />
        </mxCell>
        <mxCell id="I79zV8GsZZfp62jos5SP-22" value="&lt;br&gt;Producer" style="strokeWidth=2;html=1;shape=mxgraph.flowchart.terminator;whiteSpace=wrap;fontStyle=1;fontFamily=Tahoma;" vertex="1" parent="I79zV8GsZZfp62jos5SP-79">
          <mxGeometry width="130" height="84" as="geometry" />
        </mxCell>
        <mxCell id="I79zV8GsZZfp62jos5SP-54" value="" style="group" vertex="1" connectable="0" parent="I79zV8GsZZfp62jos5SP-79">
          <mxGeometry y="5" width="130" height="84" as="geometry" />
        </mxCell>
        <mxCell id="I79zV8GsZZfp62jos5SP-25" value="" style="shape=image;verticalLabelPosition=bottom;labelBackgroundColor=default;verticalAlign=top;aspect=fixed;imageAspect=0;image=data:image/png,iVBORw0KGgoAAAANSUhEUgAAAHkAAABICAYAAADS3FpBAAAXtElEQVR4nO2dd3wU1drHv1O2pZCAlJeaoBQLyMVCL9IsNDsComJBRWmKYggiImAFaXL16lXKBWxUBS4QesBrQVEggOKrgAIRrgKBlN2dmfP+MTMnu5CEIIj4sr/PJ5/lszNzyvOc85zfU2ZRhBCCGP5fQ/2zBxDDH4+Yks8DxJR8HiCm5PMAMSWfB4gp+TzA71ZyzPP660A/lZtN0wRAURRUVcU0TYQQqKqKqsaMwrkKpTTBECEElmmi6cWvCdMw0XTtjA4uhjODkypZCIGiKABkbd3Khx98yNYtW8jPz6NcuQto2qwp3Xv2pFy5chiGgV7CQojhz0GJSo5U8JhRo5n2zjsoiiLPYwXbdHv9fl58+SU6de4cU/Q5iBK1YVkWmqaR9uQQ5s+bh6pp6JpGKBRCASwh8Pt8FOTl89iAgViWRZeuXWOm+xxDsTvZNAw0XWfxokU8PmAQmm4rV1VVUlJSqFylCtu2bSPnyBE0TSMcDuP1elmzPpOKFStiWVaMjJ0jKFYLqmbvxH+8/gaWsDBNE0VRGDZ8OBmrVzFj1kwyP9nADR07Ypomfr8f0zCYMW06YFuBGM4NFKlky7JQFIU9u3ezY/t2VE1DCMFtt9/OPff2xrJspQcCASa+NpkqVasSDAaxhGDD+vUAaFrMXJ8rKFLJrgXPzs62/WCHfLXv0EFed000QIuWLSQhO3DgAMFgMIqgxfDnokTidTxLzsvPA+ygiKqq0iTn5eYVPqNpxZ7FQggZUAGbmbuBlRj+OBQpXddtql6jBn6/H8MwEEIwe+YsALxeL4qi4PP5yN6/n4yMDLnjq9eogcfjkWe4C9MwUBQFXdfln+YsCLf9GP4YFLmT3ZBlhQoVaNykCevWrsXj8fDlxo08+nBfBj/5BGXLlmPHju0MTx9GQX4+Pp+PcCjM9R1vOKE904mWhUIhMteuY9u2bQQLCqhavRrNmjUnJTWl8L7YWX7GUbwL5Qg8a+tWburSFSGE3KGWZREfH09enm2mfT4foVCIlJQUlq7IQHOImqIo0pX6+KOPePH5Fzh44EBUP5ZlccuttzJy9CgCgUBM0X8ASox4uUGND957n6fT0xFC4PV6CYVCkny5u94fCDB/4QIuqlVLKsr9nDL5NSZNmIBlWXi9XpnY0HUdwzAASK1Zk7kL5pOQkBDzsc8wSpSkptuK6tb9Dt546y2qVKlCOByWCrYsC8MwaNS4MUuWLbUVbBi2gp3P1atWMXH8eARIRm4YBqqqEg6HMU0Tr9fLrh9/5LEBA8/StM8ziFLACIeFEEJYliUWzJsnLq1TV9RKrSmua99BbNm8ucj7LMsSQgjR+fobRK3UmuLiWrVFrdSa4snHB4vvd+4U+/btE3M+/FA0uKyevF675oXikw0b7LYMo8QxmaYpDMMQRtg46b1/JCzLssdhGMIIh+W85ffhsJTLn4VS2UTNMauKotCxc2fi4uNRFYXU1FTq1a+PYRh2nNtxudxgyrasLHbs2CFNd8dOnXh53FguqlWLypUrc+ttt/HGW29G9bVk8eLSLExUVUXTNDRd+9POcNeD0DTNGYsueYj8XtdLTNGeDZxy7zk5OViWhQAZDCmOLH3//ffSFxZC0Pu+e8F5zjX3TZo25fIGDdj8zTf2Mzt3AkS5X5EQDqHblpXFDz/8gKZqJCUn0ax581OdymnBnXMoFGLJosVs2bKZ3bt20+ehB2ncpAn79u3jqy+/RNd1VFWlZatWBAKBqMze2UKplGwapgyMKIqCcIIghmmTJp/P59xnRK3a/Lx8oDCCFhcXDyArSdxgSmJiAgoggFAoLPspciymPZbpU6excMEChBCkpKSwfNXKsyZAV8E//PADvXvdxS/Z2VhCoGs6bdu3o3GTJnz+6WekDRlibwghWJ25jmrVqv0pSi7RXAshbJKla+z87juGpw/jlhtv4ujRo1iWxeeffsaNnbvw+pQpHD16FE3XMQ1DRrXq1a8nJ6UoCpnr1sl2w+Ewuq5z+PBhNn21CYGt2MqVKwNERcYi4QooLj4eyzQxTZPExMQzJY9SwWX+g/oP4JfsbHSPx56TEaZsclkA6UVomobP5/tTvYVie45Uzvhx4+h43fW8/9577P35Z/tBhx1vy8piwrhXuaZlK1ZmrEDTdbxeLwDLli6zS4csC8uyeHXsWNasXo2u63g8Ho4dO8ag/v3Jd4IpCtCiZUug+J3swjJNcMZnFpHxcpm/aZqSMxQ1R9M0MQ3T+TSke3d8G+6ic8/hrVu2sH3bNjRdJxwOc+ttt7Hx6020bnONLR9NtcfmPCuO81Rl3xF/RY4von/3z52LEOKE8RWFk5rrxwcOYvGiRUBhZsk9ixVFweOs4pwjR+j70EOMefEFqlevztAhT7F3714pLI/HQzgUps9993N5gwaUK1eOLzdu5NixY+i6TjAYpELFitx86y22kE5j5bs76Pg2Ik2lGwMojrS5FS6RbUQ+n5OTIxeYZVkMGZpGcnJyqcKzbjslEUZ3DsWRNvd6aapwirzDbWDShAksXrRIDsYIGyiqgtfrJT4hgUO//SbjzqrjG6c/lSbbURSFQCBA+QoV2Pvzz2i6hqIobP7mG8lC/X4/wWAQgLGvjsPn8/3uEiJFUSQvOHjwIFu+2UwgLkBubi4VK1bi8gaXy12g6RqHfjvEkiWL2fTVVxz67RBx8XE0bNiQm265hXLlyvHdt9+yd+9eNE0jISGBK668koL8fLZv384Xn39uH2dOyHbtmjWUL1+ei2rVomrVqjbBKALCslB1HdM0WZ+ZiabpmKYdN2jRsqUzB3sBWpbF8qXL+GTDBvbv34+madSqXZsuXbtS9+K6/Pe//2XL5s14PB4QcFWjq/H7/Sec+ydI0i35+fHHH5k0YaJ9s6OQ+IR4hgxNo127dsTFx3PwwAFmzZzJjGnTMZ0Ah+veuMx55OhRVK1alX59+7Jm9ZrCyToJjXAoTJkyZZgweRLNmjfHPI0aMTdGfvToUW676Wb2798v5zR34QLZr6ZpTJ86jbGvvEKwoEB+D7Ds30sZ+/IrzJg1kxUZGUx7ZyrCsqhavTqr1q7ht0OH6HbrbfIosywL0zAYMvgJNE1j9PNjuP2OOzCtaPMphe58Duzfn4xly215qyrpw4fTslUrwuEwHo+Hzz79lKFPpfHzTz9FjW/VypX84/XXGTosnQsvuoi+fR6Ux9XKNaupkZJyciW7jc2cMQNVVdGdMychIYH5H39EamqqvDcxMZHhI0Zw8SWXyB3sKrr/wIEMGFQYwXrz7bdZvWoVC+bNZ+fO7wiHwlSoWJFWrVvRs1cvypQpcwI7P1W4MfM7u/dg/779KKo90QUff0S9+vUJhUJ4vV7GPDeKGdOnY5qmjLu7QnFJ4b339KZOnToyPhAfHy+vK4qCQjRnKFS6iJLj8XLVNI2RI0aQsXQZXp+PYDBI+vDh3N37Hjm+ZUuX0r/vIwhsAhcMBguPDaedF8Y8z1VXXyV5yfFHSyROkKhrmjPXZUp2rSgKQ4elk5qaSkFBgUw1uoTq9m7dWL1yFSsyMuSiCDkmOBQKyXO7Tdu2tGnbNkpYLk5HwZGk6oF773OqWeyY+tQZM6hXvz75+fkEAgEWzJvPjOnTpZ8eDoW5vEEDGjdpjK57yNq6lbVr1lCQn8/mr79G03Wb5DnCTUpKYtyE8Xz5xUZmz5ollfv4k0+QlJTElVddactRjT5vDYfHvD5lCrP/NROP10soGOTR/v2iFLxn92769X1E5gnC4TDVqlWjTbt2lC2bzO7du1mxPIO8vDw2fr4RFIeglVBuFSVVNzFw8OBB9u/fL1d1XHw87ZyqEJ/PJ5UTSRy63nQjK5y8MsCmTZvsDpwokKIo9q6AqMiQezyczg52xzN0yFOsX7dOJj4mvfYaLVq2IBQKEQgEMAyDV8eOjVoUo18YQ7fu3aPa++rLL3nwgT4cPnRIKtc1s3FxcXS98UbKly/Pu7Nn25dUlR49epCUnFw4JjViAZsmFStVYsmixYwf96pDQkP0vKsXAx97LCqYNH7cqzJXHwqFuKNHd0aNGRM1vl9//ZWH+zzI15s2yQRRSShyfxfk50sTpigKyUlJJ/VFK1SoIN0lIQQF+fmObCLOBifEF2kh3EVwOoiLi+O1SZOZN2cOOIvpudGjuaFTRwwnUQKQuW4d2dnZeL1ehBAMGDSIbt27SzfLMAzC4TBXXHklk6e8JucfCXcR5+TkRH1/6PBhwLZckbAsi8TERBbOX8CAfv2k29O5a1dGjBxZSAQ1mwiuWmkHdULBII0aN5YKdl2lcDjMBRdcwLR/zaBs2bJYpnVS+RWpZH8gIAUhhODQ4cMcPXq0xIYOHDggS3kURcEfCEQJBWyT7FaIuKHO060KUVWVzd98w4RXX0VgCzUtfSjde/aQ0TFpXb6yrUs4HCYuLo67e98DEFWx4vF4MAyDps2acdXVV52wS1yBHk8OdWchHS9wTdPIzc3lmaeflt9de/11jJsw/oS57Nixnby8PLttReGhvg8Dhe6cpml4PB5CoRDx8fHceVcvFFVB1TRKUnOUkt2Du0KFClSpUsV+O8LrJVhQwMqMFQB2VaazWyMd848WLIyaZMOGDeUA3R0eGax3jwZ3J5tOXvlUoaqqdMHchdO6TZuoe9wxHfjlF8BeeLVq1yYpKanE3HX9+peX2sqUtFBdGbhcpnnzFgCyjt3FQWejmKaJx+OhTp06co6RcC1T/fqX2307uYTicMLs3JXbslVLWaUphOCFMWPYtWsXfr9f7lZ3ZX34wQesyMiQEwLwOvFsd2KqqrJq5SoG9OvHDddeR4e2benRrRtv/P3v5OTkyJDoqcIwDC697DL+1rChzP489MAD8qw/HSsRcshSUShtu6Zpkly2LO07dJBBpKfT09mxY4cd+jSME859+58nHhURnQOFuYNTNtfuA73uvhvTsuzVpmkcO3aMmzp3YfasWWTvzyYnJ4f//f57nnv2WdKfSosKBSqKwuSJE7n7zl78+OOPBINBHrj3Ph7u04elS/7N9zt3smf3HjZ+sZHxY8fRpmUr1q1d+7sVnZCQwIRJE2VQZs/uPQxLG2qPJyKkWLlKZTnH73fu5MiRI1GJEikD53PTV1+ddoGhoijk5+XxzLPPculll0kuMuCRR6V1c3uoVKmS9ONDoRDffvutPYfjxucy6Y1fbHQ7Kb25hsIivtTUVAYMGmQzXydrlHssl2eHP0ObVq1o2/oarmvfgZkz/gXYjNkdjPv56X/+Q9eOnbiufQdbiVphGNE1rR6vl5ycHO7vfS+fbNggc9engpwjR6hWvTrPPjcSnBKjuXPmsHDBgqj2Gl5xBQAej4e8vDymT50K2OYukthous7KFSvYnpV12rlqRVEIh8MEAn4mTJ5ky0rT2LVrF8OGptv9Owupbt26JCQk2DteCF6f8ncA6S244/N6vfz666+8/+67MhhzSubaHYTNPgfSuUsXefbqHl2W8Bw5fDiKsFhOLfbzL73Iv2bPskN7QH5+vh3S1DTJYBv87W+0vuYakpKSpB8N8MTjgwkGg1FkqTTQned73X03rdu0kQw37ckh/PTTT/j9fizLonmLFlSuXFl6DpMnTuLdWbPRIkqE3WjT4EGPYTnE83ShaRpHjhyhZs2apKUPRbgL8cMP+WjhQjweDwUFBSSXLUvbdu1QVRWvz8fGL74gPS3Nln3E+A788gv33dObvLy8Ui3Ck2YBxk0Yz8OP9AWBdDUi2XE4HMYyTcokJfH6P/7B7d260aRpU9asz+ThRx6xO3EyVh6Ph7enTWXO/Hm89c7brN2wnmbNm2EYBj6fj18PHmT+3HnA73+X6uVxY0lMTJQZpP6PPAoUhjMfGzxYVpUAjBg+nJu6dGXMc6N4+cUXuadXL+7s3oPc3Fw7qnWGcr/uQry/Tx+aNm8mF+JTTzzJzz//jN/vB2DgY4NsF7SgAF3XmfPBh7Ru0YKn09MZ+/IrDOzXn3bXtGFbVhaI0smpWCW7ShRC8NjgwSxZvpQePXtSvUYNoDCzdFm9egwa/Dhr12fSrkN7TMOQE7ju+usk6VJVlcefeIJWrVtLfzQhIYEJkycTCAQIBoMIYH1mJnByYqNEhPlUJ/AQDodJTk7mlXHjUFUVv9/PtqwsXnrhBWmBbrrlZnr2ulOm/zweO8o1fdo0/vnmW3yy4RPbBfT7qd+gvuQIxzNcRVGcvlXUIkhS1HWHqLoYO348/oBfLsSB/fpLmdZISWHi5MlRG2P/vv188N77vPnGG/x78WIZg7jiqivRNDvpo5awGEvcye6ONQ2T2nXqMHL0KObOn09iYiKqqtK4aRMWfPwRfR99lISEBBmadHfJ1i1boxZLy1atZLuuP5qcnEzDKxralSFCyKRCcWbIVX4wGLSFq6rkORUo7tnVtn07evbqJUuH3/nn2yz6+GO7btwwGDFyJEPSnsLv9xMOhwvf23JIkWtxGjdpIl28fKfG3O3fMAwUh78Ula92K1JN0yQUCsnroVCI8uXL8/LYsfbCEYKsrVsZPmyYVGzHzp2YOn26rI518wEIYVsWRWFIWhp9H32kkGkXkzOHUpb/aLomHXLTMuUucuOzwWAQr9d7QmgyEBeQSgXIy8sFChm4i6NHj0ni4PV6pDCLcg1c5fd56EE6deqEqqkkJCTKftzrw4Y/TYdrO8hYemKZMvY9Dpu+v08fbrz5ZpYtXcrmr7/h8JHDxMcn0KBBA7rc2JVy5cpxwQUX0Lx5C1RNJT4hIar/Ro0a8860afJl+4qVKkVdb9qsGW871xVFoUKFCs787CDT9TfcwAdz55Cbm4emqZimJf1j0zRp3rIFq9auYfmy5Xz22Wf8kp2NpmvUrl2bGzp2ok7dOvz222/8c+pUdI8eNYYT5FZSKWckwk5ZaSgUElc1vELUqXmheOiBPvKaaZryXrdEdltWlqiVWlPUvaiWqF3zQjHg0X4ntPvZp59GleQ+PTQ9qo2i4Ja9nur1yO9PVsYbLqGM9vf2fyr3lNS/ECcffyRKWchnSMb778WLycvNxRKCXbt2sXXLFurVry/v05yUlxCCSy69lLoXX8y3O3ag6zpLFi/G7/fz4MMPEYiL49P//IdRz46MWn0dO3c66XgikxtFJUtc8xtZJnP8z1C5WSghhJ3gt8+LqNRdcX247Ue+1FdU/8Vdd+85PmQaeY8rb7fMyZ2H+6zrAZXUh+xLiJIZjpshWbliJSOfeYbs7GwZTXKF2KhxY14a+wrVqlWTinY/16xezYP3PxCVZHddAvffgUCAUChE62ta8+bbb8dekznDKNW7UO+/+x7Dhw2T8ddQKGQzR11DVWxy4fP7WfDRwiLfhXp9yhQmjBuPJYp/F+rCiy5izvx5xMfHx5R8hvG732pMSEggN9cmUm7us0ZKDZatWFHkW42LPv6Y50eP4b8HD0b1Y1kWt91+O8+Oes7+3ZHYW41nHCdV8gP33iffTw6Hw3S49loGD3mScmXLsmPHDp4ems7u3bvl+8nPjBzBnXfdFaWsyLcN1q/LtN9PDgapUrVK7P3ks4AilRxZIdK2VWsKnGK3qxs1Yvb770Xd+0t2Nu3btqMgPx8FaNSkCTPfnX2Cwkoq73ET+2f7zYLzBSX+MMxPe/bI8JqiKPS4syeADDIEg0Eq/c//0KFDB9s0C8FPe/bId50i149bEeLGr92Au0vCYgr+41CiC3U8xY8LxAEUhtIcchQXHyfvMSIKCY6H65rEcHZR4g/DVKpUSe5QgIzly+V1NzoDsD5zvSRaFStWxOfzFRuxiuHso0glu8GMGikpXHLppViOwz13zhymvTNVZnHy8/MZ2K8/+/butV/qUhSat7BLW05WQRjD2cNp/bZmVlYWR3NyZIbH5/OxOnNd7Lc1zzGUHAxxGHLakKdYMHcuQlFO/JVcv59gQRBFVRg/aSKdOneO/UruOYYSt5q7E198+SXu7t0byyk/ATvca7/LFMIfF5AKNgwjpuBzDLFfrj8PEPs/KM4DlErJLmL/m8xfE6ek5EjE/OC/Dn739osp+K+DmI09DxBT8nmAmJLPA8SUfB4gpuTzADElnweIKfk8wP8BihwjO+GgWkIAAAAASUVORK5CYII=;" vertex="1" parent="I79zV8GsZZfp62jos5SP-54">
          <mxGeometry x="38.910000000000025" y="3.5999999999999996" width="45.38" height="27" as="geometry" />
        </mxCell>
        <mxCell id="I79zV8GsZZfp62jos5SP-104" style="edgeStyle=orthogonalEdgeStyle;rounded=0;orthogonalLoop=1;jettySize=auto;html=1;entryX=0.5;entryY=1;entryDx=0;entryDy=0;entryPerimeter=0;fontFamily=Tahoma;" edge="1" parent="I79zV8GsZZfp62jos5SP-64" source="I79zV8GsZZfp62jos5SP-81" target="I79zV8GsZZfp62jos5SP-22">
          <mxGeometry relative="1" as="geometry" />
        </mxCell>
        <mxCell id="I79zV8GsZZfp62jos5SP-81" value="&lt;b&gt;MQTT / KAFKA Connector&lt;/b&gt;" style="rounded=0;whiteSpace=wrap;html=1;fontFamily=Tahoma;fillColor=#fff2cc;strokeColor=#d6b656;" vertex="1" parent="I79zV8GsZZfp62jos5SP-64">
          <mxGeometry x="49" y="340" width="401" height="30" as="geometry" />
        </mxCell>
        <mxCell id="I79zV8GsZZfp62jos5SP-15" value="" style="group" vertex="1" connectable="0" parent="1">
          <mxGeometry x="670" y="20" width="120" height="165" as="geometry" />
        </mxCell>
        <mxCell id="I79zV8GsZZfp62jos5SP-9" value="" style="shape=cylinder3;whiteSpace=wrap;html=1;boundedLbl=1;backgroundOutline=1;size=15;" vertex="1" parent="I79zV8GsZZfp62jos5SP-15">
          <mxGeometry width="120" height="165" as="geometry" />
        </mxCell>
        <mxCell id="I79zV8GsZZfp62jos5SP-12" value="" style="strokeColor=#dddddd;shadow=1;strokeWidth=1;rounded=1;absoluteArcSize=1;arcSize=2;" vertex="1" parent="I79zV8GsZZfp62jos5SP-15">
          <mxGeometry x="10" y="65" width="100" height="60" as="geometry" />
        </mxCell>
        <mxCell id="I79zV8GsZZfp62jos5SP-13" value="Firebase" style="sketch=0;dashed=0;connectable=0;html=1;fillColor=#5184F3;strokeColor=none;shape=mxgraph.gcp2.firebase;part=1;labelPosition=right;verticalLabelPosition=middle;align=left;verticalAlign=middle;spacingLeft=5;fontColor=#999999;fontSize=12;" vertex="1" parent="I79zV8GsZZfp62jos5SP-12">
          <mxGeometry width="32.4" height="45" relative="1" as="geometry">
            <mxPoint x="5" y="7" as="offset" />
          </mxGeometry>
        </mxCell>
        <mxCell id="I79zV8GsZZfp62jos5SP-41" value="" style="group" vertex="1" connectable="0" parent="1">
          <mxGeometry x="169.29000000000002" y="50" width="190" height="210.00000000000003" as="geometry" />
        </mxCell>
        <mxCell id="I79zV8GsZZfp62jos5SP-49" value="" style="group" vertex="1" connectable="0" parent="I79zV8GsZZfp62jos5SP-41">
          <mxGeometry x="190" y="-29" width="190" height="210.00000000000003" as="geometry" />
        </mxCell>
        <mxCell id="I79zV8GsZZfp62jos5SP-42" value="" style="rounded=1;whiteSpace=wrap;html=1;" vertex="1" parent="I79zV8GsZZfp62jos5SP-49">
          <mxGeometry width="190" height="210.00000000000003" as="geometry" />
        </mxCell>
        <mxCell id="I79zV8GsZZfp62jos5SP-43" value="" style="shape=image;verticalLabelPosition=bottom;labelBackgroundColor=default;verticalAlign=top;aspect=fixed;imageAspect=0;image=data:image/png,iVBORw0KGgoAAAANSUhEUgAAAPYAAACPCAYAAADJPybBAAAgAElEQVR4nO2913MdWZav9+3MPN4beEOABA1Igp5VXY5VrGJ1V3V1dff0OI1aN/QghSIU977cqwg96Gn+BUUoNIqQrhQz0T097aa7ustXl6f3DqABSACEN8d7k5l6yANzgAOQVWTRHOYXQYOTbudB/nKvvfZaawtd13VMTEzqCulRN8DExOTBYwrbxKQOMYVtYlKHmMI2MalDTGGbmNQhprBNTOoQU9gmJnWIKWwTkzrEFLaJSR1iCtvEpA4xhW1iUoeYwjYxqUNMYZuY1CGmsE1M6hBT2CYmdYgpbBOTOsQUtolJHWIK28SkDjGFbWJSh5jCNjGpQ0xhm5jUIaawTUzqEFPYJiZ1iPKoG2Bi8qAwSuTroGkgJBACIcSjbtYjweyxTeoKXVXRi1n0cgE09VE355Fh9tgmTzy6rqHlUxSufUbxxueosTsIxY5lwwGsW17G2nUA4KnqvU1hmzzR6LqGXsyTv/oRhSvvUho5jZaJgGShHJ9Ay8ZAkrA0b0XY3I+6uQ8NU9gmTzR6KU85Okru/O8pj56FfAKQQC2jTl8nX8iAJCM9998jQnaE/HQ88uYY2+SJRkvOkh/4GHXmBno+BVSb21piitzZ31CauYFWSD+aRj4CTGGbPNFomQjFoWMVUVPxhIMQxv/RVSikyF/4I6WxSzwti8uawjZ5YtHVMlomijp9HUo5VvrGROWPrpYpDZ+meOccanzyUTT1oWMK2+SJRSvmUDNR9NQMaOW1d9Q1tMQEpZEzlO6cQ9fUuu+5TWGbPLHouThaag50Dbi7UEujZ8lf/Qi9mKscU7+YwjZ5YtEyUbTkLLoOSx2wANmGcIXA6lz8CAHk05Snr5O9+Ce0TPS+r69rKlq5hFYqoKll9MfoZfF0+P5N6hItE0VLzS59oOtgsSN5m7F07qU8c5PyZP9SYIpWRouNUbj0DpaWrQi7B8liv+t19MqbQyukKy+TGbT0PFp6Di2XBF1DWJ0oDT0oLduQfS2PPBjGFLbJE4uWiaEuE7YOSFYHcsMmbLt+hLj+Ger8MJSyxg5CoOXilG6foHTnApK7ARHsqBLh4thbLaEXc+jFDFq5gJ5PoiZmKM8Po05fpzx3C3V+GD01a1zZ5sXa8yL2vT/FsfttdKRHKm5T2CZPLFoujpaZr/7Q4kQOd2Nt60PPJylNDaCOXVjaruvo5QK5C/+O5GlACXasOq+uqajpCOWJKxTHLhpivnMOLTUPWgld0xC6Vj22LyQp3vwc1CK27UeQLA4Q8nd383fBFLbJE8dCFpeeiaAnZxdDUnQEwupADnYgrA6s3c+gJmfITvaDWloaiOs66vQNSiNnkBs2oQQ6KE9fQ43eoRwZozxzAz2XQMvG0HMJ9GIGPRsHtVi5tkCHVdNrermAVsxAuQTK3U387xJT2CZPJFoxh5aLoxdSSwrTQVidyMFOUKzIgXasGw5Q3LCf8viVxX2FrkM+SfH2CfRSAcnbhBoZNsbOiWnK0TEoFxY958sFvJZ5res6wuZCcgURsmW16h8yprBNnjx0DT0TRc8ljZ64ghCVMXawAyHbkCwOlIZN2Hf/lGxyFjWSM+a7K6IrT1yhPH6l6vjKBSofVP1U+XFlN72wr0AOdmBp60PYnAjxaCeczOkukycPXUdNzKDna8R+WxxI3mZQLADI3ibsu99GaelF2D3fXZtkK5auZ7Hv/jGrxP8IMHtskycPXUNNTKLlE4YJvNDVWpwIhx/Z6UNIFceVJCM5vNj73kLLxikNfb14GrH418rzV8brkoxwBpAbNyPbPZTnb6PODtW0su273sa2/XVkf+uDvttvhSlskycKXdcNr3V8Ei2XqNomHF5kTxih2JY+EwJkBWv3s5SnBlBnB9GSMwtnW3awQLJ7Ea4QsqcB3I3I7hCytxHha6U8dhEio5VjRKUtIOxelJZebDvfxNq+C2khKOYRYwrb5LFmcV5Z19CLWbRCBi0bpzxzEy0Tq+xj7CI7A0iexlWdsBASSrAdS9dBSjM3KQ58YuRlW+wIiwNhsSNsTmR/O3LjZixNW5GbtqKENyAsdsqROxQHPkZLz1S1SVjsyA2bcDzzc2zdzyJ7Gx/GV3JPmMI2eezRdQ2tkKE8dpHi8GlK45cp3zm7KOwFhMOP5A6veR5r18GKOX4UyduE3LIdS/sulOZeLM1bkZ1+kBWEpIAkg5AoTd8g9en/Tmn0LHq22kKQQt3Ytr+Oc99fgWz9Tu7922IK2+SxQtd1Q8i5JOrsIOXp65Rmh9Bi48Z0VCZizC3nEkautRCLXbbkCiB5mtY8t+TwYttyCPm/+yeE4kA4vAinH8nuRbJ7QLYghFjskYvjl8hffpfS0DH0XJzlprsc7MS+4wc49vwEcQ9hqQ8bU9gmjxQjDltDy6fRUjOo8Slj/JyaMZxVc7dRo2No6XlQi8DSXLJgefIHSK4gkndtYQvZguJvRbkHB1c5MkrxxpcUBv5SCRutvENkBWF1Ye19HVvvaygNPd/+5r9DTGGbPHR0XQdNNeKw8ym0fBI1OkF58iqlsQtGpZP0LLpaAoza4IYHW1QyuSpj3IpjTCh2I+Is0HHf41xdU9ELGYqDX1O49inqVD9LrnOBZPcht/Xh2PfXWNr7ENLjOWNsCtvk4aNrqLkkxVvHKFz/jOLwKchE0MsFdK2MUMuVqK+7zQcLJFcQuX031rY+rD0vIrtC99U0LZ+iNH6J3OlfUloWvAKAYkVp6cX9w/8NS8OmKu/744YpbJOHipqNUZq8Rv7c7yhPX0NLTKFXzGxd16snl8VSFLjxs4zkDiM3bUEOdhoOr3A3kjuE5PAb01T3UYVUzSYojp4n8+U/UZ69tWj6gw6SjGXjc9j3/y2Wxs0Iq+ORp2auhylsk4eGVi5Snhkid/Y3FAc+Qs9EWe6QEsJIrliqmSAjHF4UXyvCHUL2NRvmdsMmJF8rSsNGZE/jfZvDuq6jl4uUxi9RuPIepdsnqkJVQWBp242t93VsPS8i2R//+uSmsE0eGlouQWnsIvlzvwOtVMmRWoGQQLEb0WMOP3KoC2vXQeTmbVhatz/wIgYLzjs1eodC/0fkr7xrJIAYjTHG8A4ftj0/xrbtMIq/5YFd+7vEFLbJQ0OL3EGdW2bi1tCnZPcgN23Dvv/vsG7YZwhJthoBJbLlwTdK19GKebIn/oXCtb9ALl7dHk8j9r4fYe99HSXU9eCv/x3xeLr0TOoTWamMgasM7ir0YhY1Mkxh4CMKN7+kPD9iCFqxGrHbD3hcq6sltEyE8vR1tOQ0VGLPRaU+uewOY935AyRf0xO1isiT01KTJx7JHUbytyPsHvRCFl3XVidUqCX01Byl4VPo6XnUuduGCR7agOxvQ/I2IruCD6xNQgiEbEFyBhBWJ3opt7jNsNLLxmIET9jKnfI//uM//uOjbsSTgqZplEol8vkc+XweTdMQQiA9pnOZjx1WF5TzlGeHjEgutUQlj2rFjjqU86iJKcrjlykNfkU5MWmkaeo6QlbQtTIg4D57cSHJCIsDNZ9ES0yixSdWNEVHL2awtvUZRRQecZ71vWIK+xuQz+eZmJhgYGCAwcGb5HI5LBYrbvfj7yV9LBACyeFDaeyhPH0DLWeUG1ot7KqDQFfREtOUxi9RHPqaws0v0bMJhM2NcAWR7nfsLUByN6DOj1CeuFpdc7ycR41NYOk6iOxtRrI67u9aDwnTFF+HYqHA6Ogo/VevMNDfTy6XI51Okc6kKZXKOJ0O3C43wWCIro3d7Nmzj/aODlPoayCEQLJ7sLT14T7yXygMfU3x9gnKE1dALQN6xTSvhIwuTmPrUC4YASzFDHo+RTm8EUs+RSGfJxmJEwyFsFq/bSKGQPaEsXTspjR+GXX0zGJ70VQopClc/wzJ3YDc8/x9fgsPB1PYNSgUCkQi8wxcvWqIeqCf69euUyoVqV4axvi/3e5kw4YNjI+NceDAM+zc1UcoFHpizLaHiZAVJKcf65aXkDwNyKENlJt7KUdGUKOj6Km5ZdNNhqG+eKxiR/I1obTuwNKxm9msxuj5C4yOjfPGmz8kHF47s2vdNgmBUGxY2vqw9jxPbuyCkWCy2AiN0u2TWFp6UVu3G1lgjzmmKb6CfD7P9PQ0p06e5Ff/+kuOHzvK9NQUqlrLeWIsMVEul4lE5rk20E8qlcTv99PY1IQsK+b4uwZCGNVJZF8TlvZdWHsMkQsd9OXRXlqlvK8QCJsbOdyFpedllIP/gVzTHs4MjPDxJx9z6tQJXnzxRYKh+wsnNUon6RSHjkG5iK6rS0Ez2RiSK4Qc6rqnJJJHjdljr+DmjRt88vHHfPLRB2Qy6TUEvTYXL14glUphtdrZ2ddHIBD4jlpaJwgJyebCvvUVbBu/hxqboDByhkL/h6gTV9HT8wjZhm3bEex7f0o+tI3B8Rne+ed/YqB/gHw+z4auDSjK/c9xC4sNJdSFfc9PyF/8I3pyump7afwyhWufYus6cN/X+q4xhb2M/v6rfPH5Zxw/9hWJRPzuB9SgWChwZ3SU3/z6V9hsVvr6duFwPh7lch5HRGUxa2F1gtWJsDiQHD6szVspzw4ai+4pNuT2PVyfK3D2xMdcuniRkeFhEskEXo+XUCiEoqz9KOu6jqqqlMuGJ91ur528IYSE7GnE3vcWpdFzxvpeapGFMb+WmDSKPUzfRAm2PzZlkGphChtQVZVcLsfxo0c5dfI4kxMTdz9oHTLZDBcvnOfQoZfp6uo2hf0NkKwOpFAnSqgTpWUbWj5NWYMrg2N8feI8Z06fZnRkeHF/m81GuKERxbJ2j61pGv39V5EkiYaAj7BLNtbJlmQjO8zTaJRHkmSEzYWldQeWjj1GYYfo6NJ0WiFNef4WhYG/IO39iSnsx518PsfoyDDHj33N7Vu3lm0xCtdZLBbcbg82uw1JktF1Yz47nUpRKBbRtaXpESEkrDYrXq+PUqlIPp9/6PdTL8iuELIrRCGd5o/v/B+cP3eWRKK6PJHNbqOxqRmLpfajXCqViMWivPunPxEOhfje3u14fSr5i38EIbC09GLp2I/sCSPZ3UYqpiRj7XkJNXKHYmwcWPr9aslZ8hd+j7V7v1Ho8LsIc30AmMIGopEoH7z/HpH5yKptsizT3tHBz/7m79i5sw+f308ul2Xszh3+8Pvf0d9/lXQqtbi/y+Vi67Ze/u4f/oGtW7cRDD64KKmnFV3XmZ+fI5PJrNpmsVjw+/3Ia4R7ToyP884f/52zZ06xZctWtmzsRO7oQp0ZRJ29SXHgYySLHeHwobRsx9K2Cym8EaVpC0rbTkqjZ9Czy5bcLeVQZ65TGj2P7GlECXd/V7d9Xzz1wlZVlVgsxulTp0gmE6u2b+rp4ZXDr/Hc8y8QDoex2WyUy2UCgSBCkvB4vXz91ZcU8nna2tt55tnneOnQy2zr7cXtdmNZx0Q0uTulUolUMkkum6vpyLRarQSDwZpj7KGhQY5+9RVff/Ul0UiEeDxOPJUxTG9ZMcJHC2k0BKTm0DNRytPXEQ4fkjuMFhlFL2aXTiiEEbxSLlK8+QVKeIMp7MeVQj5PNBphcmK85oPT0tpK367dtLS0LE5dKYpCIBDgwIGDpFMpUqkUuWyW3Xv38tzzL9DXtwtZ/uahjvPz86TTKUrFErpRtd6IihISsqIQDodxuVzf2RRaJpMhmUySSafQ9KXrC4whhs/vx+v1YrM9vMohpVKReDxOsVRE07WqKDUdsFislR57aWVLTdMWpyy/+upLJsbHAUgmk0TjCSSHB8kVQFgcUMwYATBqCS05jZ6cWYyMWeu3pwOliSuUZ4fQitnHcqz91As7k80Qi8XWnNaSJXlNj6vT6WRn3y5cLheqqrJr955KYMq9CbpcLlMsGuPwYrHA5UuXGRu7YwhL01hY0lGWZRxOJ7t276ajvQOXy4XD6USW5fsSua7rS7HvuTzjE+OMjIwwMT6GppYXqxMJIZBlhZ7Nm+nu3ki4IYzD4cRms65pAq+FpmmUy2Xy+RyFQhG1XF6V5yUJgdvjwWazUSyWiMVjlNVyzfMpFgter29R2IYjNMvpUyf56ovPuNZ/dXHfVDJBNBJFSArC24RweNEK6aWCLUh3X5yn8rvV0vOU45Oomagp7McRVVUplUprbh8dHeHihfP07dpVc3tLS4sR8aTr2NaYRlmLyPw8ly9f4uTJE/RfuUw6naZcKqGpWnV3IYyH/c/v/IH29g727NvHq68eoaW1Fed9eNyLxSLDt29x7NhRThw/TjQyTy6fp1wuGytSLkMXAqvFis/vo6uri9dee52+3XtobPxmxQOz2SzjY3c4cewYFy9eYHJyAk2rjuZz2B38w8//AwcOHkRIglg0ilpe/eKVhMBhtxNuaFgUdjKZ5OqVK/z5nT9ya2iwav9kKkU0FgUEsjuMsN1n6G8pX3v9sMeAp17YiqKsG2M8PTXFmdOn2NDdxZ49ewkEqp1hFovlG42jVVUlFo1y8uQJrl6+zPDt20xNTxKZn0fT1Oo0ZSGo+iCRJJ1OE4lEGLx5k5deepk9+/bS0dF5z9cHI2R2+PZtTp08Qf/VK4yN3WFqaopioWCY4AuXr/y7vEnJRJx4NMr8fIT+gX4OPvMsBw4cRFGUu1oqt2/f4vzZs5w8cZyJiXHm5+ZIZzLVNYQxHJBCMiyVQqFAPBZDU9VVvanD4cDtdi9aVLFYjIsXzvO73/6a0ZFhCoVC1f49PZvZs3cvSBLWnpdA1yl5mihHhtFTc+iVUNbF66xxPwJAsiDsPqTHNLz0qRe23e7A7/fjdDoXUzGXEKTTaYYGb/LBe+9hs9nZsWMHPt+3+2Xm83nGxu5w8cJ5Pv/0U4YGB0mlklXXW20LVn+QzWQYzQwzOjpCNpshl88hXpBoaWmpGmeuxfz8PDeuX+PMmdOcPH6MsTt3qu651qO8/LNyuUw0FiMaizE7M0MinkASErt2rR2Io5bLTE9Pc/L4cb74/DOuXL5UXUJ4GcboQyIQCGB3OEilUsRiUcqquqp1LpcLr9eLrutks1muXrnMF599xvlz56peFkIINmzo4vkXXmD/gWdASFhadyLZXCgNmyjP3TJqmSen0VLzxrrb6flKeGtVtPri/+SmLSiNPaawH1dcLhdNTU20trUzMT5GNputetiEECSTSb7+8guCwSA2q5W+XbuxWCz3PJZeiHyamJjg008+4f33/sz83NyKhJJviK5z9swZ0ukM6PDGm2/i9njWHXNnMhkuX7rI737za65evUyxeLeUydosHDEzPcXRr74kGo3Q0NBAR0cHlhXWj6ZpRvDPsWN88vFHXL82YJxjne9OkmX8fj92u91IyJmfr0SNVeN2eyrxAiVGR0b49C+f8MXnn1aJWpZl3G4Prx45wsuHX6WnxyjwL7v8yK69WDr2oOs6WjFLeXKA0p3zlGZuoI5dQEvNoatFhFqq/K6EUUVFsWHvewvrhv1Ij+EqIGAKGwC/P8Arhw/z3p//RDabXXO/T//yCWpZxWq1smNn3z0Lu1QqMT8/x2//7VecPHmCaCRyf6JexvCtId57909s6NrAtt7t+Hy+Nff95OMP+eSjDxkY6F/Xr/BNSKdTXB8Y4J0//DtvvvUjtvX2Vm0vFgtMTk3ywQfvcvv2rTXOsoQiyzidDqw2G7IsUywWiEajqDWE7fF6cLndzM3O8stf/AsXz59fdV+NTc28duR1jrz+A9ra22teUwiBbHUitfdhbdqMrhaNiLfZIUqTA2ixUdR0FKHYjMXt23dh7dyHvM6qI4+ap17YQgj8gQCvHH6V/qtXSSQSa4o7nUpx7uxpJElgtztoa2+/q/OqXC4zPT3FH37/O86fP0dkfq6mB15RFDb19NDY2ITb48Hv95NKpUgkEkTm57l58wblFQ+twHCATU5O8P677+LxeGsKO5NJc/rUKY5+9RWDN29SqETDreytW1pbaW5uIRAM4g8EEEA2kyUSmWd8fIxoJLIqkk7TNFKpJMePHWVTz2ba2trweL2L2+fm5jh14gQz09MUCoWqKy682hatDCGwORwEgyEsimER5QsFZmdna/bYsqIwPTPNv/7yF/RfuUIiEa96YXZ0dvK9517g+2+8QUtLS01fyuLLWQiE1QFWB7quI7kbkFwBlIaN6PkkWjFvhJw6PMjuBiSnH6E8XgvxLeepFzaA3W5n46Yenn32eySTSa5fG1hz+mtqaooTJ47j8Xo5/OprdG/ciNPpWvPc83NzXDh3ji8++4xIZLVJ6fF4aWltpbt7I9t6e2luacHj9RIIBEgmkyRicWZnZ2hpbeXG9WvMzs5SXOEUymWznD1zimeefZaOzk48Hs/StlyOO3fu8PFHHy6mlS4fK1qtVnz+AN3d3Wzd1ktHZyehUIhAJWIum8kwNz/PndERBq5e5datIebn5qqur6plxsfvcP36AD2bN7N9x47FbZH5ec6dO1vzZdnU1ExbezsNjY2LArPb7bQ0t+Byu9F1nUI+X/N7A4jH41wbGODO6AjJRGLxdyaEoLGxiYPPfI+XDx9m8+Yta/5+arGQmCK7gg+0vtrDxBQ2S2/tI9//AelshunpKSLz82vuPzc7w7/+4l8qHnErGzdtqhmQUi6XuXZtgE8++pDZ2ZkVjjnjIe7ZsoXXjrzOD9/6EXa7vaZ5Xy6XOfzaEX71y1/w1ZdfMDE+VtUzqWqZaDTC0NAgPZu3sHXbtqW2zs1y7uwZzp45TXqFqGVZJtzQyN79+/mbv/17Ojs7a1ogC9c6dvQoH37wHl998XnF5NWrznfj+jU2btq0KGxd10kmk9waGqRYLFadUwjB3r37eOvtH3Pg4MHFz6rvu0Q+nyedSqNXObEMRoeHAYGmLYjeqD/ncDg5+OyzHPn+99mzZ++q+3kaMIW9DJ/fz6FDr6BrGv/ff/1/VglxObqu8+c/vUOpVOKnP/trWlvbVj2Y09NT9F+9Sn//1ZrneunlV3jtyOvs2btv3WguueJM+ulf/Qy73c5vf/1vpNOpVeP00dERJsbHq4Q9fPs2H3/4Afnc6h6zra2dV48c4ac/+xv8fv9dp+327ttHuVxifm6O69f6V00n3RkdZWR4KfNK13Xy+fzidNVybHY7vdu3s2PnzjWvl05nSKWSRhReDWp9p/5AgP37D/DTv/oZGzc9nithPgzM8h7LUBSFtvZ2vvfc8/zoxz8h3NCw7v7RSIRTJ0/w4Qfvk0wmV5mL/f39DN68QT6fY/lssNPpZM/evRx6+WV29u3C5/MhSdKazjghBIqi0NzczM6+Xezbv7+SzVT9wM9MTzM3N7v488TEOIM3bzA+NlY1tJAqMe4vHz7MK6++RmNjI1ardU2P+kKdbZfLxcZNm3juhRdwOJb37EYlmWw2SzQaJRKJUC6XyeWyZNLpxe9l4e4kScLvD+APBHA4HIvnX0k+n1/Xmbny+gChUJhDrxymrb1jTQvoacAU9gqcTifdGzfyo7d/zL79B2hoqBVZZTxIuq4zOjrCsaNfc+XK5cUsL71Spvha/1VGR0eqjxQSgWCQV4+8zs6duwh9g3I+FquVjs4O9uzdtyL/2GhPPBavSmu8fesWQ4OD5HK5ygyQEfBis9nYsWMnzzz7HD09m9cUVi1CoTC79+zF7fYgSdXz5pqqkstmF0N0s9ksmczqyCxD2P67Ci+bzZJOf7PILk0zcuu/aeWbesM0xWvgcrnp27WbXC6PrsNXX3xOoVA7r7pULDI5Ps777/6JhnAYr8+HpmmkUymGh4eZnZlhoTfRAbvNRmtLG6++dgS//5sHNwQCQbq7N6LICqwYdRrx10vtvH3rFqMjIyvOIHC73Rz5/g/o3LDhnoJaluNyuWhtbcPvDzA3N7vKHC+XS+Ry2cWgkWymusfVMVba8HjunkySTiVJxGtXshFC1JwynBif4Lf/9is6OoyYerv98Zxn/q4xe+x12NnXxxtv/pDDr722bs+STqc5c/o0IyMjpNNp8vk8Q0ODpJPJqiIMAI3NTWzfuQOn07mqx7sXHA4HgWCg5gqTqqoaceYVpiYnmJmprtulKAo+v58dO3Z+63pssizT0Nh416m+RDxBLBZb9bmQJIKhIA7H+jW6M5kMqWW57ovHC4HH68VWQ7SFQp6x8XE+/ugjBm/evMud1C9mj70OTqeTbb29aJpKPpfj4sULxFc9qAJNU8mkU9y+dYtNPZsJBoOMjo6SreGwCgQCbNjQhSzfPba6Frq+lisJbDY71kq+eDKZIJFIrJp3drnctLYac83r1QlbD0kInE7H6gKCwhC9zWpDCEE6nSKZSrLkCzDuV5IEfr+vpjCXk0qlSMTjq7zhQgiam1twOl0kkwlu31pI9hBouk4hn+P0qRM0NzcTbmigpeXJWCHzQWIK+y4Eg0H6du1C13UymQwDA/1kVoz7Fh7byYkJ5ufn8LjdTE1NUsjn0avCv3VcThfBUBBJ+nZOnWKxSCqZQtdWy9vj8eByGymk0Wi0Mrau3s/hcBAKh79Vvvgiwgj7NMqmL5/yEsbKKJXQ1nQqTSqZXHW4JEn4A8G7msnpdJrkGsc3NjaxrbeXZDLB5MQYhYJR810Auq4xMT7G2bNnaGhsJBg8gsVieapKQZvCvgd8Pj8vHXqZ8bExUqnUYrzzEsaDnUgmyGYyRqLE/DzFUomV42BZlrAo1lWf3yupZLKS6rjkHFqQrj8QwOf1GePbTLZ2tJYsY7Na78tbrOtGmGyt6SarzbZY+CCVSpJMJhdnoBf+liSZUCiM07G+KZ/NZKrKTi0ghCAQ8LNv/35KpRJnTp9iYmJiVeDOlUsXsdls9PXtoqGx8aEWiHjUPD2vsAfACy++xPYda8+7LqCqKul0qqawcvkCiWTyW8eKz8xMc+XypZqx3q2tbTQ1NwNrZhxSKpfIZDPo+tpz9HdDq6Se5nPVZr5isWC32xe93blcjmx2dZ2yBa/43UzxdPrqwG0AAA3kSURBVDpFoka5KiEEbrcHh8PBhq4u/v6//Tmh4OrZhUKhwNDgTf71l79YN+CoHnmqe+x4PM7Q0CDzc3N0d3fT3tGJy7V2eGhTczOhUAhZVlCrKnoYIl3wwpbKJebm5iiuiI0GQSIeZ3x8bN3gl7VIV8bxly5eqBK2wHBIdXV3097RgRACm81e0+OdTqWYGJ8gk8nidnu+1Thb0zQSiUQlmmzpDt0uF55lGWbpdHqV80tgJHoEKnPYtVjIhsvlcuRzuVXbhRD4An4cDid+f4B9+/YbCSDlEvNzs4tt0nWdaDTKmdMn6d2+HUmWaa68+Oqdp07YpVKJdDrF1NQUt4aGuHjhPHNzs+zes5c3f/jWusIGas75LvwUCoXweLwUi0UikciqMEqASGSeocGbJBJxAoHgPRVpWCgndP3aNS5dvMD4WHVIqaIohBsa2NDVRTjcgCwZ9ckWes7l++ZyOaamJrk1NIjT6fxGnvFisYimaRSLRbLZzCqrwe3x4PEY+dGappHJpMlkMlUvN0mSsNnsuFxrF3o0psoy5HP5mvPRQgj8fiNf22az0dzcwouHDhGPxUjE41XtKhYKTE5M8tWXX+D1ehfnz+udp0bYuq5TLBaJxWLcuH6dDz94j4sXzhOPxbDZbczPzbNv/wEaG5tW9WILwpibnSUajVAurzSDBUIY2VE+v49IJEI6lVr1UAqMaLVrA/3cuHGdHdt34g8E1nXqLAgpMj/Phx+8z8kTx1eZ8U6nk/0HDtLW1o7dbkfXdRoaGvB4vFgsVorFBZNZoOsayWSCLz7/DL/fj8ezfq+t67qRjFEokEoZ0XWpdIpiYWmBwoXWuN1u3B7P4nedy+UorXi5WSwW3B4PsrK2807XdWKxGLl8rhIjvuJFWnlxLfT4iqLw4ouHGLtzh9u3b1ViB5Z/hyrHj35NS0sL3d0b6eg0Ks7Uc1TaUyNsgM8//5RjR49ybaCfRDxGLmuYecVCkYnxMb768gtsVltVdhIsFQv44P13OX/u7KrzyrKMx+ula0MXTqeTocHBdU3t+bk5/vm//r/8Nz//OfsPHFy310ynUty8eZPf/+43DFy9uspLLMsywXCY7//gDVrblhaLE0LQ3tFBS2tL1coZALlsjuNff43fZ9TjXi9eW1VVopEI77//LsFAkNa2NgqFAqq2uif1eH34KgE6kcg8uRpmtM1mIxwKVwJsarNg6huhuKtRZJlwKFw1j26xWDhw8BmikSi//fWvap7z1MkTOF0u/of/8X+6v1mBJ4CnRti6rnN76BY3rl9jYmyM5XOrCz3MyePHKBYKTE1N0tbWhiwrFAoFZmdnuHr1CmdPn2JqcnLVud0eD888+z2amltQVaNHXM85ls/nuXVriD/98Q+MDg+zbft2mltaaW5uxmazkc1kmJ6eZmpyklu3hrg20M/Vq1dI1bAC2js6OHToFTZu2rSYPrrwwPZs3kL3jesrhG3MuyeScU4cP0oimWBoaJCu7m5aWlrx+/0IIZiZmSEyP8fo6CgD/cZywodfO0JjUxORSKTiY6jO7nK73Xg8HjRNIx6LL+Z9L8dqs+EPBNaNeNN1jWg0SjZbLWwdsCgKbo8Hu33Jh7AwPOrs3MC+/fu5euUSw8PDq8bnM9PTXLxwgWNHv2bvvv3rFqV40nlqhA3GW11ejPZa/bYeGR4mk8kwMT5OV/dGFEUhn88zNTXJxQvnyedyq3pii9VKc0sLr7z6KqFwmGQyQTKx2pO7HCPrKcfZM6eZmBjn1q0hOjZ00dnZid1uJ5VKMTZ6h9E7Iwzfvs3kxPiKEA+DUDjM7j37ePmVw/h8/lUm9aZNm9i6bRsXz58jkVj9shkZGWY+EuH27dts3baNDRu6CIVCSJLE+NgY09OGH+LGjWuUiiVePfI6FquVWDRSc+zrdhtjbE3TiMWiNZc3stlsBEMhZGVtYWuaTiwSIVcjwMditRIIBFBqmPJer5fNW7Zy+NUjpN75A1OTk1XtLBQK3BkZ5sMP3iccDmPt2XzX6LcnladG2EIIdu3ew+1bQ4yODK/Zo87NzjI7O8vJkyeWjl3nnMFgkN7eHTz33AvYbDamp6aIRWP3NJ2l6zqTExNMrLMIoFjxr64b17VYFPbu28+hl19ZNXRYoKW1lR07drJ9x07Onzu7TGhLd5ROpbg+cJXrA1crL4/ajkEAj9uD1WolHo9Xha4ubvd48Hq9y0zxFcLUdew2Ow2Njeua4rqmEYvHyOdyq757Y+WPEPIafoGmpiZ++NaPuHLlMol4fJVXPhaLcezo1+zYuROv10dHZ2ddmuRP1Tx27/btbN3We98LpC/g9nh47vkX+Kuf/WzRw5vL5VaV6HnQuD0eXj3yfd7+8U/YvXv3uvv2bN5i5Iu3td9XgIbVasXhcKCpKnOzszV7bIfDgcPpQNM0otHYqnluAKvN6HHX7bF1nXgsVnOqy2Kx4Fux8sdyZFnG7fHwxps/ZFvv9pr7qOUyH7z37pqVXeqBp0rYbrebPfv2cejlV7BW4plrIVb8WYmiKITCYX7wxpu8+toROjs3LOZT53O5mmYvsObKHSuvt9a1LRYLm7ds5kdv/5i33n6bLVu34V5WBqkWHo+H3t7t/PXf/C07d+1aY3/jaqLif155/YX8bZvdTqlUIh6Po6paVUSZAFxuF26323B+xePkV0SC6Rhj7GAlFmAtdF0jHo9XLIzqKmk2m41QOLymJ9+wZizs7NvF7r17ae/oqHF+nYnxcU6fPMHZs2fWbMeTzFNligsh6OnpoXj4VaYmJxkaGiQei9WMEFvrHD6fj7b2DrZu6+WNN99iU88m7PalcVounzOcZyuOlWWZrdu2Geb35CTJNcRf65pWq5VwuIH2jg727t/P88+/SPfGjfcUXKIoCoFgkNdefx1JlnC73QzevMnc7Ow9VypVFIXW1jZcLpdRwD8er3jFl5xnFosVl9OF3W7UAk8m4qtTXSuBM8FgaF3nmabpJBLxVWN0gWE53G2heyOWvJE9e/YxPTXF7MwMpVKpEm1ntLdYLNLffxWP18uWLVsJhULrLhzxpPHUCHsBt9vDzr4+/uf/+J/4xb/8M5cuXiQWi6JpGpqmrRKbJEmV3ljCbrfRt2s3r3//Bxx65XDNxIJ8Pk8imayqbW3U4XLwd3//D0iSxEcffcClCxcqAR86OvpSeqeo9JzCOM5qtdLQ2Mihlw/z2pHX6eru/sYreMqyjM/n5+0f/5Te7Tv47NO/8OnHHxGLxSoPvL74x2iCWPwjSRIej5edfX2EQmGmpibJ5bJYLQpy5d4XKqI4nS5kWUbXdXL5fCUCbrn5b+SCB9bxihtt0Mnnjd5+5fDB5XITDIbWHaMvsGPnTrK5LBcvnDcWHShVv8CTiQQ3rl/j9OmTvPjiS4RC4Xv8Rh9/hP5dDgYfU1RVpVgsMjs7w83r1xkY6OfO6B1u3R4iFo0u9mROp4vW1lY6Oztpamlh167ddHZuIBgK4vF4a0ah/frffsX//X/9n1VrOdtsNlrb2vjP/8v/ypYtW4hEI8zOzDDQ38/k5ATJZIJYNEaxVMJus+H1eXE4XXR2dtLV1U1Hewf+YACfz4fN9u3L/SzUIEsk4kQjEQYHBxkdGWZ6eppUMkkmmwEELqcTj8eD3x+gs6uL3t7tNDY24g8EiEYiXLp00chcqzw6kiTh9XnZ1ruD1tZW8vk858+fMxJhlgWoWK1W2trb6du1e8155MWpxxPHia9YLFEIiWAoxLbebUaJ4ru84DTNMOlvDQ0xNztDoVCome3W1NzMlq1bcbvXH9Y8STx1PTYYPZjD4aCjoxO320N7RyexWIz5+Tmy2QzlygJwNpsNn89HIBDA6/XR0tqK2+1eM1Isn8+TzWTIrTAhZVnB7w/gcNjx+f14vF6am1toampeNDmz2SyqqqIoCna7HavVij8QJBgM4vN6EevURLtXhBA4HA7sdjsNDY2Eww1s3bqVZDJFvpA3Ytsrpr/NZsPhcBIMBmlsalpcmysUDnPg4DOV1UCXenirzbo4j26xWOjt3U6pEoK6+D0oCg67/a5DCEVR6Nu1m1KpWJWeKoTAYrXi8XjuqfKLJEn4fD6j5850o6rqKmELIZAVGZutvsJMn0phLyBJEqFQqKruWC2T9F5Jp43Y6JUVORfGuRaLdfG6C7XVHgWisjRvY1MTjU3fbDWLheyt9ZArSR7307Zg8MHU85ZlGafTeV+rkj6JPNXCrsU3FfNyUskkuRppiopFIRxuwPoU5QObPFqequmu75pkMkGmxryoIsv4/b5KyWATk+8eU9gPkFQqtSrgQccoQBAON2C1mj22ycPBFPYDJJVKkavRY8uKQijcUFfzpCaPN6awHyDJZKJmKSBFsRAIBk1hmzw0zEHfAySbzVIqlaumToQQeNzuxWV0TEweBqawHyB79+4nFApXZRQJIBgK3fPcq4nJg+CpjDwzMal3zDG2iUkdYgrbxKQOMYVtYlKHmMI2MalDTGGbmNQhprBNTOoQU9gmJnWIKWwTkzrEFLaJSR1iCtvEpA4xhW1iUoeYwjYxqUNMYZuY1CGmsE1M6hBT2CYmdYgpbBOTOsQUtolJHWIK28SkDjGFbWJSh5jCNjGpQ0xhm5jUIaawTUzqEFPYJiZ1iClsE5M6xBS2iUkdYgrbxKQOMYVtYlKHmMI2MalDTGGbmNQhprBNTOoQU9gmJnWIKWwTkzrEFLaJSR1iCtvEpA4xhW1iUof8//6dFEyl/6PWAAAAAElFTkSuQmCC;" vertex="1" parent="I79zV8GsZZfp62jos5SP-49">
          <mxGeometry x="40" y="7.71" width="106.78" height="62.08" as="geometry" />
        </mxCell>
        <mxCell id="I79zV8GsZZfp62jos5SP-46" value="&lt;h1&gt;ML&lt;/h1&gt;" style="strokeWidth=2;html=1;shape=mxgraph.flowchart.terminator;whiteSpace=wrap;fontFamily=Tahoma;" vertex="1" parent="I79zV8GsZZfp62jos5SP-49">
          <mxGeometry x="25" y="78" width="140" height="42" as="geometry" />
        </mxCell>
        <mxCell id="I79zV8GsZZfp62jos5SP-47" value="" style="shape=image;verticalLabelPosition=bottom;labelBackgroundColor=default;verticalAlign=top;aspect=fixed;imageAspect=0;image=data:image/png,iVBORw0KGgoAAAANSUhEUgAAAPkAAACfCAYAAAA74n/XAAAgAElEQVR4nOy96ZdkV3nu+Xv3PudERM5jTapZKlWVBhAaSgwSYpAAgcFYAiNsY3xtNba717p3re7V3/2h/4D27dV9lw0YhDEgBFxjCwsNSCpRktBUmqo01DxkVVblPMZwztn77Q/7RGRmVcFVAevaSPHkyqrMyBhOnDjPfqfnfbeoqtJGG78EqoqqIiLhd5q/E25rXT3h7957RKT1vfx5gBW3tfE/B9G/9wG08R8fgZiKqsd7D3jEGrwXvPMAGBNhjMEYQ9tu/MdCm+RtAMsMcuv3pVsEDxq+I2tQDBREjiILyAqL37bW/7HQJnkbLShNsgeKCyBNsgsYBPV56x4qFvXhUYHczWdpk/w/Esy/9wG08R8Hes7/rdsLKw0KoqjPcHkd73IUXWa59QKPbuPfG21L3kYBBVKUGFXBkGFEQWMERSXHZYvoiQNMHdrH2OnjlCrd9K7dRO+WHcRrLsXFXYDFEBJzYWFwKJYMwQK2eDVZ8bqF/3BOLO8wiCiCYnTp/stzfbrsmaTwPaTtSaxAm+RtFFAgAyJQwUiOAN4nqHrEV5k88AyNh39I4/CLlOuTiESMVfqYu/wGVn/4Ljoufy8+6kCdIMbjJceQ4aRMjn3LbqNqILIXj3COu6kh0YcInubyEBKDBtoEvwDaJG8jQAXRBERQAS8GRXBWiX0MJw4x/dN/ZPHgy5Trc3TQIBeIs0XSl6YZayyy2VrMtlvCOkGOoREWDPXE5q2TXCRQVaWZFzCohFyfExOIvYzLSlgIdIVdb6OJNsnbAAoyaYzi8CYDjfEIHkdtfoLJp39K6fU9eHEY63G54FVJaFBq1Jh7fQ9TazYzuOZSfM8Q4DF4kAoGBV9DJKblsLfq7kKLscsZqopVD4V9DvddlgjUpoVXVjjt7cz+eWgn3tpYARVFcaAGsIjPqJ3az8KhZ+lvjGOyOQwZsSoJBuvBaE4pm+fMvieY2vcgUp9CVCCP8GpAFCMpIT5fir9/VYpOAVUTzLmGWwyKUY/1OZFmWJ9hfY71DqPZ0gLQxgq0Sd4GUJBKcjyKkgBCpBDndeyJ50nPvskiYESQNCVyGZopjpiaKeGkRGNihOmXHyCbGgkkNx34YtGQ1tevOoblX+BFcICDIv72iLjwXWT6Q3gR4SUpovI2zkX7rLQRIIAJSS31IYoTdZh6DR3ZR8ktMJf0gJSJ1RDhMVGEN5ZcQZ2jI69TPbSPiddewC9OotajErLrqmWWImePFmxXLb4LuayqR9WBOowGl9+IJ3gBOSrhsVqQO5OIVAypGFSWXPs2ltAmeRtL0EL+ogSX3TfQ6iwydRrrcuqmC68xYhMylFQ8iqcEVLRBJU+J5+pM7t1NOrofxzyiDtUI7+MiBGgm05Zp4fGtOrygGFFEPOJTjGagGUqOx+OQ8K3gNGTYwxLQLK61XfZz0U68tQEU9k9DjTsxHiUHUmqzE1Tn5rGZkhgD3uCtJcWC5FjnSTQHqeO0QpQb7JEXmN27lp61qyl1X4bHoCJIkSBrqupar4ugTaqqgvpwX5PgEFI8HoMRwSCIKj5rYI0S2bA2eVVEIpYq8W000SZ5GwEKeAPiMOLJUIzkLMxM4DKP9ULicgyOTHOyqARxGdIGeb2BTYoClnP0VseZfuER2LSDVddcAqUKalyIqTnHpRZCHb6IukWLCFwU5xU1llgE1QzyHOMyjPOFyi7o5r0JJT+wbW/9AmiTvI1lCAFySJUZbO5YmJrAV2uUAbSBJQVjyEpdlDfupHr6GCVXK4raCSIO41KiqVPMP/MIA+uuJVpfRmW53m0lmhZeAIxHNQdVjKtDlkNjnvrUaWZHT1GbHsfmSrmzh/4NW4nXb8ZUOkHlvPp5GwFtkrexBOvBg2qEGINPPdWpWWxtgUQy0sjSlWVATNw7yMAH7mB8/9O4Z09iqhVsXKJhHNO2g8gYOPwiE6/tZs3gMKb7EpCist2Mv1f0qGcYl6M+xWUN8sV5OPoKCyNvMn3qEOnkcWRhmqixSJ4ZJqN+xtZdzsANH2HN9bcQD1xCm+EXRpvkb1doSEUtXfjBTfaystusaUFb9DCK4ImdItU57NwoRhWvBlNk4DOEctcqoksuZ7hUYfzYPvypUZQUiRyZKSNZgw43Q33vbtyGK4muvISmAN0hxHkN8RnkGS5dIFsYx8+cIR07w5lTJxg/c5Lu6WMk8xNQmyPWGolPifI6uSbEdpb02DSL4nDrNqL9a7Hy1lV17yS0Sf62hqflw4q0yO2XJCmEyLaY6qICoggNrLMwN05p/gQNNaAJSa7kItSTDioD64h7Bkh6V1N516eZmfseUWMUT4Mo6yDG4l1O5/HXWdy7h/LGd1Hq7AQRbJ7C1CiLoyeYPX2M2uQJ0vGjRNOnkLlZrKvTm9WJfEbZOUrO0bCCF0MuZXITIb5BVzaOPb2f+sk3ia/84EWo499ZaJP8bYpm7lpFyAnEDgR2RBAkp81qk4CKxWEDUYritS7OwNxZ1AseISYnN5a6WKRvFb7cjXQNUX7f7fjTe1l4c5yerEacZzgrNExKuTHC+KsP0rV2HavWbWFx6hTTJ14lHT1LPjNDY24c05iiohlRVifPGhgLnSI46UQ0dMcl3uPE4ImJVPCS0Mgh7vCo9SQ+Att21y+ENsnfzlAbJKWElk8IHrNREG1qyIu7IqRisBhi7xFyFqcncFNjITEmIOQ4IzSSDnz/MCSdNEyJ6JLN9L/nZk6dfpNksoolJvcZxErdOfKZEU4/9n1GbYUomyZeHMXXHKKeMo7Ip1g1iBdKkUVEcD7Bk5BLDrZBRx7q5zWr4ONw/DZisWc1G9ZfingB05auXwhtkr9tUTReqhI1haHavN0GCWhzEGOhI3dFdSvWCO8Wqc2OYeuzeE0KTXuOmBJx9wB28BKwFtEMk0QM7LiRxsFXSJ85i7gEFTCugYs6EeeIzh7C4ilrRpzVSK3Bi8Eai0qJFIMYKHslz0FtgpiQQ8hMhPGFSi4CJ1EYRdXZSenyD2DWXAbiW/3l7XbTlWiT/G0KRXASlGURtpjJFsicC60EnAgYDdXrTu+xOMgbZIsjNGaOEekCDSnhyEldDj6hu3uYjr4NGG8oexcINryVDdfdzvHjR6iNjlIRJcqFNO5EnKdXGnjqiFqM6aUUpXif49IMoxEiHo09qSg2slibYbMauVpSStSjHOMtNi/jogZZ0kH3pp0MXv9JTN/6ove8TfALoU3ytyuKgQsg5CqhzVMVxIUsuChBPxYhYnAqiPd4QjU7X5xkcXac2AtWcqwBsTGKIensJ+4exmgJMDixSKmMbHoXydW3UVv4Z3RhFmsEk9dJFMrO4eOIlJjcGzR1OONxscFIUNC5Sifa3UtfJcHOjCFTY3g8HqFuDZEYjDdgSpQ276DnptuJhreQSwkvnkjaRbQLoU3ytylEFetzEIuTiJwwjMFgiNQhmiOieI1QSUASGtZgHJQlJltcYGF6kV7tJdYaog4hwduYcm8fcW8/mBhnLHVRIjzR4Hp6b/g46am91A+cpJwpJV3AeINqhcxFpCbCRxZsN/VYaXSU6e1ZxdDabZRWb8WsXktnbYqpJ+4nm5lEXAMrhhTFW7BiSYa2sPr9nya54aNo1I2IBOlse4bkBdEm+dsZGoEvJqyZkGkP6KAIYBEJLR7GN6gYD97BYpV8bIT61DS90kVMhvcerzGadNAxOIyWyyBFb5gEd9/FCaUtW+m94f1MjR0kmWogpkEWd1CPhqjZlMxYkq4hKut2sH7rTvq2bEeGL0VKg4gt0Tj9Cocf/Dn56Eli9SRiKWUZedlS95D0DDJwyxcoX/cJsqifGp4IR6lVQGuz/Fy0Sf42hTYlpMYjkmMkIyTdDN5HeKeId2FEk1tEq9MwcYR8cpKzhw8zf2Q3XY0zuLxB3dSwAlbK5J29lPtXYUjwkmPFUg7DmkMbaByR7HwvpSOHmH/ucRplh+9cRT6wlf71a+gaWkXvqo3YoS3Q0Y/EnajpASxudozZZx/HH3yVSn2O3IBTC87jM0veu4ahD3yS/l0fga41iFqSSMJYaFWCWqeNc9Em+dsWnswaRENt3JK3YnRDCj5DZyepnj3K9MibVE8fpuPwC+jsJPUspezOYp0nx5BHOaIWmzvyjh5szxCiEY4UgyNRR2sBEYNbcxXr3/+HuMo6TG+J8rrN2KEtRD0DSLkTn5RpmLA0RN5jnIPJw0w+9RPS539C79QJRBssRha1MRJ3kHSuouPdH6X7pjvRvmHUWtTHSO6IjITEHXJ+A0wbbZK/bSFgyHGA0RicRdJFdHGSxsjrzB/fx8LR/VRPH8LPTJD4nJr35FkWOrbVE0lMp+1kVjKMcxiv5F19aF8fjQgMCSoe61PAIGoR14FGhu5NuzBrr4IuA3ECPgl1e2NwAqao3qfiKdVOs/DabqaeuhczN0ISeZyUSIxF8zq5NWTbbmbDbXdjV28FUyV3NTAx1kRYBdGsaIJp41y0Sf47ghA5eyDHqBaqDwNqUCkGH3ltTTUVhSibw9YXcLVZ6mdPUj1+gOnjb1AdO0I2c4qkPkWnTyllKVGmVG0ZiDA2QrRClivO56GUbiLSxBJ19yOVDlJxlNRiVMBEYdyTGsSEsVFS7kKiMllk8AKxhOy95A5rFCMWp5Cndab37ebE4/fSOXMEweBMFN5EltEodVK5che9t94JAxtRjRFNiKyQq8f7IJ4xYttKmF+CNsl/hxDmpgRtuWIQkjDsEIdXxXgBUwfnyMenmD3yItWTr5GOHcafPoidHSNqLNDhc5woasKGhbkPWyKU1YP1NHxGJgZNIrwKaiPqtky0agNDm96NLfUTYbCihe49CvL4ohyfNLlmI6JWPT68HqpYUtSDyXIWD+5jYs+PKI0fwmRVPBUiFUxTELPpSko33UF02VW4cgfWC0IltKKa5nkJU+RM4bC3sRJtkv+uQCHSMNfMiQvkUosgqDeIA1GPju1n6tVnmHn5VbLpN6lOjJKkUHGORFOsyTCS03CKNwmemFxiTCR4cnJXx4lHY0OWlIl61lFZfw2dl15P7+XvJVm1CcqdlNMU4hhkpQBlhTFtzU0PC1QmgpoYSImcQU+9wczPvom++QKVtIaTMs54kDzU9dddyYabP0fp6g9QK3eF6TK+0OBLU9PnwoYL4lDi/7mfye8I2iT/HUGYXQ5iLEqFptuuHnIskeY0zpxk7ukfM/bcg5jJcWK/yEDuSSQGB06UFEUxlIxFfIiPcyssiJDGPdiefkzPAJ1r1rNuw2VUVm0iGr4cGdiCKw/jRDAGRPOLfxPF5gjOG/zoq5x+7Dtkr+2ht94gzx0kFhcJdY2prNrCwPs/S+mqj5BXhvEoybK5raF6YIqJMg58iogN7kQbK9Am+e8IFEWMgjchDrammMPmyGyJbGaMs7/4F/I9D9A1ewTRBuorRCKIr+JFISqRS4JogiBYgYaFvKNM+ZL19G28mtIlOyivvYx4eBO2cwgfd4Q6uNqWlc59jqBYzFt3jgUiAaOOxckzjO/5DtV9D9BVnUYcJFFMVR15XqLRs5a+az5C767b0cFN5AgxHksWJsqKBTF4ijxAkdlf9lJtLEOb5L8rEMWRYUggF3ILVsKwRSeWxZFXWHz++/QtTCFOyJMI8YaGWlwUgQ0bFfg8IjdlqnE3ds1Ghq68hlWXX0lp9Xro2ghxJQTVkcWpkEux8aAq1tcwXonjMJf9oqCKOIimDlN//FtUX/gZydxZxDqciXBapkYZ6Rygd+cHWHXzXeiqzeQmJhKP8TkUCj4V05rSGqLwEDaYi1l03kH4rZB8+Qb0vwmWP/7cHS7f6RvbNzcbQDzGCl7C+bZGsK6Bjh+lc/YQWaoYKeFyi5iEzCi5OKxPMQqVUpn+rTvpes8tcOk1uP71SO8wuS3jpUQsBvFVxAuRifFF3G9FiayHyOM1J8MQA+YtT0dVXG2RdP9TZM/9C6XxswiCN4aGKt6ldHb2kG17H5s/8gWi1VtITZjTborprUgU9mgr9mlbmukW+syXj3puYwm/McmbBPfeY63Fe7/i72FzemmR1jm3grDGmHc8gd8aDEKMWAUTdhFRLEiZxDfoIMerkMaCywXJYzQyWJNhyTCaIlh8XmVhYZba6VN0DGymc2ATamLEWIQ6TiEyMc7HqBOsFCUxCRNSvUAuhiz0tr31WSyqLM6Nc+aNvXSPHSNyFiXGiyc3hkpJ6ah4yjfcSrThCjSJsMWQC6NaJBxNMdhCEIVYFRXFF7LaFVMw2mjht+auW2tbRF5O7Cbpm2SOoqWX9N63HpOmKXEcY61tPce51vydjaU8NShFy0kYoOBzbPclpH2XY06+QqwCpX5w8+AyVCA1ZVLCpgSNE69jR4+RvvIYMxt30nHFLio7rqe8dhMa95FqhCtoUzJgfNjWQLF4EgQI+6Fc3OdjKiWS7j7ypIeskZGopeyUVCLqjVlcaQ4mj9LpFkmlC4MvSnRCLlFrYwWrYHBASti73AadvtCulV8A9m/+5m/+5jd9kuWENsasuH25pW7ep2n9jTEtIkdRdJ5Vby4WbUu/NHxRVDAOwCEKYFETkcQl5ifnsFNHwGfMOktELQhntIQWe4WJKCWTE+eL6OIM1ckxpk8fZfro62QTxzF5nRhPyUQkRsCFqXAhj23xPpDMajEtRlaMgfyViGNLT8kwcfoEeaGyEw85BjFhO6RclK5Nl5H3bUKCzUYw5EWiTRRiH9R8IllQ/aCIN8XxtGWt5+K3QvImUZsEb8bnyy1xlmXU63Xm5+ep1+uoKtZarLUryA7t+PuC0BWb/KLSnOJmyUSw5S46eldTmzjK1Nw0GscYamGAoyYYtVg8lhynGQ2EPErwXrELc5RnzpKeeo2Zgy9SGzlCfXKCSmywSYxEERoFdxkluNHqQo38LZM8LAq2VGa2mpEffxWpz6A2uNxWDcYJrjaBdvZT3roLiUpFMs2jElJsFiHyoT7ujQuyXSziotCgchGLzjsFor+hT7z84U0rba0lyzLSNOXgwYPs27eP119/nbGxMRYWFojjmM7OTtavX8+NN97ItddeS39/fzigtuW+IFRDnRzjyMnxGCDGKiAubE7ooDG+l0M/uQe39wk6sxlsVg8NWk29K4oTh0aW3HtiiSiTkFdTxHhISixKQr1/AzN9G7nstjtYe90tVKMO1JYoExGrhunKQtH59T/+vFQ9aIbUG9ROHGLix/8XiwefCNJbb4mlkzxLiCqW6c3vYeCO/8LqHR9ATITRFG8UJEhaJQexjrpJQ3lNY0qZgUjf8vG8k/CWY3JVt/RzM93SGgKohevo8S7n7NnTvPLSyzz6+GPs27+fmelpFhYXyfO8NU9MROioVHj4kQfZumULt956KzfffAtr165bEZc38U4n/op3LwqYFtFEQzLTWQurtnP5p+6mseFKTr7+Cunp/ZSnDlHKFjAqOFNGsUjuqXgX4mpVEmOxmlNPM2xXL7ZzkB3X30Tvxu2cPDvJ2PxxNm3eQrmzuyhdhX3HRQ3G2+BZFFsfN/PunpDZFxwxLuxyEpcpDW2gdPk1TJ1+ldL0NIkXvOaISfDVOnZsBH3zacwll0HvalQMwtL+4yIKGgZbGSSU1KyuUNi1sYSLcNe1ZbWbwwdEBK8e9b6QVzqef/457vnGN7jv+/ey//X9TE1MUKvVUN+sbBbpI/U4l7E4P8/p0dO8+uorjJ4+w5rVaxgcGAyuf+EktK07FAEnEJoxDAYrUnioQRASSmolTMcQ9pKdVLbdQOeqtXRGDrIatUZOgxKKJVZIvEOcghicCI3YkvatoeOKD7DuQ5+nc+dNvHBskn/41nc4cuAAN777XfR0dbQ84lxciIXz0CTjJCOlAT7CiMUXO59Cg4g01LOJIYqgJFTPHCc+cxzrIhwWb4UEj89qZI0FOjZeSjy4jtxUwghpDE4tBh+y/QXNLWGsVci7mXYZ7Ry8ZZKLLKuHG3uelV1cXOAnP7mf//b//b+88NxzVKtVXO5w3i+RdFlgIFBMJhGMCLVqjZMnRxgdPcP27dsZHBwMiTr1bZI3UWSPl75Y9tPSz2IiTFyi1NVFxyVb6dj5ASqX3UCjY5iphUV8XsP7Bt44MiO4ckw9SpjdfC2bPvWnDH3oMyz2b+Bb//wA/8/Xvsa+V1/kyh3b+OgtHySJyygJORGCBReScXkk1MlBBCslIgSjYMUQEyFZjDPB1BqxmJ5htLbI3NHXQ4OJCLmNIHeI8TjNcEmF7vWX0agME/kgdilmQwNhk8RcwqaHRn2RI2iT/FxchLu+VB5r1rqluOAmJif4yf3/yr3f+w5jZ8+S5zm+cCFt0wCxRNgmvPfFROBQjFlcXOCpp54ijmO+8pWvsGPHDkxk2wT/FVguRFr+GSlhRxSxHWhnBbulh3WDG1n17puYOvgCk288Q33sMI16HV8ZYHDne9n23k/j+y5h975DfP+f/55nX3iR+YU5OuKY1cPDVDq6UInxGLwKkSsUZjE474lNDJqHLdV8MePd5KgavESkZCTiw8RW28nwzhuZe/1GqvsfpKQNvM+JrODxNBZnWHzzWWrbd0H/jlAiU4eJXCijAXiHNzEGE8pobVwQv1ad3BSkVe/Jc8fDDz3Efffdx8mTJ/G5wxpzXumseSGeW25r3qdJ40ajwdNPP83w8DB33303q9eu+S28zXcGVigGEcAi6rC+Adaig5tgYDMDm97DwNXvp3ZgD7WZKaI1O+nY+RFOTtb4yb0P8cjPfsbJE0fxLiUWT09PDwO9/YhJyF3YKjgyYX9Ep0FBnxgNs9Ezj8sWSSplRBuQLUJUwkVdUMTPIFifQf86eq/9GJzZi4wdwjrBaIT3ULKg44eZfe15erfcAr1DoQTo66gJc92DUdclu902BhfEWyb5csI2T6X3nueff44f/eiHHDlyBKFQRXlftAMuudnLL8CmcGa5Os4DkU0Ay9zcHLt372bbtm3c+fnPtRJxbfxqrPB4vCK5R4wF2wE+xyGojckqCZ2bdpGs206vpiAVdj/5Mvd8/R7273uVLK2TiMNYodbIsFFC78AwXg02CkJWn2ehnBaDU4+r14iiEs/+/CnmanPcfMuNTI6foLx4ip7+VZietdjSavK4izwSSppjpIeuSz9MdfWDzI+foqdcpZZ6JIVKPSVLa8zs+wXRlqeJrvsQtlSmuQGyIqhYrEqRUA8xezvtdj4uyl0/1zU8e/Ys9/3gXg4dehMjWggnioutEEpEUcTq1avp7u7GGMPc3BwTExNLSbymi0lw+QShu7ubHTt2sHXr1tZ9LuSyn1tbX+6uXujvF3rchf7+6+KtViPPc61/g+M5N/xZuk0xUYRq+FmjEl7DdJnIgNMSNupHgJmZOX764M946dUXcFkdUQ/qaOSKxAmV3l76hleTGwPekYgSGYd6JfMerAUrPP3kk3zt61/n0is28/4PvZvx0QPMP/2vdCL0Dm9hcP1lJMOXkAwPYzo6IBkm6e6i56rbmDpxgHz6FeqU6SxHmKxG4oX61GnSN55Atl2KDm/ES1JsjmpwmFAzNw7X2lyhTfNzcRHuusGzpDvPsoznnnuGF/fuJWukhEqMLineROjt7+fWj97KrbfeyqpVq4jjmLHxMfb8fA8PPPAA4xPjqPe43KGAMZaB/kFuv/12PvvZz7J161aiKPolBPd478IHu1wAocp5nGl6F+GX4ib5rTTVLCEUls6TTy8/Flk6xubxqC5Jfr3/9ZOMzfeS53l4DivkGkQjxrsgCxWDqJBohlGHGMGRMDVXZ2xymqrLEOOLbHWYZe5EsB0VOvv6wsYLTaupOSoWMZZ6lvLSs8/xta9+g32vHSAZrrDYqNFbKWFmR7FnRnAH9zORKNLVRTS8DlZtJVm3g95LttO9dhNrt76Hxi8OIlGFmnd4MZQ1IqnNUz+wh+rRq+np7adRWk0JaPaciYQe87Yd/+V465ZcwEjoCvK5Y3Zmhuefe46J8Ynwd++JoghVxTlHqVzhzjs/xxe/+EWGhoZaLvqGjRvZsWMnl6xfz9/93d8xOjrakr9u3LiJv/jzu/n4xz9OR0cH1lrEXLgFQoQlN765qT2syMYv9xK8eiC8jve+RQZT5A9+G5DmP828g3MtcZCYYrfQAsZIi+Cw0gpfDMmbYU+zQSiO4/AZ4BBTyD81xYhHiEJc62ponuNsBRdbJharTMzO4ygDMUpWzJEDi2Wot4/hoYEQAyvkzmHEIGLJnefE0RG+94/f59WXXqORKePjM0zN1FjVt444ttCYQ/IZsrhCfWGG+ckR0iP7SeKHqHbEJJW1DLg6LoLYpDQgbPpAjPEN0smDTL34KN2brkTXrkPxGFc0x4gWYzBoN5r+Erz1mJxw4TrvMEYZnzjL8ePHia0JA/UMaLHztbWWTZs2cdNNNzM4OEwUhbE8IiAGursjPvaxTzAxMcX3v/990jTl2muv5a67vsjVV72Lzq6ugpgKzl2wU615cQu0ZLFNkY0ryNW6jwi20MY3LV4cx63n+W1gRbttofxbLvN1WdY6rqXjsee42CurGBeD5gLb8lgEGqpEAokoRnOCvyR4EyGlBCMJmXrmpiZYnJ8k0tBzLmoQcowocRwz2NND2QjWu7CIRQm594gzjBw7yTf+29d58RfP4tMMYxLqszUmR+fZdOl60lIPaQxKjmpGrIJ1QqVWRapTmIUGuRllKhVKqYDOYZKE3FZwAmqUSHPcsVdJTxyAtdcDioqgDnxzvPxbbnl95+GiYnLfcm+VyclJJibGSdM0WMRiEWgOEu3q6qGvrx9jI7LcYY0tLvpQZ+8fGOT3f/8PmJ6Zpauzi09+6pNs3rQZa4ppgBLiq19FQVNYR+c9qDI/P8+JEyc4efIkExMTTE1NkWUZSZLQ2dXF0NAwl156GRs3bqSzs7MVCvy2XPaW91CQbXp6mmPHjjEyMsLk5CSzs7PkeXzlY0EAACAASURBVE6lUqGnt5fBwSG2bNnKpk2b6OzsXOGy/zpY3kOgqqR5Tj1PiV2KKWajq0RgE6IoxlqINKM2c4b63DiRbyBqi81Pg120NmKot5+yjYjwOK9kPmTJTx89zje//jX2PP4oaX0esRFePfWFWcbPTJFcdTVR5xBTYrAlIcmDBRY1dBhPRkQ180SSolpGTQcRNfAZXhK8cUUQVCKZOs3C0TfovtYjNmzk4KPQV24xiDdBpNU25ufhokpoUvij6pWFhQWyguBNUYuY8DfnHCdPnuTY8RNs3LSFOI4xxpDn+QqrvH7DBv7zf/4vRFFEuVwurLLFu9D84J1D7FKnsJxD+TRNiazl9OnTPPLII+zZs4fjx4+zsLBArVbDFV4AgLGWjo4Ourp62Lx5M7feeisf+tCHGBwcLI6J1usUmrxlYfWFr5xzj6fpnh8/fpyHH36YPXv2cObMGRYWFqjX6y23WlUx1tLV1U13dw+XXnopH/vYx7j55psZHBxsverK4+Gcn5Z/JsW5iCKyLOPgwYM8/cyTHHxtHzNzi9RzQ6Q5kXegMHjJZu76ky+zc+dlaNpg9PQIiwuziEnDxBWT4IsJLHEpondoEGuL0heCiGVsYpLv/dO3efDB+1lsLEKcUs0XiSudzFenOXXqDN4ndHQNE9kOvM/DwEmjeHGk1QbGJnRWushdSu4aIBmZ8dioTCk3IFWclPCuQiWdxE+N4RZqSG+MEyXDhrZabEgwtgl+Qbx1kgvgw0hgIxGCacXZIoIKuDxHJMS48zPT/PSBf2Pt2rVs374jZNutwfum5Qztiz093YXlbr6Ox0TheW0cBWIU+mpD0yWGWq3GwQMHePihB3n66acZHR1lbm4e5/LWYgOQq+K9I45jpht1pqemGB0dYd++l/npAz/hE7d/gptvupnh1auCF7GCukVyTJbF7MsSa+qboiCYn59j375X+dkjj/DMM88wOjpKo9FohRTNHEDzjXqXMzOdMT01ydjYKK+/to+HH/4pv//7v8+uG3bR29eLSLNj25yXhV9y6xURJc9T9u59jgceeIBnn32WqckJXG2BRu7JNMZIiLbxyrYrU6RoVa2nKfMLVdJ8SbKsxRdeMYXXZaK4CEOEmZlJ7vve93j40UdpNDIkd5hYqMQJtdyRlrupoaRYWLWZWs8mdG4EG9UQ30BxJOUY1JDVG1ijxEbwkpOLCYuzZjjrKOEgrePiChJFWBbx2leMpPbheNW0vL42z8/HRcXkgZsGLQQScVJqEb0Zg4oI3ilpmvLkkz9ncHCAL//Zf2L1mjUhIC+ENCJSaN6XkmYsI0Ez4SateDvkA0AZHzvLgw/8lIcfeogDBw5Qr9dbXkJYDKTYZEAxRohsqKxS1PFdnjE7M83zz/6CI4cOcOCN1/n8F77ApZduw9gIpRDrFO2NylIWvmlf1StSLCBHjx7hJ/ffzxNPPMHx48dxaUaW50vlHFUiY7HGLIU8qiFGFiVt1BkfO8OTk+McO3yY2z/5Sf7gzjtYvXotYsKGBc6FSoKR0FMd9h5TvAthwf33/wv/+uMfc+z4saBiUy3qx0IkOXnuaCAYG9HRldDTXSIyjlq9xtT0HEiMaugXMBjUKaqexFiGBgawxqIiTM9M84Mf/JAf/vA+zoxPYrxSkgjJMkDoqnRx/fs+ykc+eTu222Kv2MUlmtE4+RrZ2QMsTJxCG3XUKzbPsJqHFthibpt6gzfgbI43gjZqdHphpnsD5dWXEHU4vAnWOybkGZwshZHNq7WNJbx1S17EmhQx7OrVa1i3bh3Hjx5Z4RYLgrVhNZ6ZmeFf/uXHdHR28cU/+mMGh4Za7qWw5F61Ph4tFpJzYtI8d9goLCBHjxzhH/7h6zzx2OPMzc2Fx4tgrSWKInIXElxRFBWuccikqypiY6RplVWxUczU5BQ/uO8HjI2P87//H/8nGzZsDKUia1skXkFyH+r5URQI8dJLL3HPN7/BU089RbVaBYKcsxlbNxfApeMJOQTvPRJHS3E4wWM4NTLCt7/9j0xMTvBXf/2/sXr1mpBzYCkHUbxpUE+tVuMnP7mfe+65h7Ezo63zIcV5U1VsFBEnSbFYGgYHB+jp7kKMUKvVmJycLD5aU1RHwutZY+nv66O/vx/vPfV6nZ/+9Kd8+9v/xMTkBBjBkeFCewkW4b03Xsdf/S9/zvbLL8UKRJuvYHD1WqjP4KbnWDxzkrOH9jH5xgvkY4cZLtcp5TWyRhVrIIrK5FhS70FTsqSTCe0nX/9utlzzQfKkA0GIvSyrZuSINC/lNsHPxUXF5FpYEO8dQ0ND7Ny5kxdeeJ56vR4uUtWl8ooBq7AwP8d93/8e5VKJOz/3OYaGVrWe7NzpMCJmmYtaQCCOI5xzvPLKy3zzG9/g+eefZXpyckWCSkRI0xQAa6JlWWtDkpRx2uSHINKU5AYXOveOJ598kjgp85W//Eu2bL20OKYQfy6/bsQokTHU63Weefop7rnnm7z6ysvUF6vByhburrVLmvsm0fM8DxNwoghD4RorGBM8mWb2PZvLeeCBB6h0dPGnX/4zVq1evZLggPeOPM/Ys+cJfvCD+5iYmAh1Tll6vTiOw3nJHS5zGGtJkpi+vj6SJAGgWq0yOTlJs8swlBWXzmlPTw+VSoU8z9m9ezff/e53mZgcK/oOQuEqwxElCddfdz13/8VfsHPrFsR5JLI0SDAdA2ilm7gnpnfdFXRtu45Lb7qd+vgxpg+/Qm30KPWJ07i5KUyjhuQ5kbWk1pNWBujZtIuNH/w0MrAZKBM1RS8aE7ZediApNJtm2liBi5O1SuGmSlCl7dq1i8cee4wjR44UDQoW9W7FYwSYm53hhz+8jzhJuOOOO+nt7QUEVSnkiU3LfoFVuLDEe1/Yy9///d/x8ksvMT8/SymJWxaneLHWsTn1RczcFIgU80OKenWeNTDLX0thYWGBPXv2sGnzZr70J1+ip7ePZlixYjFBqdaqPLnnSb761b/nzTfeICue71xBi3MOzJLoxsYRSpCBGrPU4ONcvuSGF/mNubk5HnroITZu3Mgf3HEHpaRceFHgfVicTp06xY9+9COOHDmC9564GKTpvYb3mYcNEMRYjLWkaUaSlOjrG0DEosX7np2dKRa1lYlEVU9/fzgPjz76KF/96lc5duwYEBKk4T0qcamT99xwPX/11/8r737XNcQ2DrogrzgbUVWPE0OvCqZUwZTWw9A6OjZeScdVHyafOk3tzAnSM8fIz54gmz6DyRrIQD/xusvpvOwGShuvQjt6wlwIPM1NkRQL6hHJIMh42rb8HFxkF1rTnTYYA9deez233XYb9957L1NTU4XLt6Qoa4pOoijizOgo3/3OtymXy9x++ydDea3l4puV1pJlqjVVjh87xve+911eeOEF0rRBqVQiTRvhDUQRWgg0rLVUKhXWr1/P1q1b6ejopFqtcezYMY4fP85itYo6F2L0QoPvvcdYSxzFTE9P8/BDD3HNu9/NTTd9sPW+pZnbV8W5jNf27+frX/8ar732WtgFVBTvl3ISTYJba6l0dbJp0ybWrVtHZ2cnC9VFTp8+zdGjx1iYX8S5nDgyWFlpqZMk5tSpU9x///1cc801XH75jlb+w5jgtTzxxG5efvnl1rnOnG+FBgBxFKMipFmGNbaoYlRYtWpVCG1yx+TUFIuLC4BiRFqhQZAkW4aGBnnzzTf49re/w+HDh0OHofcYKbrDrWHb9p18+T/9FVe9+wYQi9diyGPaILLQEYX57RgJY6UBsHgxmDgh6uql55LLoF6DahXyLEjrIo929ULciyNCfIbVBsQlPFF4ziCOCIpJ2gS/EC7OXUcLdzCs5KVSiTvv/DzHjh3n0Ud/Rr1eD7GuLMXnsQ3Wy3vH6Ogo3/zG14kiy0c/eisDA0PFc52bOXateHZ6epof3HcfTz35JLVqFWsNWZYVliSQNElKbN++nV27dvH+97+fTZs2Uy5X6OjspLpQJc8dx0+e4PHHH2P37scZPT1CmqZhvhwhXMizDCPCyMkTPPbYY1xxxVUMDAwUx9NsvHGMjIzw/Xvv5c033ghJvmLje4kMWihbSx0dXHbZZbzvfe9j165dXLJ+PR0dHa24vFarMTIyws9//nMeeeQRRk4ex2mhWiuWlLzRwBjD4UMHefzxx9my5dLWObEGJicn2L9/H/Pz8y3vISoUgN57kkqZyy+/nCuvvJKOzu7WuS2VKlx11VUFyTPm5uZI0zCTPaSzpLWYuDRj5PgJjhw8xKE3D6C5wyhENkK9I4odO67Ywd1//Zdcd/21odwZCifFOQljm60TYgFv/LLCoGBtXCxsgtoS2tkFnaEki3qEDCeW1CYkGgZekQcPITdKRlhows6uEe3tDi+Mi3LXV6qyFGMj1q29hDvv/BxjY+O89NJevPfBjfaKPcclFpTR0VG+dc89iAif/vRnSErl8HwSFG5SPLf3HvWO3Y8/xuO7H2NxcZ64KKmFuD3IVDu7u7ntttv4vU99mm3bttHX2xdELias693dvXjnWbVmNTt2bOfaa9/DP37rW+zb9ypp2iASUyhRLU5DcunFF1/k8OFD9PVdhzGBOM7l1Gs1Hnrwpzz99FM0GvWQ+zonrzC8ehUf//jHufW229i+fXuL3Oc2kqxevZrt27dz9dVX89Wv/j0H3nwT75s5hbBjiS8EPs888wy33norl122rUgcemZnZzlx4gStSkVL4Rcs+Qc+cBNf/vKfsW3bNoy1rVyHiFBKSoW8V5mZmSnOKSBh0XI+x5pwzC+//HLwErK0JXTy3hPHETuv2s5X/vIr3Pj+G7GJRQk5GYyG/IoBnA17uKmAIWwKQTEAYhklVSTstEpzjTAYLA5whMdL0TOeixJ66ij06wbl19jV5R2C32Du+tIJveH6Xcx8cYbx8bOMjIxgrAkNJDT1xIWV1pDwOnHiOPd88xuUSmU+/OGP0NHVFe5XNLlYa8jzjCNHDvPjf/7vnDxxItS9i3SqD/4gPT093HXXXfzRH/0RQ4PDWFsk3FqECv8bazDW0NfXxy233EJXVxd/+7f/N6+/tp88zVpudvPCP3zoEK+9tp+rr76aUqncstavv/4a99//r0xMjBf3t4WVD0q+waFBvvSlL/GFL3yBru7u1jGsLO8EL8gYQ29fHx/+8Ifx3vNf/+vfMnLyBD7Ll2bV27B4vPHGGxw5coTLLttWnEZlamqydRxauBDNBaerq5uPfezjXHfddUuvakwrGjBFLiDPc8bHx1uh2JLHoqAh3KhWq62JuiExCHGcsH7DBr7wpbt5300fAw+aO2zkMVbx4kkppDORYNSE0cvFQmNZkkY0ZwOGHVJ8y+32gNVwHryEsdNKBER4CTufWupYNaAJeTGhvc3z8/FrdWYsiToEjBAnJW754C3cfffdbNy4oVBHhQ/SqYaN6ZqSQ/Woyzl29Ajf/sd7ePbZX9CoVUF9Ma8sWKVGvcHu3bs5dOBgcCVbumzFWqGrs4fPf+4L/OHnv8iq4TVAc2KNDRnxc96aEhJQ5Uon119/PZ/+vd9jaGhohZVdrjc/cuQIs7MzreOZnZ3l4YcfZuT4CSIx4DxZltGcVdfX389dX/wjPvPZO+js6gFMSCy2svpm2be0MtM2Trjxxhv54Ac/SKlUOq9hRlWpVascPnyYhYUFIIQ+MzPT1Gq18xpbVJXBwSHWrF7XKneKiYrypBRNRrSy/ZMTE8V5W5LDWhuGNDbzCsE7c62KwcBAH3/xF3/OLR/6BE4SbFQmarreGmxvaJHJyMlIxZFZh4gnwi9te0QoCKgsJV9DKtYTqcN6RzH9DQ9kAk7CuQx0DzvJhHlvF87btvFrkhwKzi47qR0dHXz845/gj//4T1i7dm3IKhNkLsubLkzxUaLKa/v3c+/3vsvhwweXPW940lOnRti7dy8Li/M4Hy7CyFgolGzXXnstn/rU77FmzZoiy16Uu1hSg7XaP4O8JQydJJSWbrjhBi6//PIVuYClunrGyMgI8/MLLTf48OHD7N27lyxPgztbJMuMCEmScMstt/Dx2z/BwOAAKuCLdp1fhmazD0Bvby+7briB4eHh1nEsDwHStMHIyAiLi9WCnI75+QXSNG1l7puPA2FgYJC+vr5lJclgNpvCnqa4qFarFXp6t+LYWt15tlA4GtPKJ0BYDMrlcijRmSBeCet4cLGtRlhiDFFhWDOUDKsOq74Yyhg+E1dsc+TFgJowGspbxFvwthjrJMWyAV7A4onQYLsL49G0IW2cj99aj6WYiK6ubj71qU/xmc98hoGBAWwUFRfa0sUFFBZQiazh1Vde5oF/+zfm5+dbhFJV3njzDQ4ePFhk50Ot2rnQA71q1So++9nPsm3b5ctq30Wy75ySF62lJrTKNi3YmjVr2bJlS6sbDZb6ulVDzNto1HHOkaYp+/a9ysjISCt7nec53jlc7ti4cSOf/vSn2bRpU1CGaYg7f1WjiREhslHrmDdt2sy6detavzf/tzbo6ufm5mg0Gqg6vPdMtCzwUjwOoaFkYGCAru5uVMEXvQSwLHlfrNDT09PMzs6G0MprMVE3SHCXz/Hz3rcWFGstk5OT/OhHP2T01GEik6JSQ4txzN5HGK0QuzIlV6bsSlR8RInQKaYaoYX2wIsHcpS8oLGARqH+7ROgjKdcfHoZkTRIaBD5NGzdpBGOmHx5SNjGebiI/ep0xfd5txcZ3r6+Ae6664t86Ut/yrq165Zcz2ZYLhDFEVEUBC5zc/P8fM8eXnzxxSK548iylANvvEF1fmHlRWwEYy3XXPMe3vWud7UuwmbJaDk5LgSvHjSU3Tq7Otm4cWNLFAJBqYYLEsu00SDPcqwxNBoNDrzxJvXCkjYtrYkjOro7ed8H3s/OK65oEcI0reevOJZwSgrxiY3o7e0Ji8Sy0VjiQ+++MYZ6bZE8z4q8Qc7U1NR5YiCsIfM5nd1ddPd0A4oxBHUe4NUteVXA/Pws9XptmQWUltU2xpJleYjPRTDWYKOINEvJ84z9+/fxox98n9npcWzLUwvDmZptv8WNILYQqRTTVotQr/llWkfUVPPRqocpEBU+gYVmEA9qwmsVGfWL3ZftnYSLtuRauKFNaWbrdiHUSJ3S3zfE5+78Q/7wD7/A6lXDLfev9amp4HIHxRa0IyOnee6555ibm0OAWrXGyMipoiQXHmPEYoylu7uXK6+8isHB4ZaUtSlrXTEYUqTlrgYrX/xNaN23r6+PUqlUvIGlxBWFxbIm7MU1MT7O6VOnC/lpSGD5QsTT1z/AlVddTWdXJ0ZM67mtsa322uX185anUSS/mvmNcqVCT0/PiiRgsxlHfJCmBqsupFnOzMwsWZaHrDNLsX+5XKZvoI8kiQuDXRCp8Bya9Xj1jumpKdJ6HYMEcQ5LE3RNZNm4eQuDw8M4BadC5hxiLc47FhbmefSRR3ly91P4NOxFhhdMMx1iCh62VpCwD5sU2fVAblvQN1C4lZEP/IWIsEhhiIhDwUwSsOFbJMJiz8vUt7ESb53kRXKkGYifX9te6loSMQwODnLHHXdw+yc/RVdXV1gQNLR8NgnvCiFKmqY8//zznD17FhFhfHyc8fHxlubcN5VsztPd3c3WrVtbE1D+Bwe97JtW9j7Pc9R7qtVqywVd/j6895TL5eAhFMqyyamplSeuIGFfXx9btmxttavK+a/6Kw+vuSjFUUy5XC5OtZznAVXKlVZoUV2sMj09XYQFS8o+EUO5EsQuSRIvf5kVx9P8f2xsjIXFkHdohjJoEMVUKh18+MMf4aMfvZWurq5QeiuF47PW4pzjxIkTfOefvsPrr7+Oa25k6bVZ+j7nheWcY7nw14U/weU2fyl5eaFHt6l+Pi7KXV+qhAVLvhTihYvSadEWaoQ89/T29nHXXXdx+yd/j57ePtRI0fDhsZEJraPeoT7n7JnTzExP471nfHycarW6pIiTJbloHMf/P3vvHSVXdef7fvY5p6o65yC1uluhlTMiCJAMAgPGmGgTbGzP2B6Hscfhjmd858599721Zube9daMr++s5zCYARtMDgKEBEgkEwQyigSh0AqdJbU6VoeKJ+z3x97n1KlWCyPb2HOv+ucld1Nddeqcvfcvf3+/H4WFhXnY8A9LnvQC5Jdt2wwODqoItfZZDZ1msqwo9fX1FBUXgVS55Gw2k4eH9wVMYVER0WhUl6n+biR0Rx0/iq2QdW7w7FJKKisrAiEwNjbG6Ohofv97vRaxaJSKiorfKgBl8FxZfISeArOIQMi1tLRw3XXXsXChQttlMmpQpSdz6L59+/fx4IMP0qvbeCmvYSLD5TPnFP1x6QzMdR2llp42uZS/5+kosfRNQ33YTMvCtCJMa2jgc5/7HOecsyrQvr7WVzegkknpVJLx8TFc12V4eJh0Kh0cYp8mTkE9UyY3hMDzHBzHYUh3bbFtWwkrzUz+tWfMmKEw9kJVatm2nVuJULbANE6FpP4u5DgOGY1yy3s+FTGkurqGWCyGlKorj2+F+PcRFjpVVVW/dW0ymQyDg4PYWTv3XUHKT1BQUEBlZSWLFy/m+uuvp7KqSpW9CuU+ea7Ec5Xv/ea2bTz//PNkMimds/ezGlP0H4E+NJOrMyNxXQXWcD0X27EVg5MrrfQPl+u5uJ6LZUaYM2cO6y5bR0VFhdLAWpobfqrGUD6jn1/v7+8nmUrp7811WvU8j0wmw/j4eKDpPvT9h36xLIuBgQFaW1vzBIlfClpSUsLs2bMpLCpSDSik1IffDzrmBEwymSSRSOh67zMkmRMYmXSGsbGxPKvFD2HECgqoqakmFoshhGBgYIB0Op3rbSdzzRxLioupqqr6QCEohCCRSDA8PITjOsE9hK21oqIiqmuqiUSjrFm7ljVr1gQlxYbIxT6yts3A4AAbN25k586dCBFOYcrQvyn6U9EpTB6OoIfbFYVpeHiYN998k/feew9QFVW59JNO5eigk0SlnObNm0dVVRWu66p8tfbfXNtBuh6FhYUUFRXjum5wiAMzMmSSjo+Pc+LEieD+wgd04j2fkg2QCoE3nhjl1y+/RG9vb8BUPlNIAbNa5rBg/iJMUzVHjMViRKIRPH2AfXNduh4j8RFOnDih74H875uwnnn3M+G+M5k0IyMjec/k68OioiLKK6qCyPvwsALC+J8HAvelpKSEsrKyvL04lRS4Z2xsDMhZAlJKMA2kgJKSkiDXPm1aA7feehurVp0LgO25eAIwjSCe0dHRwYMPPMDhQ4cCvIH/z/NOzcpM0R+PJtXkPrP45HkenuuSSIzzxtbX+df/9T/54b/8M+sfX8/Q4JCqjfbcoJ47DPRAktMAfnrGP4CG7lpqmVRXV1NeXk46nWZgYCDXOkmIvHsaGxvjvffeU62gpS5WsG1VH26r3LWQgE4/SR3wk9INcsw7tm/n9ddeJzmeCISCEAIMk1hBIcuXL6d51swgJlBVVUU0Ggui+KDTbSir45133mFsTLka0lMM7Doujm2Dn3/W9+orNh+bL7VFkkylcsG00DMLYVBaWk5FRUXQJ29oaIhMRlXhhd9rmiaVlZWB7356EsTjceLxkUDYhDMTpmlSVl5BUVExQqi/LVq0kE9/+tPU1tUHa+DDXIUwsO0Me/bsZsOGJ+nvP4knXTzPDYS6K70pnf4notOa60H5om4lvH//fn74w3/mhz/8F5599lna29r4zbZt7NITTE3DIKq7jxi602ewwa5Lb29voKnCEEzXU4zX0tJCVVUViUSC0dHRIPgUZiz/ft566y3efOMNUskk0vO0xgXLNHNRYvTBRQQNFv2Ci1/+4pccPXoEO5vFMAwikUhQctrQ0MCFF15EaWmpKnIRquFkWVlpHibAJ9vO8sYbb7B3794Am+/Yjr5vCx8Y46+p6ziK+fX6xOPDxONx0uk0Q0NDk3ZrLa+ooKysDFC+dF9fH7Zt57Vf9kE6NTU1gVn/QX55PB5nbGw0sD5y66UANeXlFRQWFgbZiMLCQi699FLWrbss1xzTT4sitAAe5dlnn2Xr66+TSadACwhJLgMwRX98OqVAJWy6ZTIZDh8+zK9//Wu2bn2NnmNdJMcTutTTYHCgj02bNtHY2MiCBQuIRpUG8ZnTj5739fXx4gsv5B9iH/sgBAVFxSxaspSysnK6urpUvlzkSh6DNJNmxqGhIZ588knq6+u54IILNHjDwNUDBoDgc77QSSTH2LVrFw8++CD79u3Dddw8jeRrsosvXsOypcsVZlvrnerqambPns3Bgwew05kcA0nVY629rY3777uPkqISli5dpgArWkObpmpk4OkedP4zjY2P88YbW+nv7+PaT32S/r6TgfnsSakbS6iecKWlpZSXVwJCN3kYCRpC6IcN7qmisjLowe7v50SybZuhoSHGxxMBLkBKiSulZkxBZWWlKgXFIBJRgrOqqoarr76afe+/x969e3VKNecueJ7H4OAgGzduZObMmZxzzjkIw9LXIW8vp+iPR5P65D4dPXqUO+64g8cee4wDBw4wPjqG5zqqKaHWmDu2b+eRRx7hWE+P0lehjXQcl/fee49//dcf8dZvtpFJpVWuUwqkB8IwkRjMn7+Q5StWUlBYyOjoKCMjI6cExNT1nOAe33//fe666y42b95MIpFQD6MrpRzXDXxbx3Foa2vjscce42c/+xk7d+4IglZhIQCwdOlSrrrqKsp1CsrXwkVFRSxfsSLIF/v34DOWaZrs2rWLn//8Dl599VXV601o7L7PbPo7bNvm0KFD/OpX9/CLX/yC48ePAzASH8HOZCf4rqqgpLKykpKSEqSUmjnHg+fVSx64QhXl5XkFLpORb/Ink8kAvZcjEUBj881y9bxLly7l1ltvo65uGtITekCEBhIJ5bbte38vTz7xBH19/doidPPcvyn649Kkpaa+qV5aWkoikcgxkQZcqNSJGpJgZ7O88PzzdHd18clPfoqVOP/Z/gAAIABJREFUK1dSVFxMb28vr732Cr/Z9ibHjvWQTqZUCgt0LtXERVJUVMTFa9Ywb958hBCMjY3l+fY+I/qaM2zm79mzh+7ubrZt28Zll13GypUrg77lyWSS7p5utr+1nddee42DrftJJhOgCy5c1wtSQp7nUVdXx6233srSZcuIaCCJMjaUGbx8+XLmz5/Pjt+8FTChaugYIZPJkM1m2b5jB0eOtHHxxRdz6aWXsHz5CioqK3Adl2QySUdHB2+99RZbt27l0JFWLMviqquuJBaLMRKPI72c9jYNA9eVxAoi1NbWUlxcDKigZzweD4SNn5v2PI9YLBb0kfdBSz4uJewNB+kz21ZlnZ6qADSEgSdVKak/2iqseQ3tkq1bdxl7977Pxk2bSKeTgWAydUluNpPhpZdfZuasWdz+hS9QXFz2WwXPFH10NCmT+0w1ffp0VqxYQWtrK7adUYfQR7wJA89R2tZOp9j//l462tsDoEomkyWTSZJMJsmk0lgRFZ32dJrG1RH2ZSuWs2bNGmKFRbiux+DQsPLJPS+4F/+naQrAj5yrvu0DAyd58cUtbN++jUrtu5qmSSqdZmCgn0QiEWgsIWXQqlkYAkfXK9fV13Hb7bcH5Z4K6JPT1EIImptnsvZjl9Da2sqgbiIZRVVmRSxl1djZNH19x3n22afZtu11yssrKC0tAQh87vhwXKUHBRRX11BaVoaUMDIax3ayeDJUGCIkBbEYFZWVQX+4sfEEIyMj5OG8dSONwsIYpWVlGKbq34aYCD1Roa90OsXY6CgqM2LiuU6uBTaCWCxGeXk5ZgiM5O+BZVlUVldz/Y03cujIEfa8vRsrYoGnAFL++UglE2zatJG58+Zzybp1CsYrVB++oOHlB7gUU/SHow9k8kgkwoUXXsi2bds4eNAP0uTeY5pm4J87ts1ofJjR+LD6O6qrqxCqFFMFvD2EUNhn0zR1V5lbaZk3H4FBNptmeFgFoTypQDL+97iui+v6QxVVy2WkBM/FyboMDfQTHxoM7i1shitTUuQGBwSwS0FxcQk33HAj1153vTLT0V1NwmY5BkVFRXz841dw+NBhXnrpBRVN9zzVkMJQkFtVKy/Jui4nT5zg5IkTQVYh7H6YOv9dWFREXW29jjMMq5ptjbqT2t0oLCyiqqpaBRA9j/jICMlUEilV9x0MMzCrS0vLKCsvxy+5nbCrwW+pZJKBgb6gVFZYJqoaVblRZSVl1FTW6NpzZUEhhCo9lUpQLFi4iGs+dS0dnZ3EhwaU5WG7CEvl0R3H4VhPD0+sf5zZs+cwe85cZTEgVMwhVJ8OU4z+UdKkNpR/KF3XZfHixaxZs4bi4uK8KaN+SisajZ7WFPOx1ul0mqydDfyySCRKbW0t3/jGN1i7Zm2Q8slms8SH46cAXXzopR9Q8u/Pv9e88UPaNxVCNTvMZrPBs/gVYn6JaEVFBV/+8le4/fbPM33a9LxodYCHDg6foKGhgdtvv52lS5cFzx2GogJ52j8v/4zyx23bDko5Y7EYZWVlJJMpBoeU+WxnbTydflTVciVUVVZh2y5jGiOQSqaIWJGgxtuxHbLZLFVVVRQVFWsBi+brUxHdicQYAwMDCEJxDnIYg7LSsiCyLghrcnU9Qyiht27dOj62di0C1XfPb53tZw8c2+btt99mw4YNJFPJ4PullAH6ccpX/+jptHlyn1nKy8u5+uqrOe+884hGo8FB8NFWp0WeSbCzqldYpCCGpeehCSGYNXMmX//617niiisoLSvTPdmUhokPD2sJn7sPn6FyEWUf+pmLjPsH3vePAaLRKJFIJIDCgnp/UWkJK845h+9976+55ZZbqKuryxMO6vZlUC7qkxCChQsX8vWvf52LLrqIguIi9Q6piif8VJnP+P5a+fdjWVaQCTAsk9KSEsrLy7Ftm7GRMQRC90o3dC5dEo1EKC8vJxIxkZ5HIpHAcV0ytq06qwrVJioSjVJfX0dBgd8zb3LmkZ7HyMgoqVQKaQiFV5cCpBE056ytqyM2Idc+UdMKLfRuuflmli5dSiQSCfZCKQMBOsayZcsWXtiymWw6l9sP5qh/IGhniv4QdNrAm482A5g3bx5f/epXQbrs3LGDtAaqoBFtHrlccO4iqLJEDYIwTXW4zzvvfD77uc9x3nnnUVpahvQUIsoyLbKZDMPxId1Uwnc3VcqturqapSuWc7C1lb6+AVzXAemquWmeR9ZxiEQsTKG0iSt1K+VQwE6YJhUVlXz8iiv41KeuYfHiJRTpgJY6aEYQqTKEyJviCtrCkZKV55zDd0rLePzxR3n55ZcZGhxUGhv1df4st1z+2dSDFJTv7KGaXJaXV1BcXMyxY92MJxIqSq3Dfb7LUF5RQXV1Na4rGR0bo7+/X7sqHp7nYqiiAVxPUlZekVfJNpkFrJpDjjM8HMfzCIKhUiGG8ByH8ooKCouK9HU9hJG/u/7vpjBYvnwFN9xwA319vQz29yuEm9QCUihB3Nvby5NPPsn06TNYtWpVXlnwFIN/9DQpk/tSNpxzXrFiBd/61rf5VfG9bN26lbGxUQxDBOmTyYDbvtlpmib19fXcdNOn+cTVVzN9egNFRYXqkIU2O5FMMDY2iqd90zC2u6amhi9+8YuMjY/zxBNPsXPnThLj43iOQ0FBAV4mg61LU30zGnKppeLiYi666CJuvPHTLFiwQKPYopoxlUmrXE+RZ0aGA3+uq7qUIiULFizgO9/5DsuXL2fDhg3s27ePTCYTFLL495DLqftpKIlpWlRX17B06VJKS0sZGxsjk82SdR2ipkUkEsP2XPCgsLBQWyMCO5sNgELoIJghwfFcbXWpOvJcPvrU4k1/fJUQhu5+62MEDFw1ak5ZDjrmIcTp/WUVLzG44sorOXDwAM9s2oh01dnJOq76vKGO2IEDB3nuuedYsGAB5eXleam7KX/8o6VJmTzcncQ3v0CwaPFi/vqvv8/q1Reyfft2Dh8+TH9/P+l0OkBg+Y0cCnUThKamJlauXMkFq1fT0tIS4KFVPjYf2z0SjzM+Po6QHoJQo3/DoKK6iurqaladey5LlizjvffeY8/u3bS2tjI8PMz4+DiZTCbw3X1/t76+noULF7Jq1aoAVWfp8UG5FB15Ghty5bO58lJTI9hc3dZKUFlZzac+dR0rVpzD+++/z549e2hvbw9y0P79RCKqVrykpITGxkYWLVrEynPOYd68+RQXF1NfX8+NN95EIjGO6+YElRWJMW/efMrLy5FISkpLuOKKK1i+dIluYJErljEti/PPP5+Yht+eSjmU2pyWFj7/hS8EiL9wCa3A4OKLL1aaXBfn+BHzsMDz18iyolRX13LzzbfQ0DCddCoVQtsJHNfD0IxeWVnJ4OBgUKg0FV3/45CQH9JekloTSSmxbZvh4WGOHTvGiePHGRoeJjE+TiabJRqJUFRcTE1NDfX19TQ0NFBVVRX4xjmGyjVGUALFYctzm/lfP/oRx4915x8CQ3D5FVfwn//uv1A/bZpuTWSTSiQYGR1leGiI4XicVDKpcsymSbG+h6qqKkpLSykoKMA0rQ84UP7rYYT1qUErP7ocFgg+3NYfHjg8NMTIyEhQSReNRFQArUoJqtLSUg09VRrUcWxtAejr+na/Bqb4AUyJxLEd5aqANv/VRzwpiUZjRCJRHSfI1XxPvH/bzmLb2eAJpfTdGqGDYtEAKyA/4DoBYEgIHEcFOf3v9VdSUU5j++fgFB9/itE/MjqDvut+xBhiMZNp06ZRV1fH8uUrVDqH/CBY2BqAcNQ5Vyvtm7OBJh+J4+mJpGHZo4JK9bpgwsCTHlbEoqyigrLycpqbZwIEKbucdp54eE5l2g+mHJQkuILIR+GB0o6xWIxoNBp0rlHrdeoags8guV7pkUhUR5s9BTENrmsF7/eDeao+IBIweDj6719foDrwnI6EEBQWFgbXDkx74deThxtDTn6d/OyBSm36EXOh3jDhucMDILw8N22KwT9aOiMmz1f6QpuwOSltWTkAid8e2NCTONTmKp80TGFU29DQUF5zBp9TLdOkSHdgUVrC8FVQ3rX871If1YP/QozwhzhLORPTPOU1pXnDbaFPF1hSa+evU941JwBYAjSZaeZdWwgjMLWVts0vSDmdKaz2Kde8w58Qk9ufcH+50wNWws8VjIPWQCVEOBaQn8CZ2FN+ij56+p0nqEwmhcPSXYQ3U/0x2PiJh9GP5Ks68lQQWPLhmbFYAdXVqmmCikDrAhhhBIw7UUtMzN370e+8Z/hdH96/pgg9j8x1g837jhCjhN2TicwzWaR5IlDklOtoQI9qLpGbOPvbNGT4u5WDoIShDP7uaYQaqjyWU5ncv85ELEDQMHOS1Z3csvvgarkp+v3pjJg8fNgmBmEm/t1vDOG/rjqK5EeuwwME0uk08fgwwageGZo6qjurSqnnq/maZsL3T2TscDMIjMlTSr8PBWsQPL8R3FNOU+bMUt9KOV1+eKLmDPu84Zp8z1NpKrSVYgRBtQ+XkgozlcepglHXDyoU3IdYtLD2/yCaTPD6LtsUtv2jo99Jk4c3fqL5lTvYoQ/I4P9CpnsOUCOl1HXkI2TtXCWWD7Mpr6ygqqp6wvWUBppMO/rfk3dw/oAc7jOeISY+u4eUpx5m/37CgxzC9zqZoAz/dzidCbm6byAQppOZ6r/tGfzrn87vPt09TbzOZJbZ6QJ1/vUmKoAp+ujojKaafpj3TPo+FYkJtFyYMUHl5QcGBkgkEjoglTMjQc1aK9RBN193igmBrd9m9p2Z93f664S/R57yujmpS3K660z2++neczoyhJF3ux/G/A0siQ96jw4OnDYXMcn3fNB3T/zblIn+x6PfY6rpB9MHbWHYDPXNxIGBAZLJpD5cOV9UCJPqqmpd36z6oOcgp5N16j7z+/no3/mHpz/Ed0+x2dlBHxmTn44mBoV8nyyRSFBYUEhtbZ0qSdV+u2lGaGxsDEYhSe2Lhk3lKZqiKTo9fWgwzB+Kwr5Z2C/vOdZFR3sb2XQmVBgiQBg0NDTQ0tJCQUFREIDyI/jGlNk3RVP0gfRHZ3LIRVXzmR3dpCCUshG5wJz6DPlR4CkGn6Ip+q30J2PycApOaebccAKJqo7Kj4gbeSizqfzqFIVpMuzBxN/PVvqTMPnkdLrmAWLCzymaolNpsmM8EatwttIfPfB25nT2bs4UnRmFh0SGGftsZnD4D8XkU9HyKfrdyQf1TNTo4XTt2Ur/YZh88jKOKZqiD09hhg6b6mc7/YGZ/A9dAjJFU/RhSQY9/vzqPssyg7ZjfrWkj6YM0//pp/T3ZvJ8DLY7wSyaHMP9264Tfu10mOyp6PrZSeGsTPh8xONxdmzfxmuvvUZnZyfRWIwlS5Zw/fU3MHfu3KCMFoxQQdHZcX5+7+i6+rguKHGdvOGEhmEGtcbh6rPJOoOoUlA1Wyxc1TRZxVo4oHK2bNQUKcqrftQNLuLDw9z57z/nmU1PMT42hiclnisRpsEVV1zJ97//NzQ3NytItG58KYP6hw8Pjf7flT60wyIn+eeT66ouJT70FHKVWH5bYiCv8cFk5Lle0MnT0U0ZfYEQbqyY1yBxis46cl0Xz/WQnsf42Bj33HMPDzzwAMPDcRw9NVY1DfHYs2cPR44cUR1k5QRL4AzLlv53pd87KqGimqevJQ6nMsKaefLr5FoZ+8LAcZwAHRcuYwwj5qbo7CJV5quCa62trWzZsgXXVY3BkUJNUQ265qi+9+Fz50nvrMqd/wF8ck/PLZMBQs3TI4FUdxil5X2f6LfVLoNv6gvAC4boqd6Gp5rsU3T2kRACqYNs+/bto6+vD8s0VaMRQ+AE+XKD4uJSqmtq9HlRbbOQEnwf/Sw4Rr8Hk8vcTwGZdIbBgUFO9J7g/b17efvtt+nq6WbOnBbWrFnDkiVLmFZfT3FJWd6kkuBqE7Ryb28vg4MDZDNpHD0DTc3KjjB79uxgyucUnV0UnBtdD59MJjFNk2QygRUxcDyZswgRLFu+nMbGRm39qR6DZ1vbqQ/N5FIH13ItgWRgCh05coQ3tm5l29Y3OHr0CKOjIwC4UnLwwEFefuklpk+fzqpVq7jxxhtZumwZBQVFwIRWRNrXdl2bX/7yF6x//DGy2Yw289WmXXDBav7xH/+J4uLis2aTpihHYYx6xLKYMWMGhqGEP8LvzqN6zC1ZsoRbb72V+vr6vM63Z9u5ObMeb4Dj2Qg9DTOZSPDiiy/y6CMP097eRmJ0LPB1stkshmFiCoFtZ2hrO0pnZyetra18+Stf4ZJLLtUtlk9tPJjJZDhy5DDZbEZN7pSq0WDEitDU1ER5eTlwdm7YFOW3rrrooou47rrrWP/EejzPUQ0oDYOPf/zjfOUrX2HRosW6iy/A2aO9w/ThmVwSjBx2HIeBwUEee/QxHn/sMeLxYTKZNCa5gFg0Gg2CZkIYOrJucODAAe6+6y4KCwtZu/aSvHSav3mdnZ30njih5onrho1Cu/wLFyygsLDwrNysKQo1C/U8ItEoNbW1/OAHP2DdZev4zVvbKCoq4uKLL2bJkiXBAAv9yT/dTf+J6UMzuaG5zHM9PMflySeeZP369fT39wfpM9M0cR0XQ8q8qZXKffdwXQkYtLW18cADD1BfP50FCxacAnJ55+23GR8dAwmmkev3VlAQY86cOXrAwJQWPxvJPyuGaeLpkdGFhYVccsklXHLppXlnSSkYyYeI9f4fTR8+T+43evA8tmzZwsann2ZgYADTFDoSrquABBiWhWGZICSG3zZYGKDTGI7j8Pbbb7Np0yYGBgYAVCReqJG2hw8fZmR0GISfclMb19TUTK0eM8wUg5+1FA6c+elUz83NlpcCnFAHobM91XpGPrkhBEfb21n/+OMcP3YMZC515s8Rr66upqGhASGg70QvJ3t7sR038NVd1EDCuXPnsmLFCkpLSxFC4DjqWr29vXR3d+O6nsqFokAMwhAsXbqEyooKPfp3wvCGCXSqCDjdRk98Z7iXen5f6d9NrJwGxhsernjaK5/54Tz1vn/bnXy4K54ZiTP4XAi2/KHepch1HAzTCCbAgOohr9KsaowWfi25YUy49sS9DLcrOTM63anIPzkfnj64h274eqd+7+n294yY3LFtdu3YTuv+fXiOjWrWpLqmlpaV8rFLL+HWW29j7ty5mKZF25EjPPXkkzzzzDOMJxOYpklZaRlrP/YxbrnlFpYvX0ksFgPAtNQcrrb2djo6O9XMbCkxNNDGMAw9crgCU6Bz8+jcqDGp+e7782oBBK5nMz4+xujoGFnbJhqNUlNTF8z0ljrA508Qkf7QAuH3CVfL6zoOI/E4w/FhEokE2WwW0zIpKiqhpqaGioqKUIsq8xR3BEAKNW1FIhHydHPBwj3VVYYhkUjQ1dXF0NAgyWSSVCqFaZgUFRdRVlZOY1MztbV1ebEO13MxQjPoPqh+INepJ4wNzwFJstksg4ODjI6Oquc2TcrKyqipqdE+sMKHh3GRwfNLSSqVor+/n2QySTbrUFxSQmVlJZWVlUorT6wcC8mL8H0HMGehRiSrv+e6B0lUlN0w1Ow8gVAgGGEg8DTuQsFc/YEe/npnMhnGx8fIpDNk7SzRaJTCgkJKSoqJxmI5oSw0B4TmAAi/9Xj4DIoclDacofLfn9+P3mVkZIQTJ44zNjbG+Pg46VQay7IoKy+ntLSUmbNmU1RUrKwWKSdtahpeqzNi8tHRUfbv3x/kJj1PHVTTVOmKr/7F12lpmYthmLiuy+Ily4nGisjYLq+88gqRSJTbbruNa6/9FDNmNObPDZMKRNPZ0c7g4CC+XHI9temGafHClufZv3cfQhi4QGlZGVdf/UlWnnOOcid8JJM+Hf7Ytf7+ft76zTa2bXud9vZ2kuk02azNwkWL+c53vkdLS0teLzkpPe0+SCVsPA88j94Tx3lz6+vs2L6dYz09jCcTZDJp0pkMwjAoLCymqLiEBfPn86lPfYoLVq8mEhEBxNIwrNxcbpE7BJ70MP3ZaI4CdIBE4TY8HMfhnXffYcvmLex9by/Dw0OkkkmymTRZ20YIQaygkMKiEiqrqlm4aBE33XQTy5YtIxqJ6rjI5O2RfFK1B24emlAIkJ6L53mcOHGCl196id07d3HseA+ZTIZUNoMhTIqKi2mcMYNPXH01l1xyCWVlZTmBoq996NAhnt+8hZ07duTmsds20ViMsvJyWlpa+MzNn2HZ8uVEDEsd/oBl8gtShBA4bpYNGzawe9dOQGgwjIcUgrlz53LtdddRVVObG6qp2c5xbQwhMDUiznUV8Gp0dIzdu3ezZ/duDh48wNDwENLzsDNZPQo7SnVVNcuWL2ft2o+xYNEiItECxWgT7s9zbB1sVnP7PE8JFU8q2LZ/L+G6jHQ6zZ7du/j1Sy9x+PAh+vv7SI4nyGQyuK5LJBrBsCKUlJRSXVvDmjVruf76G5gxY4aq+fA8/JM/sbz2jJh8ZHSErq6uQOv4ZJomM2fO1Kktqcv81GTSefPmcdVVnyCVSrN27VquuuoqSktLgymdYbx7Mpmgs7ODdDqFaRpBsYo/Gnj7W2+xy7JwHQ9hmcydN48rrrgS13NxHEdPKFENH13HJjmeYNPGjTz4wAN0d3chhKsCNiipv3zFSsrLy3EcJzj8rusQiVggIOvYSAmDAwPc/6t7efKJJxgfiavvkRJX5qaoeoDnDSKEYP++fWzcuJGPX3EFf/VXf0VTUxMFBQV5WQRHM6cSlorBTMPEMIX2LyWpVJJ333uX++7/FW++8Qa2bav3GAaOnUXotfekxHZchoZH6Dl2jAMHD/LSiy/ypS9/mdtuu43ysnIFFT5FQ+eTuhcXz1Na2M5mSSSTPLF+Pffddx+jIyNk0xmiUYtMNoMHgbl85PBhXnn1VdatW8f3v/995syZg+e6tLW1cffdd/PCCy9gZ7KYhoFlWqTSKSIFMVzPw25vY//+fWzd+jqf+/ztfP7zn6e4uFj12ZeKzb2QgPI8j6NtbTzzzCZ279yFYRiBgHKR3HzzzUHDz/CzqiyawHNdDKFGTw0PD7NlyxYeflilgZVgUoFj0zACZJx/5t944w3uvfderr/xJr7+jW9SVV2F0K6or8N9JlPnWytDQ2AaZhCQ9q3MTCbDwdZWfvbTn7Jzx3aymYyGiXtYQru4rovIqM8ODg7S1d3Nzp27eOqpDXzve9/jio9fQawgxoRZor8bk2ezNqmsmucVLjrxPI99+/Zx/NgxqqtrgplcPgb9ggsuYMWKFUSjUYqKFAhG1fiagXnoujaDgwN0dLSrfBn+RFK1PY7jYEUspESNyDUEdXV1zJgxAyGEYkw9piiZTLBj+w7uv+8+9r77Lpl0OriO53q4SGIFEZqbm3NmoucBHpGIheu6SFxOHDvBxk0b2fDkU/SeOB4wZS5zoA6RK31zVgQtiAzD5IXnN9PRfpRv/OVfctllHycWiwVrYpkWUhi4WmOCQmSZQo1gPnz4EI88+jAvvvgCQ0OD+vCotXazNpGIheOqFCX6IEQsA08KpOswOhLnzjvuoLO9g+9+97tMnz49YJLTkZpBrwRrMplk544d3HvvvezZsyuY42ZGTGzHxjDMYJKqKkJSa/LG1tfIZlJ8/vOfp7W1laeeeoqenh4tkAS4Hmk7hWVZQe13xLKw7QyDQ/3cf9+9uE6WL37xzygvrwosnonNGU+e7OXYsWN5dQ2ep4T/nDlzKCkpQch8jamXGdM0GRoa4pVXXuHhhx6itfUgnqcY3/NchGEQNRVrCCtn2fjMOzY2xkMPPciu3bv5/t/8Deedf0GA4hRCYgQdagSOpwOAngdCYmne8KTHu+++w8MPPcxLL79EJpPB0FkqAYEQMk0DK2Ji698RYNtZLCvC8Z5u/p//9n/T0dbO7bffTnV1dWC5hOmMmNyvIpOGslEMnRdHCg4dbOXee+/l29/+DrNmzyISiQWfKyoqoqCgIG/438RKMsMwGBwYoLurU0nQCdrGr06TUpK1s1iRKLNntyh4q491F4KsneHJJ9dz333303/yJNlMmohl6co2D2GY4LlUlFfQ0tKSd3B8K0QAO3bs4O677mbP23tIp9NETBPp6SCgfgZXysAvMk0T6blYeg6ck82ChLYjR/nJj3+M67h88ppPKu3kb2LIvJJayNi2y7PPPMO99/6So0cPI6VHLBJRGlZKhBQIy8K2bRVcAhzHVafXAEHO+kmlkrz44gvEYlG++c2/pL6+HiknL8wQwnebPDKZLE9veIpf/vKX9PaeyDMrPc9Ts8+lMjo9R/cQEFLFLlyHXTu2c/hQK2NjY8r6QJC1tZksLCzTxPUcor6J7Tr6NY/RkVEeevBBZjQ0cP0NN+lzlCtI8VGWHR0dHD9+HMuyAsEKUFdXR1NTkxaoKmDruwzCEEjXo7O7kzt//nN+/fLLjI2NBftpIDBRuHipBbZ/Rg1D4ElXrb8A13U4dLiVf/3XH/G3f/ufWX3BBfoe1d8M0wjWzHWcYD6AlC7JZJINGzZw369+xcneXjzXxTJQaQFdbo1paCvNQ3gSPA9hKiVnmQZCxwIymTQPP/wQJSVF/Nmf/bney/yc4RlUoQlKS0uZPn36KSkJ6XnY2Szbt7/F4+sfo7+/PygVFSKn1fEXW2tEn+k9T/md7Z1tjI+P6aiFvyjgm0C2bSsTKKKYdt68eUQiEUxTlaZmsml+8Yu7ueOOOzh+vAfbzhKJRHBdV1UiSYnruQhhUFtbS1NTU2DWBaWxrsuzzz7L3/+Xv2f7W7/BTqcxUcE2Kb28ZzFMX2gRMsOUa2GZJoUFBSAl3Z1dPPHEeo4eORIcOL1yKmgiwc7aZDIZHnzoQf7nj/6Fo0cOYWlmSqdTAJihWeL+4fY8j1g0SjQSwdP/LaWHaRqYhmBsbJSXX36J3bt3hw7tqbur+NvDkx6PP/4YP/vZT+np6dYHPH8UtOu6wWhqQzOAaRjqoh/KAAAgAElEQVR4rgqC2bZN74kT2NmsXjdJNBLJCXn/8LuOioBr/IXQ6zw+Osbm5zbT1dWJ64XXXK3byEico0eP4nq5CjPDMLA0zLWpqQnHcQIz3t8bx3ZobW3lH//hH3j66Q2Mj4/nCqak3/efoM48EokEGjo4y6hZ8NFoFDuTobW1lU2bNpJOp0mn08GeCASGMBE6mwSSbCbFSDzOnT//Of/jv/8TA30ncewsnueqtXddJRCMHE8Y2mRX7q8X7J+K1dik0yni8WGeeuopjhw5POl02TNi8rLyCubPn6/MZZk/a1pKydjYKM9v2cymjRsZHh7O5dZDEVvIjRTOGy2M8usymQw+Lh78rpuGNl3MwEcpKS1lzpw5gQnsODYbNz7Now8/zGg8jpAEm2xZFoZl6YAWmFaEpuaZTJs2LWAapUVtnnrqSX760x8zMNCPAZh6kf3DYJom0YIYDU2NLFq0iHPPPY+lS5dRXl6JD5v07ymrzVEB7Nq+g61btwYmqut5odnfysX4xS/u5s4772B4eAhQ/hr6sIUPqxCC8vIKptVPp6iwGMdx1XMaJpYwsEJR5mgkwtDgIK/8+tcMDw/jR8rDgUZfMDiuw+bnnuPee+9lZGREgZv0ofVjKKBMyqB00zTwUELOMpS1IyTEIlGQ6r2OdHF0xsJ2HTzpBfvpCw8DMBFETAPpuRw5fIj29vY8c1wJWY/BwUH27dsXALBUVNzF81xmz55N88yZRCIxPM/DNEx1L57LwQP7+dGPfsTOHTtyUW1XaUpLnxX/+SoqKqioqAjWOxyH8lwPO51RzOt57Ny5ne07fkNBQVS5YpaFboESnHchBKOjo9z585+z/rFHFdw7m8XUaFDfffXPeDQapaqqSq21K1EDqg2E9DBQqbZoxKK4qAjpeXS0t/Pggw+SSiVhQnvzMzLXCwsLWX3hhbz00ovs37dP58lzD+F5ksHBIe6//34Qgs985mYqKioDBp+su4vP5MlkkoMHD5LJZPTh8gIJvXr1haxbdxlFRYXKbzUNqqprmDt3rjaHsry/dy/33fsr+vr6QqaRyuHbjkNhURFXXXU1F1+8hukNDdTX11NaWqbvS+C6Hs9v2cxdd9/F8WPHEFLqyKsRpPGiBQWcu+pcbvrMZ5g/fz6FhcWYhkE2m6W3t5eHHnqA1159Bdfz9Ain3NqYlsW2bdtYd9nlOgNhKFi+55BMZ3j4oQd56MEHGI0Pg5RY0ahaW80c0VgBq1atYu3atcyfP5+q6moMw2B8bIydu3bxxPr1dHV3EzGtIKXkaz8pPQ4cPMDRI0eora3F81wtkIwQo7vs27efe+65h5MnT+bNQ/f3rLGxkSuvvDKIr+zdt49NGzdyrKdHMZuhtBdSBoEyT1eFFZeUccXHr2D1BauprKygs6uT5557lnf2vI0Z1Har/RIIMqk0bW1trFn7McxYTLtK6l9vby89Pd24jo1Brv1yYUkJs2fNoSBWmFc/LqVkZGSERx99hN27digz2HYCEJcPoGlsbubmz9zM0qVLKC0tVYM4Bwd59ZVXeO65zYyMxJVpbVoBis5zPfr7+vnNtm2su2RdkJMP1l4zXH9/P3f827+xccMGstmMPqPadXVdMExKS0pYs2Ytq849l5aWFsrKyhgdiXP48CFef/11du3ahePY2Nkslh6D7boqgGvbGfbs3s2h1lZWrFyJEP7zG2fG5FJKli1bxg033Mjw0BDHjx3D0FLHR7u5rsrz/epXv8IwTG655VYqKipwXTfPxwmb8gBdXV2MjIzoG1ZRbZW6iHH55R/n5ltuobCwEBCq8wcSy4oGzfs2b95Mb++JnP+FishGo1FWrjyHH/zgByxevAQp1euWFcHHNTuOw549u7n//vs4cfx48LyRqL+QHvMXLuCv/urbrLvsMrWR2j/3NVFTUxOzZjVRUlLMk08+qXxu2yViWUhUfrm1tZWh4SFmug54gogVwfPg9dde5dlnn2FkZBih1yWdTiszLRqhrr6ev/iLv+Daa6+ltLRUCR8zt3WrzjuPyy+/nB/+8Ifs3LGDdDKFFYvqPVMNDYcGBzl8+BAXXnihjmbmp9SSyRQvvvginR2dSE8G2RHXdYlEIlx22WV8//vfp6mpSZvwJpeuu5yLL1rDP/3TP3DkUCuubeN5HhFTIR4d10UIk4WLlvB3f/dfOHfVuaiAqmCNXMu6dZfyL//8z7z661dy0XP9TK7rMj6e0K+JwApLJBIqDZpMqMCfb5kKQUNDA4sXLwmCkUBwPtavX8+zzzxLJpPBsx1iMaXphSEoL6vglttu5Utf+rIGZ+XO/AJg7SUfY+Wq8/jJj/8/+k70YtvZvMh9NpPh+LHjxONxyisq0TDP4GmSySTPPvss69evR+h0atSKkLWzmJZFNFLI8uXL+cu//BYXr1kT3LdvxVx48UV8+jOf4Sc/+Qnr1z+u4lWGgevp1Jm2NPv6TtLV1cXKc87J49szmk9uGCZSGtx4000cPXqEzZufYyw+Emhc4UlMbU6PxOM8+uijFBYWceONN1JUVJRLZYSY3P997969DA8O4TmOjtz62t9i1szZGMLCdZXWNcyQnyShtfUgO956i1QimYf6sSyLc889j+98+3ssWrRUfZ8h9D16QRbg+PHj3HfffezduxfTMHS+UeDYLgWFhXzik1fy5a98hZa5LQhhKs/QEAhPvU+BOBw8oLK6mtLSMsZHxwLhJ4SBaUUoKSkjHh9ViD2tcfe+9w6/uPsuOtraVGZYr5FpmkQKYlx11Sf40pe+zPwFC7RPKDAtUwWGdJAQTObOX8hX/uJrDAwM0NbWhpu1tbvi4UqVjjt5sleZsKapwBk+iENA6+FDbHvjTTKpVBBgc12XwsJCrrzySr797e/Q1NQcMI/jekhhsHTZMlavvojOjg7wlCBHpwQNw2Dx0mX8zd/+gJWrzkUKpemVhSVpbGzmssuv4N339tLf36eyKf7maRdsIiw1m81y9OjRPAHlm/JlZWU6mOorD3WG9u/fz6ZNm7TghEjUwpMunoBp9dP45je/yXXXXYcViQVoMj+Y6veL+9il6zh65Ai/+Pe7ME0L183FnAzNlOl0hirTwp0QQ3jrrbd4/LFHVUBOgmWYOJ6LaVlUVtdwyy23cvOtt1FXW4vj6Fy6MBCmoVGfHsWlpXztG1+noLCAu++6S+2jUHBxKZSiGhsbpbf3BNlsNgCZwRli133/raCggNs//3nOO+88otFofvJd+mkgj97eEzz11FO8/vrrpFKpwL+bqMVt22b//v3ER+J60QSuo7TA7Nkt1NdPJxqN4bo57am0tcAwTV5++df0nuzFNA0MYShGNQwKCgq57bbbWbZiJZ4UuQPqqMo4x3GwbTswhfQD4EkX0zIoLi3llts+y9/93X9l/oJFmFYMRwLCRGAgQgGS999/n//x3/9fHnv0ccbHkximheO4mKaFFYly3vnn81//r//GBRdeCDr6OTgwwOZnn6H1wH6EkFgRU4GotPm4bt3lfOMb32TBwkWqHloYIAwkKi9vmBYY6kBIBMuWLeO8887PiwablomB0jajo6MqIEoIiaUeme1v7eDYMWV229ksnqPAOxUVVVx77fU0NjVry8dASmXqG4ZBLFZIVXUNViQSCHufQYpLSvjEJz7BsmXLVT8AqVwUdEzCQ1BbV09xSQk6vhpAxUwrQnV1lU6z5kzv4fgw7R1tKogaiqpHI1Fmz55NWVmZDuapMzk+Ps6rr75KW1sbQigG889gXW0tX/ryV7j2uuuxIlF93xaGaWFZUVwJCAMhLEqKS1m9+iIqKyu1C2YGboaUklQqo58RdTZQZ3FgYIBnnnmGjo4OopaFYRoq+AsUFpfw2du/wFe+9nVq66cpxtZ1GdITeAhcT+JKkBhUVlXzyWuuCYq6/A5KhhBELRXYTKVSp7RYs05F1uZ04Sl/CQJQgpkzZ/KNb3yD8ZFR3n33XV0/rs1fOwuGRTab5cCBA9xzzz3EYjHWrLmYWKwgTzqrnOdJOjs7FUBEotMxBp4HixctprKySm2QjlL6kVNhCHq6ujl48ACJRALPdYhYEdBabvXq1SxctDBkGbhqUXSjSMuyOHnyJJs3b2Z8fDwAuZiGskbWrP0YX/7KV6mqrg5y4aZpqVyq9vfjI3Ge3rCBu+7+d0ZGRpTkd9TfC6IxiouLufWzn+VLX/4S5RVVSENo09TlwIF9PL9li0ajeWQyjg68GKxZu5ZvfetbzJo9m3C5pOvnQf1UpMriYRomBQUFLF++nE2bNpJ0bL2GLmAEUXJfECtGV1ZGX38f+/fvJ5FIIl2HaDSmUItILrjgAhYsWKD2XWc9fLfLz+WOjIyo7IBtE9XBsGwmy6w5czn//AsoLCzyvzZgBNO08FyXRCKJbTunnDcrEqGmpiaIq/ixjZ6eHgYHBwKT1T+ysYICWlpalDVgGHiuRApJPD7Crl07kZ6nMxkyCGytWLGSW265lUgkoq1UD9dzNWPnOgb7bktZWRl1ddMYGBjQ+kLdg2VZVFdUUlBQoPdExY1s22H79u28/vrrGtClWqEpQJbghhtu5Oabb8GMxDSEWjGtq4WlMhRDqV0hqK+fxkUXXcyh1tYg7+/ajlpboSDM+dF1+cFMTt5b9f80DtiyIixZsozv/Kf/xB3/9jPefeddkslxxQiWqRZAgvRsDrUeYMOGJ5g+vZ4FCxaFzHW14Z2d7Zw8eVKhpzwPaRh4OuK5eOkSKqsrNNZYHwCNkvM8l47ONno6u1V00orpHKfEtCxWr76I6dMbNIIoh20WwsU0FbJpy5bnOHr0MI5j48dhXNtl0aJFfPHP/oyqmmo8nTaRQiKlg2UIksk0O3fu4JGHH2Hbm2+qqied2rBMk9LSUs6/4AI+99nPcu555xOLFeigjFrvxHiKl158gbGxEaTnBtaHEIKm5mZuvvlmWubOVesopNKempmFIOg+avp5YG2GV1dXnzIuSPqnQRh5gSElPDwOHzpEW9thpf2FiSNdPNslEo2yeMkSqqprUf3K1TUjkUgA0xwbG6Ovvy8QmkJjJyLRCIsXL6K2tgYFstFRakMGaVPLsujt7VW5an1Pfva0rLyU5qaZaq8lwTMdOXKE+HA88EX9wFZxcSEtc+diRSMKE26CIQzeeWc3J04c17yirLSIaVFWWsall12uI9qWthC1G6gtUT8DgCGxhErhDgwOBCg2KRXs1zBMyivKqaqqRAoCK6K7u5NHH32EdCqh8uYyl1VaunwFN954A7W1tagwqA5Me1Kn8gTS0zEsdI7f8yguKmHGjBm6gEspSSsSIesoBReJxCZj8g9HQhBEOFUQRJlsK1eew1987ev87Kc/4Z133lYRZdcF1M0qs8pm73vvsXXrVhoaGikrKwuiqZ4O//ed7EVFVwnMs+raahobGyf0hPMj5wpE0dnWTn9/H2gt4afdauvqmD17dp5vop5DHWyAgYEB3t2zm+ToKCYS11M5SNOKcP2NN7Fw8eJcHAHhA/E41tPDffffz+ZNzzAcH8YwTISrUjixWJTa+un8+Z//OZ+4+mrVRNDfNFROWAjB8WPHaD14kGwmDYYSQggwrAgtc+exYsWKwKRW5pcWAug8c9iBDeEKTMMM0n653C5EojHKy8uxrCh+Ph9UXrqro53e48fVIfSkijcYgpqaWpqaZhKJRfFjD2GfGeDYsWMc6zmmXvM8XHJpxzmzZwWIQj9q7qeuDATpTIqOjnbGx8fVvkhXHWYpmTlzJpWVlQGmHyCVStLe1k4ikdJxEA+hXYNp06dTW1urNbJ67kwmpdzAeFw9rx+QRdLU3MSihQuJ+Nh+cv69At8YOmajAZhCkEqNk0iNKyGiLQaQlJaWMKOxQQtJtSG243D0yBEO7NurNkiqykmJylKtXLmSuXPnaQFvKVAQ+bjzSCCs/ftW9xmJRDFNC79izdf8CIPy8nLdWk34B+PD+OR+GkYGJowP6UT7xOeeex7f+ta3WLx4cSCpAnMcJRUHBgbYtm0bJ0+e1GdEp850tDSTSatwl7/ghkFLS0sQzZ1IQkAikaSjQ2Hd8/KYnsecOXNUQ32ZX9jgfzfA3vffZ9/77wf5VJWvNFm8eAnLl68gpiPUQihYbTqVYuvWrXz3e9/jgfvvZ2h4SJnErnIDSkpLufTSddx555184QtfoLa2NmdS+haTUqO88/Yejh8/HpgnQh8oy7JYs2ZNkKP1Kbz5IvQPmSsskcD42FjAgGEqLi5m2rTpwXX89fCj1alUCl9A+ibtzJmzlLswmXWnX+ro6KC9o11BgUPxkvLy8kDIun76Sx9Wf59P9vbS1dWB4zhBdkbxg2Te3HlUV1fr/VRWS19fHz09PUHQyx+B5Hke8+fPp7qqKk+LDQ0N0dHRTjqdDsx+pIrcL1iwkNq6OlQaMXyucpaRPizK1M7a9BzrIZ1OhdxN9bOiooKly5ap16TOViSS7Ny5g3QqFaR0hRZ+06dP55prrlF4c5Ernpm4v+ozyopWGSdJNpvlxIlePE8j4zSISUrVPEP1szPyrqI1+eS8HvbOlXkmdR5UvyJASNVEb9V55/Pd736PO+/8Oe+//z7ZbDanSTyFNDtx4gQ9PT3MmjUr0M5DQ0N0d3fr4gnti2hgf3NzM3V1dZPem5SSwcFBOjo6gv8Ob1RzczP19fXBf4eDN0IIXfHWETStsG0bI6Ki4XPmzGFOyxx1aHWAbv/+fWx48kmef/554vF4UOzh6CjngsWLufXWW7nqqqsoKy/XgSTlMyutK5Xklapkt/XAAeIjI8hAHiszsby8nPnzFyCMsPWi4aTCYDJ+C+C+mQwn+04GByK8VuXl5TQ0NEyIVkv6BwZob29XKTPPBS1sTMOgubmZBo15P3UDIJ1O09HezthIHNMyMEJxllmzZtHc1BRYIVK/7kfdhRB0dHTQ1dWFqfuJSIWQpqCggKbmpqAjr78O7e3tdHZ2KLcIZb4aGJiWihGVlpYpDLrW5l1dXfT0dGMa2oLTWto0DZqamyjX1XITz1XuzOTQmWNjo7QebEV4IfSmp/atprqWuS0t5NBokqHhQfbvf1+DWVwFl9XXa25uZsmSJWotzFyXo8lKRv2781Oao6OjdHV14aeJ/ayXh6ShoYGamtpTrmFN7oOHwpyaBAQSydMMYwi/btggGoly3vmrGRkd5Sc//jHd3V25z+p0zejoKAMDAyHwjEf/wACdnZ0al51bwKKiIpqbmwP02GTafGCgn66uTnXIQ6+XlpYyc+ZMCgoLcwo0tHkA44kEJ06cwA5Xg0mVV582bRpFhUVIKRlPjrPx6ad59JFHaG9vI5VKBakx13WprKzk0zd9mptvuZmmpmYiUeUe+JVHQvedB79GyWN0JM7Jvl6ytqp0kqBTeia1dfUUFhXpijoRtsRPS/76OI5DZ2enRg3m/maaFqWlpcyaNStwk5TFJenv76et7YgOwqEYQar1nzVrlgomISfV5vHhIY4ePRJoL3+xpYAZM2YwQ1thvtWXex84jk13dze9J04E5rsw1JlqaGykqXmmFl7owJdDV1cXJ0/2qmfSAkMKg8qqGhoaG7EiFgq3rcA93d3d9HR36/cbwbmrqq5hRmMjkahvqudbeOE19SmZTNHe3n6KaR+NxWiaNZPyigqV/VCrS39fPyPxEWxdVeYHSmOxAgVIcl0iVlQrS8O3l09dZ98S1bGOoaEh3nvvvbx78K2k+vp6mptPtXwnYfJTTT2fHNfFcVQRvcp3EgSrhLAoKFDotKPXHOGee35JNjCT8n1E/5/nSdrb2hgbGwtu2v9ZXVPN/PnzT3svnufR2dmusO55ayKprKxk7ty5geQOX9t/z/j4eJ7r4DgOZjSmzU7F7BI4cOAAjz36GIcOHcLzXIqLi7Ftm0gkomrov/pVLrvsMgWukLlUo7+ppqk1iH5NACdP9jI8NETQxspnUlcFqAzDxHG0RgKVbTBO71n565pOp2k72qYyHWbuAFimSeOMGVRUVISEncqtdnZ0MDo6GkIJgqEr/JYsWXLa7wSVAmw9eDAAbphCBeUKCwuZNXsOxcWl6gDLXNDU1+jx+DBHjxwKcuGG9tcdz2XmzFnMnjNHm9HKGx0aGqTt6OHAFVEYChMBzJw1i5Y5c7UwUX8fGRnhyOHWwLR3/YyMEMyaPZs5c+bqbfEI80D4nPrfA3D8+DF6e3tVBZ4/5ENAQUGMBQuU5RWcbwxO9p0kmUrmXROUG2qaJqZl6XUxcoHRycjX8LrkdWhoiM7OTiKWhdC9BkzLIhaN0tTURHV1zSkC6pTAm2/WSn0whcb0JpNJDh85QiqdYenSpZSWlAEikLRKO7iUlJQwZ84c6urqOd7TjR8xlSjG8c0On7GOtrWRyWQCaQQqklpdVR2Yl7ngU27B/F5wvr8lIaj8qaurp6lppv9ESOnnU3MFJdlslmQyGTx3JBLR5Xwmo6OjJJNJCgoKOWfFSi6//HJ6erpJJhNkMxlmzJjBNddcwy233EJjY2OIAX14psbrm6HOIb7rogVMIpHQgULf5DKQeAwNDTM2lsil/fDTXUpgKZhr7kD6Pz3Po6enh4HBgSBK6wHCtIJ2W37nFn/9s5m0ziw4KhMipTpwQlBdXU1TU1OgRaR2NXxyHIfu7m76+3qxLJ0/d1w8V1JdVcP8BQuUOydyZyTMOAMDAxw82BqAqPROYUZUkUl1le+Pq7TS0NAQBw4cUIITv/xTVWs1NjYyo3GGvr5y+4aGhti3b58S2KYu5pGqCnHGjBk0NjVqS+FULZ7jhdz+tLW1MTY2ogNuylT3gFhhIXPmzAkJSZWFGR4eJplIEotFA8Xhr9vo6KjeQHTAzdBWXk4ZqPXwV0X9lkgk2L9/f1DcYwpVuOJpd2zFihV5sSefJo2uBz6HlCTGxuju7uSVV1/lxRdfpqi4mL//+79n8eKlhAO8/tBDwzApLi4JcqhBrhGIxWKUlJQETCGl5OjRo7nCC3QzSAklJSUBSi7sR/o/M5kMhw4dIpvVlWaeh+OpVNeMGSqCH9aS6rM5TetLdcfJTWL1Cy+OHj3KoUOHWLx4CaZp8elPf5q3336bt9/ezYWrV/O1r32NpcuWUajzov79vPHmNgYHh1RjjLJSbWK5ags1IwoIihh8zIEyR10kEI8P0dp6kKVLFxONxhCGRlRJJawERl4DBZ8Mw+DQoUPEh+OKOchZE7GCQua0zNUuAMFnE4kk7UfbcB07Z6qjcsjNzc2Ul/trSJ6i8QNAnR0d+M09/cotKSXlVZUsXLgQH3HmB/TCAauBgX7VyEOqlKcK+CnhsnDhYoTh9xpQ6aqTJ3vp6OjUJZcaNCQFpWVlzGmZSyxWqK/vBddva2sDz8UzZO79paXMntNCQUGhXgfFbRM1t3+vQiiYdXd3F6MjI8Hf/BLW6dMbqKufpi+krmGgSlo9KUlnbaW5I1E828GxldvR1dXFzFmzAUNZx/7eiFAtCOp5DP1d6XQ6J+gMVdqslIlJZWUlK1asyN1fWJNP2L+A7GyW/v5+XnvtNTY+vYF333sXT6qgyOuvvcb0adOoqKgKFkEVM6hKm3379tPX3x8wElISsSLU1tbS0NCgwQcGIyMjjMTjAXLJ8zwVjdXf41dBhTWW/+/IkSMMDQ0p4EU2C0JgWhFisRiLFy8hFisIpKJ/0PwN9Ct+YrFYUFHnOE7gM27fvp133nmHRYtUtqCuro6bbrqRT3ziSq6/7rpgeotvlqczGTY+/TQ/+9m/0XvyJC+//DLf/s63mTtvHtGoFQTh/MW39PP7kFchVAGL4ziMj4/zzKaNnHvuKubNnRtoGrWMqnONMI0gquyvh+u6HD58mHhc5ZBlIID9VFhT3kBJKT2OHTvGyb6Tqi+ATuGovbJYsGCBEjI6uitkvkmbSqVobT2IbWeRgClU4NAwTBobGykpLQ/WXQgN8BBq8EE6naKtrY3k+FjevrquQ1VVFYsWL8o7pJlMho72dpysgqX6MSEE1NTUsHTpspBpD5lMlva2NhJjo7rOX2PZBVRX17B8+QoNIsq5UOFn8xnFV0aDg4McPXKUbDYbvNfzPFwJLS0tVFZW6Vdz58wwDCKWRWFhEZlMOq+Zw+HDh3n88cf57ne/RyRWGLSi8oPUflk1hl9iqjIXQZBat6M28AeKQkNDA42Njfq7f4smF4DtOGzbto1HHnmIPbv3kBwfVwdRKDTbY48+zLT6uv+/vSttjuM4z0/PzC4AAgtgF/e1F7AEQJqGRPM+REqMRZV5WY4tkpKVomx+chLZrKjiPxCXI/tT4pRlf5CrpBRTklNUWWVXyTFFUSRVDBUrEsWQNAASwOImAIIAce01M50Pb3fPLLA8IImKnNq3iiVq2Tvb0+fbz/u8T2PnzkfhKykjV4VbmJ6axXvnzuHUqZNIJBbAuAingaGoqAhtbW0ilkkvtbCwkBVuky9n2hw9vb3o6enB+vWVS85Jtm2jq6sTU1NTSGdSAIickxELQigUQoHXEWd0d6Ac5MUrVqCurk4tIoZhgAttOk3T8KuXX0ZxUTH27t2HgoIC7N+3HxSZcEQIbNtGZ2cnTpw4gbfeeovSMzWGc+fOYGAgjm9961vYs28/EULAVWJLVVUNqmvq0NV1TT1HZ6RTxjnH1atX8I8//hGOHj2KtWvXOpdJCISYizaQWIbP58PY2BhGRkaQSqfAxOoujwOxWAxlZeVwR1E0TUNnZydmbs+QNh4oxmtzjhXFxU4ERLrqkO4kfX9iYhyjo8PglgVDiIiYto3SkhLEYjHF3JNSUnJnkgvE9evXnX7hUirJQHVNLWrr6smFFf21kFhAV1eXwAvofGqL9qyoqEQk2gwux4jGsJBM4Nr1a2LeEXvSErp9FZWViDa3qGDeYqBL9ofi+AMYGhrCwCARrjTuSFEZhoGmIMmeycWYYusW/P5y6IYHiWRKkPInzo8AABTLSURBVG0sMJ0W9mQyiTfeeAMcwMGDhxAKhV3HYxoDMqtvZmYGmUwKFf4ABgcHMS02RV3TVLKLr6SUcAHmoPt3PZPLF+3v78f/fHwJC3NzanWglDgNkxM38Yufv4ThwWFs2bwFRSuKSCzxwnmcPn0aIyMjFN6QqYo2wfsbN250cX+ZOCcJfTOdKe6zYejoj8fxy1/+EmVlfvUCbhT58uXLFMrSdYAzmBYltkQjzaiprhWrsJSMFlgDd0Cgcr8f0eZmlJSUIJGgOLsFh1k1NjaGn/3Lz9DT04unn34ajU0NFA4DkM5k0N3djd/+9rc4d+4cBgYHkTHTdFa0LOgeL/r7+3H8+HE0BoPYuXMnDMOjFpzq2lpEW1pw4cJ/Uk6xrsG2TVFnjlQqiffffx/DA4N4fPdurFu3Di0rY6ipqSdQZ2IcZ86cwfnz5/Hkk09i165diMfj6O3tpXi/xpCx5c2eDNFoFH6/3wGGGINpZtDfH8f09JTaQeQi31DfQDH+xWd/17G1P96Pmdu3lUciFw6vtwDhiJPnr/AK5hyXEgvzGBjop91KndeJJNLc3EwRClkeHPNzsxgcGkAqlSSSCqPwmdfjQVNTED5fqZqwnNtIJRfQ19dHIpcCHOaci/JN8Pl8uYZ9lknsSGIdo6OjFI+WxxpNR6CiAsFgSLHMJDYi89orq6oweWtKsCk1Nb41MMzPzuG14/+Gjy9exJ49e9Ha1orW1nYUF/uQSqUwMjKCd949jYsXL2LHju345jf+En19fa4x72BUBQUF4njktGXWuyyZ4AAMXUcsFoO/3I/b09O0cpmWy92zMT42hl+89BL+9dVXUVDgFfLADpDl9XrUiujzlWLjxo1YtWpVluBEXV0diouLxZVKGbWTMcaQSqdw/vx57Nu3D7W1NThw4ACOHHkOfn85bt6cwPj4hDi/22ASuOAcbW3tCFQEVLxXDly5E9JnRFlsaW5GOBLB5cuX6VxpeLIAvomJCbzyyit4/fXXEYmEEQoHMT8/j56eHoyPj8E0LbHLEb3S5kCB14v5ZArlfj8OHDiArVu3qB2B6sCgQ8OGDRtx5p1TuH79GrxeL+T5lQtFT13XMTw8jF+9/DJefeUVMEOH11sEy7Qxn5gHYxpaWlpQ4vOBg2LCw8PDaqBJV9nv96O5mWSyLHkBASgne2BgQGEpEvUGgNhKIqJIBFnJP7nQ6+5r3UoByE2jramtQX19g/oddca1OZgQKBwaHMT42Bgk2KprGlGHdR2xlhZqD9F3tm2jr68PtyZvCdfbOfYUFhSirb3NoVELkG9ocBAT4+O024l4OmMMhYWFaG9vJ/kqOTBymPQ0OeeYnZ1FV1cX5ufn4RHUUtkmdXUNiEajTt+6vl9bW4twJIKrf+qkndkwYJm0qUkPS2ojXrx4kRYA3UBJSSkWFhJIp9MwvB5UVlbg0KGnkE6n0dvbSzkWhiFo34R1lJWVIRgM5gQPc05yJs5Nq1avxuZt2zB2c4LYUJxDEusYGDKZtABvZjE3x5W6hXRz0kK6pqjYh02bNuPx3U+gtrY2qzE8Hg9aW1tx5coVZEwTluD2auJcaNo2PF4Nt2emwGEjECgDGMf1692krKkJCWMmJxDQ1r4S5eWlkNRVGVaRCL841EHTNDy8di2+tncfhkZGMDMzAymi4CwKNFBT6QV0dl1FZ9eVRcAdFZF3xGmMIZnJIFBRgUOHDuGZZ54hbTsRB3W7huu+8hVs274dw8NDWcQhnZGDbJsZaLrcnSzwjIWFjCnINQDTGaItUYTCQdyemUZfvBepdJpcZ9uGoWnIgKO+sRGNjY1qFwEcTy0e7wWHLVxa6l1DMxCNNJMLymhnlC67bJvZmRkM9PcjmUhmRz40Dc3RZqVoIn+LQwhvCNe9q7sL09PTNMsk8KY7g1XTHAqwrjHE432YmJiQywYgwnwrilcgEomolGECwziuX+8Rzxfnd+GJFq9YgWgkqlzaXOQTWWdpk5OT6OzspECeJb4jjk2NDQ1oaGjI+q4EGMvLy3Fg/3788b8uYGryFkwzLcaVRvx9TQCYyYS6J9CyLSzM3gYH4DE0WGYGtTU1qK6sopi/EOdQyrScKK2RlhaU+yvuGGZd8imJzTP4fKV48hvfRGxlOywbSJsWLMsGt6FSRiWwpjTYAVUJTdNQUFSMDRu34LnvHMWqVathGC52j6bB4/Fi585HUVlZTbu+C01Np9OU6cVtlPl8iIZDihc/0B/H2I1RundN05ULX19fh2AwqNh0Kg7NdACOuB3JCNOqv3fPfmzZvA0MOmyT9M8NzQPbtGBl0uCmCWYLjjSYkldiNgezKfjhFbnhpg1U19ThBz84hiNHvkOSUDZNVKnVJf8Ur1iBvXv3YmVrO2R+KU0IVzSB2zThLRMMlKfkEfRbXdcQDDYhEPBjfHwc13uuE7HGFgsbo3cMR8JoagqBc4HaivHbH49jZGhETQAbAGyGmupahJpCMHSPa0wIqS9GO/Lw4BBGh0aE60xplTQubKxcGUNlZaV6TwnIAk6oL97frwRCZHJIOpXGylgrqqorFULOwZFKp9HT24tEMkkTRGwztg3U1zWgsrICUhZKavn19PZgZnYWpmkJ1J8yGuvqGlBRGVDlFYDnMnkslGDyzZs3KWylG/B4iwDmAYMOf5kfLc0rSdcekusu+ljTYRgerFv7MI48820UeDwwmAaZeSCPsVKQAxCYBACDc2jcBrMJWIuEwvCXBzAyNIJ4X1yw/GhR5oyBQ0c4HEVpKWEubMnCxaDl8lhk6KK1tRWHDx9Ge/sqeL0etUoVFRXB4/WqHUgS5Dm4Yo2VlPiwYcNGHD58GF/60hp4BRNMMsW4cFs6Oh7CE088geLiYmiaoTJ/PB4PrVamhUAggKamJgDA7Mws4vE4LQKMtNk55zBEfJWuaFr8VhJnFlRUoW7KORAIBPC97/01HnlkBym1WLbqYK/Hq0Jd8t1tuWO4fsO2LBQUFGLTxk148cWf4ODBQygrK1OdrrwD9x8GrF79JbzwwgsUqhPCjKYIpSmBQVDapQKdRP+Ul/sRClGW1vT0NHp7e0mJRaNBbVkWVqwgAI3a1kHkb09Nk6suBDpsW+YbAJFIFI0NjWJwOOdpQycQTtM09Pb0oLe3B7ZNbSkX+srKSmL9uUJ1Tg8wcawYxODQkBBhzCj3u7CwCKGQPF87fI3BQQo3UapmRh3BdHGkrKqsgiE47PKIdWPsBpKJBLweSqyxBZAVi8VQVZVdPtfYByjcu7AgcyOSME0T8/MLQj/Agj9QgY6ODhh6LliLmIpFRUX49rPP4ujRoyj1+QAx5k3TRCKRUNp9XER1bAAZgaTThQpeRKMReAwPenp6xZFFXKEgjnaFhYWIRKJK6lw+yxn3LLe7LgcDAOzcuROapuHEG/+Ozj9dxfzcHBLpFLnlXkcowOIcHq8XJSUliEQi2Lp1Kx597KtKz0wOdhm+kt8rLi7Gc889h8JCL06cOIFxoS9m27YYLBqqqmoQClFM8dbUNPr6+qHrHtgWSd1mbAs6MxCJNKN+kfvkNkuk7sn6yKyucDiMY8eOob6+Hu+ePo2xGzdgchMm53Bz3qUXYlkSeWVYUVyMjo4OfPWrj+PRx/4CFRWVAKCOLe7QSbZRHdat24Af/vCHeO211/Dee+9h5vYUCSvYtNCShBLUjmdz0uyuqalBW1sbqdz29WFmZkbRbWU7BwIViEZbFMgpFyvpgpocYJYJBgj2mIb6+no0BJsABpiWqepu2iYYGNLJJOL9/UrKWHILLHCEwmER+11qEqEfHBxAPB4HYzo8XgoFifMWmkJh+HxlAJgS5BgeHsHA4CBsW6QYC+aXzTmC4TBKfKViR6bFbXBwED3Xe0j0wbZF8hCh68FwGCUlTnktZ7+QmaaJZDKJrq4upV+gFxSQR2cYKPf7EYvF7vh9MgZPQSEOHn4aldU1eOONE7h69QpdBGLoMG0ORYXlYititEAwQxcc/iBu3prA26f+AKbJVG8xgjQN0WiU2J2uMXdPdF0SM5Q4XlERdu3ahY6ONTh79izOnj2DoaEhzM3OISGyv4qKiuD3+1FfX4/169dj06bNaGxsFIQDR6xA/rCzk1Ol/H4/jhz5DrZvewRvn3wbp069jf7+AXLHdR0tzStR4C0C5wxTk9MYGhwWsWUPIYnpDMrKyhCNRlWus9y7neampItMhga1O2bMGENLLIZjx45h9+OP463f/x5nzp7G6Oio8lJkvJ8xugygqqoa27dvw+7duxFriSEQCKiUUtkB7jj2knaGJKwAazoeQrS5GRc/+ghvvvkbXLhwAbMzM1Q/4eanMuLqHcODVW2rsX//PoRCISwsLJA8sWUJtJp2LYvbqAgE0BpbqRYbiYLfnLyJeDwOj8eAbTMhOMlRWlqKlW1tgq9Ou7flQukZGKamp9F97RoNUFAmlMfjATdN1NXVIxQMLhnoACHzNueUmjo8DF3XkUwm6UYVTUck2ozm5hY1gcGZWMB6xfXYJMjJQKHcuoYGNDY2CSyE7juTi8LI6CjAmMjxF656YwMaVNqyKC/uRsuqrYwkiCOgOwGKAbA4HZuCwSD8gYD7FRe9NSOqKwB/oBJf//o3sHXbNly69DFOnjyJc2fPYXZuDgx0dZPhIVVWQ/egKRjEV9auxaOPPYY1a9bg3LlzuHTporhUwZmyhmEgFosp8M+tO5dVF74IkpOT3LIseL1eteOmUklyFcSuMD4+jmQyqdC9oqIiJQVl29w1sbWs3SxbsD67Upy2Kmi6jvn5eUzevIlMJoOamhqVkaRYdHCogvLFLbErOA2hZb2X6eIvZzWEC4XnALhtw7Qy6Iv3oa+vDyMjI0gmkyguLkZNTQ1aWmIIhYKCY56BTKSghcNZQNy4xeKGt+Goj2riJk4ZYZibm8OHH36IoUE6uyYSSfj95QiFIlizZg0CFZUUdnNVnkA7mQhCOxWH474phFyjcJ30ewm2EMQem8G06HPdY5AWnaarycA5KYvqmi6yvVyuofyviFE67+skbViWDZubdF2Q4P+DE7ZhM9G3uk7oNxOZaVx4JqAjAQMAm9MFH3K8clsdOyxxUQO3SbxDNVGO8vKM7+4Z98LvJmlpmqaiCzLcCEDVdXH/OqQjcdmCpkHXmbqSCyAF18nJSczMToMxDX5/BaqrquHzlZCUtWnixo0b+OlPf4J3T79DiLthgIuoTk1dA/7uhb/Hnj17nGNhjrGWc5K7Y37ulW1xOTU4gKwfyVVONpb7O0D2OdM92d1/d/9/9vNt5eLIkIdzls2RtsddE0tbKg8t+dsA4CJ4qYZb/K6q7KLnLbZcDS9L2jYHh62GGlP/6vSBI9skSsi6qP/Kh8kECSrHsbRvHB6/k1VIov2AbTviFTLKIsNc8t00CFYWY8J9dOqhymgSAHLemZ7huO1MoN4ABEnIUVjlYK48fLH4igsIZP9m3Y0mpqqTxSVBS8lByw4R2shO61w8yRf/PavvZWiPOzfu5uxfNdaY6EvHnc5+vryQUbYNIfe2uALrzTd/g3/+2T/h5viEA3DbhHtt3f4I/uFHP0ZZWVnWcVjWWVruEJoo4K5QrnKLH5bLLXV/dj/Pu59nOuZmcN3p2Rzu3c6NPt6tvrl+dnG9lqyYd61rbiPk2am7M8nJdH0pWqqQu8V1cjcBX1xf+nAp+gr1mRIbYOoRyk2XnzFA3Ewsd2z38+9ktiqjIKFFV/kw13tyV59J0zQdcPWxGzGWiZrutpPPd0NQ2eVt17/ce+ypv0vgT36eE7p2zE1OcXtUThiWOdELjYEx8qTNTAZ/OPkfeOnnP8f01BQ0TVNXRYMBZf5y7Nu/T2UWutO3F4fSlqW7/sWz5U4q57T+mTzuU1nuXd+xnAe9u/3rPb5+t9/Lntz39RvLXNByLKd3KZurrg+6/H3aMl6bPEtNRCDcG4MMFVvODT9ClZZzuh/9zLun8dMXX8Tk5KT6ycLCQpGCzLBp02Z8+csdSKcp9ftOXiTwZz/J/3zt3gPt81hxlnFLVt6WbQ6I7cKcAFAqsrhZR/BKACCRSODSpUs4deoUTp38A6Ymb6krrzRNg5nOAJqOla3teOrgIUEu03Pu3m5bxiRfShy4P3swA2l5a/cneab9CZ/3Wb1vdnu7UIy71mtxuyyn7IP+3v08Z7m/+1mWv5vd6Z3v9DzpQv/3Hz/AyZMnsWPHDmzZutm5MIFzgFPK7sjIMC5fvozf/e53+PDDD0lsxaY7z7grQsMYQygcxvPPfx9r1nSIewgyWexCYOmxMb+T5y1vD8AYY0ilUvjggw/w61+/juPHj8PjNRCNRlBREYBheBCPxzE8PAzLyqhIlkdEHijqQiCroRNfora2Ft/97nexY8fOrIksiUKSQLbY8pM8b3l7IMYxPTWJ7mt/gmmloRsaLCuD7u7OLA6FW7yE2RxJO6NuNtUMmvAZC2huacbf/O3z2Lb9EcUsZYwptD8Xy1DaMib554pKfcb2Ser+oN/3827P/8v+W+5vf9HKfxJjuHVrEh9/9BGJTpqmujRBReZtCpV5PIaQ6+LqIkbOSbvd8Hiwfv0GPP/9H6C9vQ0FBYVC8ELkRNwD3Qf+jCf5/dfmk5b8Yk3y+y19N0z509Xg03wv9zeWU9fPo/zdbLnfMM0MhoaGcOvWLTqDu/IdTJMIOzIUamZMtaunUnTvOdM0VAUq8NRTB/Hss38Fn5CPTqfTYDrlutOVYPe2vLuet7w9AEskEuju7gZnJDKiaUSlZYyRQoyE8rhg7zEGS+zkoXAYm7duwRNPfA2rVq9W8lCAvKKKZZMO7mH5SZ63vD0A0zQNZeV+BCqqMDV1iyi94vJJgLLRGAO8Xi8SCwnU1dVh/fp1eOyxXXjooQ5UVFQq1Jxp4jJtRmngpLkHMP3+ZvkSWmve8pa3T2+U324ilUrjypXLuHjxIkZHRzE9Tddz+/0BVFdXwe/34+GH1yIcDqnQmkqIYsyV6+Fkq0l67J2SnxZbfpLnLW8PwNw5F5Juupi7npWYtZjKy7kQUZGT28mfuN/JrX4nP8nzlrcvgt3PNJQT202Uujf5Kn8mz1vevhD24KI5efJy3vL2/9z+F7nkzdb0ReiVAAAAAElFTkSuQmCC;" vertex="1" parent="I79zV8GsZZfp62jos5SP-49">
          <mxGeometry x="56.629999999999995" y="140" width="76.74" height="49" as="geometry" />
        </mxCell>
        <mxCell id="I79zV8GsZZfp62jos5SP-67" value="&lt;font style=&quot;font-size: 13px;&quot;&gt;&lt;b&gt;Raspberry Pi&lt;/b&gt;&lt;/font&gt;" style="verticalLabelPosition=bottom;verticalAlign=top;html=1;shape=card;whiteSpace=wrap;size=20;arcSize=12;fontFamily=Tahoma;" vertex="1" parent="1">
          <mxGeometry x="20" y="420" width="140" height="90" as="geometry" />
        </mxCell>
        <mxCell id="I79zV8GsZZfp62jos5SP-69" value="" style="shape=image;html=1;verticalAlign=top;verticalLabelPosition=bottom;labelBackgroundColor=#ffffff;imageAspect=0;aspect=fixed;image=https://cdn1.iconfinder.com/data/icons/fruit-136/64/Fruit_iconfree_Filled_Outline_raspberry-healthy-organic-food-fruit_icon-128.png;fontFamily=Tahoma;" vertex="1" parent="1">
          <mxGeometry x="65" y="438.5" width="50" height="50" as="geometry" />
        </mxCell>
        <mxCell id="I79zV8GsZZfp62jos5SP-75" style="edgeStyle=orthogonalEdgeStyle;rounded=0;orthogonalLoop=1;jettySize=auto;html=1;entryX=1;entryY=0.5;entryDx=0;entryDy=0;entryPerimeter=0;fontFamily=Tahoma;" edge="1" parent="1" source="I79zV8GsZZfp62jos5SP-27" target="I79zV8GsZZfp62jos5SP-67">
          <mxGeometry relative="1" as="geometry" />
        </mxCell>
        <mxCell id="I79zV8GsZZfp62jos5SP-82" value="" style="rounded=0;whiteSpace=wrap;html=1;fontFamily=Tahoma;" vertex="1" parent="1">
          <mxGeometry x="200" y="930" width="660" height="450" as="geometry" />
        </mxCell>
        <mxCell id="I79zV8GsZZfp62jos5SP-92" style="edgeStyle=orthogonalEdgeStyle;rounded=0;orthogonalLoop=1;jettySize=auto;html=1;entryX=0.25;entryY=1;entryDx=0;entryDy=0;fontFamily=Tahoma;" edge="1" parent="1" source="I79zV8GsZZfp62jos5SP-84" target="I79zV8GsZZfp62jos5SP-81">
          <mxGeometry relative="1" as="geometry" />
        </mxCell>
        <mxCell id="I79zV8GsZZfp62jos5SP-84" value="&lt;b&gt;ESP8266 &lt;br&gt;&amp;amp;&lt;/b&gt;&lt;br&gt;&lt;b&gt;YL-69&lt;/b&gt;" style="ellipse;whiteSpace=wrap;html=1;aspect=fixed;fontFamily=Tahoma;fillColor=none;gradientColor=none;" vertex="1" parent="1">
          <mxGeometry x="300" y="1030" width="80" height="80" as="geometry" />
        </mxCell>
        <mxCell id="I79zV8GsZZfp62jos5SP-97" style="edgeStyle=orthogonalEdgeStyle;rounded=0;orthogonalLoop=1;jettySize=auto;html=1;entryX=0.075;entryY=1.1;entryDx=0;entryDy=0;entryPerimeter=0;fontFamily=Tahoma;" edge="1" parent="1" source="I79zV8GsZZfp62jos5SP-85" target="I79zV8GsZZfp62jos5SP-81">
          <mxGeometry relative="1" as="geometry" />
        </mxCell>
        <mxCell id="I79zV8GsZZfp62jos5SP-85" value="&lt;b&gt;ESP8266&lt;br&gt;&amp;amp;&lt;/b&gt;&lt;br&gt;&lt;b&gt;YL-69&lt;/b&gt;" style="ellipse;whiteSpace=wrap;html=1;aspect=fixed;fontFamily=Tahoma;fillColor=none;gradientColor=none;" vertex="1" parent="1">
          <mxGeometry x="380" y="1140" width="80" height="80" as="geometry" />
        </mxCell>
        <mxCell id="I79zV8GsZZfp62jos5SP-93" style="edgeStyle=orthogonalEdgeStyle;rounded=0;orthogonalLoop=1;jettySize=auto;html=1;entryX=0.75;entryY=1;entryDx=0;entryDy=0;fontFamily=Tahoma;" edge="1" parent="1" source="I79zV8GsZZfp62jos5SP-86" target="I79zV8GsZZfp62jos5SP-81">
          <mxGeometry relative="1" as="geometry" />
        </mxCell>
        <mxCell id="I79zV8GsZZfp62jos5SP-86" value="&lt;b&gt;ESP8266&lt;br&gt;&amp;amp;&lt;/b&gt;&lt;br&gt;&lt;b&gt;YL-69&lt;/b&gt;" style="ellipse;whiteSpace=wrap;html=1;aspect=fixed;fontFamily=Tahoma;fillColor=none;gradientColor=none;" vertex="1" parent="1">
          <mxGeometry x="650" y="1030" width="80" height="80" as="geometry" />
        </mxCell>
        <mxCell id="I79zV8GsZZfp62jos5SP-101" style="edgeStyle=orthogonalEdgeStyle;rounded=0;orthogonalLoop=1;jettySize=auto;html=1;entryX=0.323;entryY=1.005;entryDx=0;entryDy=0;entryPerimeter=0;fontFamily=Tahoma;" edge="1" parent="1" source="I79zV8GsZZfp62jos5SP-87" target="I79zV8GsZZfp62jos5SP-81">
          <mxGeometry relative="1" as="geometry">
            <Array as="points">
              <mxPoint x="491" y="1310" />
            </Array>
          </mxGeometry>
        </mxCell>
        <mxCell id="I79zV8GsZZfp62jos5SP-87" value="&lt;b&gt;ESP8266&lt;br&gt;&amp;amp;&lt;/b&gt;&lt;br&gt;&lt;b&gt;YL-69&lt;/b&gt;" style="ellipse;whiteSpace=wrap;html=1;aspect=fixed;fontFamily=Tahoma;fillColor=none;gradientColor=none;" vertex="1" parent="1">
          <mxGeometry x="500" y="1270" width="80" height="80" as="geometry" />
        </mxCell>
        <mxCell id="I79zV8GsZZfp62jos5SP-98" style="edgeStyle=orthogonalEdgeStyle;rounded=0;orthogonalLoop=1;jettySize=auto;html=1;entryX=0.406;entryY=1.005;entryDx=0;entryDy=0;entryPerimeter=0;fontFamily=Tahoma;" edge="1" parent="1" source="I79zV8GsZZfp62jos5SP-88" target="I79zV8GsZZfp62jos5SP-81">
          <mxGeometry relative="1" as="geometry" />
        </mxCell>
        <mxCell id="I79zV8GsZZfp62jos5SP-94" style="edgeStyle=orthogonalEdgeStyle;rounded=0;orthogonalLoop=1;jettySize=auto;html=1;exitX=0.5;exitY=0;exitDx=0;exitDy=0;fontFamily=Tahoma;entryX=0.564;entryY=1.005;entryDx=0;entryDy=0;entryPerimeter=0;" edge="1" parent="1" source="I79zV8GsZZfp62jos5SP-89" target="I79zV8GsZZfp62jos5SP-81">
          <mxGeometry relative="1" as="geometry">
            <mxPoint x="580" y="850" as="targetPoint" />
          </mxGeometry>
        </mxCell>
        <mxCell id="I79zV8GsZZfp62jos5SP-89" value="&lt;b&gt;ESP8266&lt;br&gt;&amp;amp;&lt;/b&gt;&lt;br&gt;&lt;b&gt;YL-69&lt;/b&gt;" style="ellipse;whiteSpace=wrap;html=1;aspect=fixed;fontFamily=Tahoma;fillColor=none;gradientColor=none;" vertex="1" parent="1">
          <mxGeometry x="555" y="1140" width="80" height="80" as="geometry" />
        </mxCell>
        <mxCell id="I79zV8GsZZfp62jos5SP-88" value="&lt;b&gt;ESP8266&lt;br&gt;&amp;amp;&lt;/b&gt;&lt;br&gt;&lt;b&gt;YL-69&lt;/b&gt;" style="ellipse;whiteSpace=wrap;html=1;aspect=fixed;fontFamily=Tahoma;fillColor=none;gradientColor=none;" vertex="1" parent="1">
          <mxGeometry x="500" y="1030" width="80" height="80" as="geometry" />
        </mxCell>
        <mxCell id="I79zV8GsZZfp62jos5SP-102" style="edgeStyle=orthogonalEdgeStyle;rounded=0;orthogonalLoop=1;jettySize=auto;html=1;entryX=0.5;entryY=1;entryDx=0;entryDy=0;fontFamily=Tahoma;" edge="1" parent="1" source="I79zV8GsZZfp62jos5SP-30" target="I79zV8GsZZfp62jos5SP-42">
          <mxGeometry relative="1" as="geometry">
            <Array as="points">
              <mxPoint x="542" y="280" />
              <mxPoint x="454" y="280" />
            </Array>
          </mxGeometry>
        </mxCell>
        <mxCell id="I79zV8GsZZfp62jos5SP-103" style="edgeStyle=orthogonalEdgeStyle;rounded=0;orthogonalLoop=1;jettySize=auto;html=1;entryX=0.5;entryY=1;entryDx=0;entryDy=0;entryPerimeter=0;fontFamily=Tahoma;" edge="1" parent="1" source="I79zV8GsZZfp62jos5SP-31" target="I79zV8GsZZfp62jos5SP-9">
          <mxGeometry relative="1" as="geometry">
            <Array as="points">
              <mxPoint x="695" y="280" />
              <mxPoint x="730" y="280" />
            </Array>
          </mxGeometry>
        </mxCell>
        <mxCell id="I79zV8GsZZfp62jos5SP-105" value="Ekili Alan&amp;nbsp;&amp;nbsp;" style="text;html=1;strokeColor=none;fillColor=none;align=left;verticalAlign=middle;whiteSpace=wrap;rounded=0;fontFamily=Tahoma;fontStyle=1;fontSize=14;" vertex="1" parent="1">
          <mxGeometry x="220" y="1330" width="200" height="30" as="geometry" />
        </mxCell>
        <mxCell id="I79zV8GsZZfp62jos5SP-106" value="Text" style="text;html=1;strokeColor=none;fillColor=none;align=center;verticalAlign=middle;whiteSpace=wrap;rounded=0;fontFamily=Tahoma;fontSize=14;" vertex="1" parent="1">
          <mxGeometry x="290" y="590" width="60" height="30" as="geometry" />
        </mxCell>
      </root>
    </mxGraphModel>
  </diagram>
</mxfile>
